<svg xmlns="http://www.w3.org/2000/svg" width="100" height="100" fill="none" viewBox="0 0 100 100">
  <g clip-path="url(#clip)">
    <rect width="100" height="100" rx="13.3333" fill="#0A0B04"/>
    <!-- Icon: Concentric circles (top-left) -->
    <path fill="url(#gl)" stroke="url(#sl)" stroke-miterlimit="2.366" stroke-width=".4" d="M26.576 42.775c8.946 0 16.2-7.253 16.2-16.2s-7.254-16.2-16.2-16.2c-8.948 0-16.2 7.253-16.2 16.2s7.252 16.2 16.2 16.2Zm13.88-16.2c0 7.666-6.215 13.88-13.88 13.88s-13.88-6.214-13.88-13.88c0-7.665 6.214-13.88 13.88-13.88 7.665 0 13.88 6.215 13.88 13.88Zm-13.88 12.36c6.826 0 12.36-5.533 12.36-12.36s-5.534-12.36-12.36-12.36c-6.827 0-12.36 5.534-12.36 12.36 0 6.827 5.533 12.36 12.36 12.36Zm10.04-12.36c0 5.545-4.496 10.04-10.04 10.04-5.546 0-10.04-4.495-10.04-10.04s4.494-10.04 10.04-10.04c5.544 0 10.04 4.496 10.04 10.04Zm-10.04 8.52a8.52 8.52 0 1 0 0-17.04 8.52 8.52 0 0 0 0 17.04Zm6.2-8.52a6.2 6.2 0 1 1-12.4 0 6.2 6.2 0 0 1 12.4 0Z"/>
    <!-- Icon: 4-pointed star (top-right) -->
    <path fill="url(#gr)" stroke="url(#sr)" stroke-width=".4" d="M58.981 26.6a17.87 17.87 0 0 0 14.737-14.736A17.87 17.87 0 0 0 88.454 26.6a17.87 17.87 0 0 0-14.736 14.736A17.87 17.87 0 0 0 58.98 26.6Z"/>
    <!-- Icon: Hourglass (bottom-left) -->
    <path fill="url(#gbl)" stroke="url(#sbl)" stroke-width=".416" d="m22.201 75.176.16.133-.16-.133-7.57 9.03.16.133-.16-.134c-1.729 2.063-.267 5.213 2.423 5.213h19.367c2.69 0 4.152-3.15 2.423-5.213l-7.57-9.03-.16.134.16-.133a2.76 2.76 0 0 1 0-3.547l-.16-.133.16.133 7.57-9.03c1.73-2.062.267-5.211-2.423-5.211H17.054c-2.69 0-4.152 3.149-2.423 5.212l7.57 9.03a2.76 2.76 0 0 1 0 3.546Z"/>
    <!-- Icon: Puzzle piece (bottom-right) -->
    <path fill="url(#gbr)" stroke="url(#sbr)" stroke-width=".4" d="M73.347 61.415a3.59 3.59 0 0 0-3.588-3.588h-8.624a3.59 3.59 0 0 0-3.588 3.588v8.735a3.59 3.59 0 0 0 3.588 3.588h8.624a3.19 3.19 0 0 1 3.188 3.188v8.513a3.59 3.59 0 0 0 3.588 3.588h8.624a3.59 3.59 0 0 0 3.588-3.588v-8.735a3.59 3.59 0 0 0-3.588-3.588h-8.624a3.19 3.19 0 0 1-3.188-3.188z"/>
    <!-- Grid divider cross -->
    <path fill="url(#gcr)" stroke="url(#scr)" stroke-width=".254" d="M87.547 49.899q.813 0 1.591.12c-.707.15-1.442.23-2.194.23H61.599c-5.936 0-10.747 4.81-10.747 10.746v26.552q0 .812-.12 1.591a10.6 10.6 0 0 1-.23-2.194V61.599c0-5.936-4.812-10.747-10.748-10.747H12.203q-.812 0-1.591-.12c.707-.15 1.441-.23 2.194-.23h26.345c5.936 0 10.747-4.812 10.747-10.748V12.203q0-.813.12-1.591c.15.707.23 1.441.23 2.194v26.345c0 5.936 4.812 10.747 10.748 10.747z"/>
  </g>
  <rect x="0.5" y="0.5" width="99" height="99" rx="12.8333" stroke="white" stroke-opacity="0.6"/>
  <defs>
    <linearGradient id="gl" x1="26.576" x2="26.576" y1="10.575" y2="42.575" gradientUnits="userSpaceOnUse"><stop stop-color="#c5c7bc"/><stop offset="1" stop-color="#60615c"/></linearGradient>
    <linearGradient id="gr" x1="73.718" x2="73.718" y1="10.082" y2="43.118" gradientUnits="userSpaceOnUse"><stop stop-color="#c5c7bc"/><stop offset="1" stop-color="#60615c"/></linearGradient>
    <linearGradient id="gbl" x1="26.738" x2="26.738" y1="57.595" y2="89.21" gradientUnits="userSpaceOnUse"><stop stop-color="#c5c7bc"/><stop offset="1" stop-color="#60615c"/></linearGradient>
    <linearGradient id="gbr" x1="73.147" x2="73.147" y1="58.027" y2="88.827" gradientUnits="userSpaceOnUse"><stop stop-color="#c5c7bc"/><stop offset="1" stop-color="#60615c"/></linearGradient>
    <linearGradient id="gcr" x1="50.375" x2="50.375" y1="25" y2="75.75" gradientUnits="userSpaceOnUse"><stop stop-color="#c5c7bc"/><stop offset="1" stop-color="#60615c"/></linearGradient>
    <radialGradient id="sl" cx="0" cy="0" r="1" gradientTransform="rotate(-89.48 26.583 -.101)scale(37.569 68.8227)" gradientUnits="userSpaceOnUse"><stop offset=".25" stop-color="#c5c7bc"/><stop offset="1" stop-color="#f2e8ea"/></radialGradient>
    <radialGradient id="sr" cx="0" cy="0" r="1" gradientTransform="rotate(-89.96 50.051 -23.564)scale(27.9854 30.6103)" gradientUnits="userSpaceOnUse"><stop offset=".25" stop-color="#c5c7bc"/><stop offset="1" stop-color="#f2e8ea"/></radialGradient>
    <radialGradient id="sbl" cx="0" cy="0" r="1" gradientTransform="rotate(-90.125 49.891 23.368)scale(41.6587 60.5457)" gradientUnits="userSpaceOnUse"><stop offset=".25" stop-color="#c5c7bc"/><stop offset="1" stop-color="#f2e8ea"/></radialGradient>
    <radialGradient id="sbr" cx="0" cy="0" r="1" gradientTransform="matrix(0 -38.529 69.9963 0 73.02 73.337)" gradientUnits="userSpaceOnUse"><stop offset=".25" stop-color="#c5c7bc"/><stop offset="1" stop-color="#f2e8ea"/></radialGradient>
    <radialGradient id="scr" cx="0" cy="0" r="1" gradientTransform="rotate(-90.29 50.317 .087)scale(21.7758 23.9032)" gradientUnits="userSpaceOnUse"><stop offset=".25" stop-color="#c5c7bc"/><stop offset="1" stop-color="#f2e8ea"/></radialGradient>
    <clipPath id="clip"><rect width="100" height="100" rx="13.3333" fill="white"/></clipPath>
  </defs>
</svg>
