<svg width="139" height="112" viewBox="0 0 139 112" fill="none" xmlns="http://www.w3.org/2000/svg">
<path d="M5.5 1H133C135.761 1 138 3.23858 138 6V106C138 108.761 135.761 111 133 111H5.5C2.73858 111 0.5 108.761 0.5 106V6C0.5 3.23858 2.73858 1 5.5 1Z" stroke="#C5C7BC" stroke-width="0.458333"/>
<path d="M0.5 80H138.5V106C138.5 108.761 136.261 111 133.5 111H5.5C2.73858 111 0.5 108.761 0.5 106V80Z" fill="#C5C7BC"/>
<rect x="23.7979" y="8.29792" width="90.4042" height="64.4042" rx="2.08542" stroke="#C5C7BC" stroke-width="0.595833"/>
<path d="M0.5 79.8333L138 79.8333" stroke="#C5C7BC" stroke-width="0.458333"/>
<circle cx="34.55" cy="17.75" r="3.20357" stroke="#C5C7BC" stroke-width="0.0928571"/>
<circle cx="34.5499" cy="16.2643" r="0.835714" fill="#C5C7BC"/>
<path d="M32.9714 18.6786C32.9714 17.8068 33.6782 17.1 34.55 17.1C35.4218 17.1 36.1286 17.8068 36.1286 18.6786V19.4679C36.1286 19.9038 35.7752 20.2571 35.3393 20.2571H33.7607C33.3248 20.2571 32.9714 19.9038 32.9714 19.4679V18.6786Z" fill="#C5C7BC"/>
<circle cx="101.175" cy="25.55" r="3.20357" stroke="#C5C7BC" stroke-width="0.0928571"/>
<circle cx="101.175" cy="24.0643" r="0.835714" fill="#C5C7BC"/>
<path d="M99.5964 26.4786C99.5964 25.6067 100.303 24.9 101.175 24.9C102.047 24.9 102.754 25.6067 102.754 26.4786V27.2679C102.754 27.7038 102.4 28.0571 101.964 28.0571H100.386C99.9498 28.0571 99.5964 27.7038 99.5964 27.2679V26.4786Z" fill="#C5C7BC"/>
<rect x="31.3" y="65.2" width="74.1" height="3.9" rx="1.3" fill="#C5C7BC"/>
<rect x="111.9" y="63.9" width="52" height="1.3" rx="0.65" transform="rotate(-90 111.9 63.9)" fill="#C5C7BC"/>
<rect x="39.1" y="14.5" width="26" height="6.5" rx="1.57721" fill="#C5C7BC"/>
<rect x="70.3" y="22.3" width="26" height="6.5" rx="1.57721" fill="#C5C7BC"/>
<circle cx="34.55" cy="32.05" r="3.20357" stroke="#C5C7BC" stroke-width="0.0928571"/>
<circle cx="34.5499" cy="30.5643" r="0.835714" fill="#C5C7BC"/>
<path d="M32.9714 32.9786C32.9714 32.1067 33.6782 31.4 34.55 31.4C35.4218 31.4 36.1286 32.1067 36.1286 32.9786V33.7679C36.1286 34.2038 35.7752 34.5571 35.3393 34.5571H33.7607C33.3248 34.5571 32.9714 34.2038 32.9714 33.7679V32.9786Z" fill="#C5C7BC"/>
<rect x="39.1" y="28.8" width="26" height="19.5" rx="1.57721" fill="#C5C7BC"/>
<circle cx="101.175" cy="51.55" r="3.20357" stroke="#C5C7BC" stroke-width="0.0928571"/>
<circle cx="101.175" cy="50.0643" r="0.835714" fill="#C5C7BC"/>
<path d="M99.5964 52.4786C99.5964 51.6067 100.303 50.9 101.175 50.9C102.047 50.9 102.754 51.6067 102.754 52.4786V53.2679C102.754 53.7038 102.4 54.0571 101.964 54.0571H100.386C99.9498 54.0571 99.5964 53.7038 99.5964 53.2679V52.4786Z" fill="#C5C7BC"/>
<rect x="70.3" y="48.3" width="26" height="13" rx="1.57721" fill="#C5C7BC"/>
</svg>
