<svg width="100" height="100" viewBox="0 0 100 100" fill="none" xmlns="http://www.w3.org/2000/svg">
<g clip-path="url(#clip0_1158_1067)">
<rect width="100" height="100" rx="13.3333" fill="#0A0B04"/>
<mask id="path-3-outside-1_1158_1067" maskUnits="userSpaceOnUse" x="22.5" y="29.3333" width="54" height="42" fill="black">
<rect fill="white" x="22.5" y="29.3333" width="54" height="42"/>
<path d="M30.9961 38.3333L38.9961 30.3333H54.9961V38.3333H30.9961ZM30.9961 38.3333V54.3333H34.9961L42.9961 46.3333H54.9961V38.3333H62.9961V70.3333H54.9961V54.3333H46.9961L38.9961 62.3333H30.9961V70.3333H22.9961V30.3333H30.9961V38.3333ZM68.0156 70.3333V30.3333H76.0156V70.3333H68.0156Z"/>
</mask>
<path d="M30.9961 38.3333L38.9961 30.3333H54.9961V38.3333H30.9961ZM30.9961 38.3333V54.3333H34.9961L42.9961 46.3333H54.9961V38.3333H62.9961V70.3333H54.9961V54.3333H46.9961L38.9961 62.3333H30.9961V70.3333H22.9961V30.3333H30.9961V38.3333ZM68.0156 70.3333V30.3333H76.0156V70.3333H68.0156Z" fill="url(#paint0_linear_1158_1067)"/>
<path d="M30.9961 38.3333L30.8488 38.186L30.4931 38.5417H30.9961V38.3333ZM38.9961 30.3333V30.125H38.9098L38.8488 30.186L38.9961 30.3333ZM54.9961 30.3333H55.2044V30.125H54.9961V30.3333ZM54.9961 38.3333V38.5417H55.2044V38.3333H54.9961ZM30.9961 54.3333H30.7878V54.5417H30.9961V54.3333ZM34.9961 54.3333V54.5417H35.0824L35.1434 54.4807L34.9961 54.3333ZM42.9961 46.3333V46.125H42.9098L42.8488 46.186L42.9961 46.3333ZM54.9961 46.3333V46.5417H55.2044V46.3333H54.9961ZM54.9961 38.3333V38.125H54.7878V38.3333H54.9961ZM62.9961 38.3333H63.2044V38.125H62.9961V38.3333ZM62.9961 70.3333V70.5417H63.2044V70.3333H62.9961ZM54.9961 70.3333H54.7878V70.5417H54.9961V70.3333ZM54.9961 54.3333H55.2044V54.125H54.9961V54.3333ZM46.9961 54.3333V54.125H46.9098L46.8488 54.186L46.9961 54.3333ZM38.9961 62.3333V62.5417H39.0824L39.1434 62.4807L38.9961 62.3333ZM30.9961 62.3333V62.125H30.7878V62.3333H30.9961ZM30.9961 70.3333V70.5417H31.2044V70.3333H30.9961ZM22.9961 70.3333H22.7878V70.5417H22.9961V70.3333ZM22.9961 30.3333V30.125H22.7878V30.3333H22.9961ZM30.9961 30.3333H31.2044V30.125H30.9961V30.3333ZM31.1434 38.4807L39.1434 30.4807L38.8488 30.186L30.8488 38.186L31.1434 38.4807ZM38.9961 30.5417H54.9961V30.125H38.9961V30.5417ZM54.7878 30.3333V38.3333H55.2044V30.3333H54.7878ZM54.9961 38.125H30.9961V38.5417H54.9961V38.125ZM30.7878 38.3333V54.3333H31.2044V38.3333H30.7878ZM30.9961 54.5417H34.9961V54.125H30.9961V54.5417ZM35.1434 54.4807L43.1434 46.4807L42.8488 46.186L34.8488 54.186L35.1434 54.4807ZM42.9961 46.5417H54.9961V46.125H42.9961V46.5417ZM55.2044 46.3333V38.3333H54.7878V46.3333H55.2044ZM54.9961 38.5417H62.9961V38.125H54.9961V38.5417ZM62.7878 38.3333V70.3333H63.2044V38.3333H62.7878ZM62.9961 70.125H54.9961V70.5417H62.9961V70.125ZM55.2044 70.3333V54.3333H54.7878V70.3333H55.2044ZM54.9961 54.125H46.9961V54.5417H54.9961V54.125ZM46.8488 54.186L38.8488 62.186L39.1434 62.4807L47.1434 54.4807L46.8488 54.186ZM38.9961 62.125H30.9961V62.5417H38.9961V62.125ZM30.7878 62.3333V70.3333H31.2044V62.3333H30.7878ZM30.9961 70.125H22.9961V70.5417H30.9961V70.125ZM23.2044 70.3333V30.3333H22.7878V70.3333H23.2044ZM22.9961 30.5417H30.9961V30.125H22.9961V30.5417ZM30.7878 30.3333V38.3333H31.2044V30.3333H30.7878ZM68.0156 70.3333H67.8073V70.5417H68.0156V70.3333ZM68.0156 30.3333V30.125H67.8073V30.3333H68.0156ZM76.0156 30.3333H76.224V30.125H76.0156V30.3333ZM76.0156 70.3333V70.5417H76.224V70.3333H76.0156ZM68.224 70.3333V30.3333H67.8073V70.3333H68.224ZM68.0156 30.5417H76.0156V30.125H68.0156V30.5417ZM75.8073 30.3333V70.3333H76.224V30.3333H75.8073ZM76.0156 70.125H68.0156V70.5417H76.0156V70.125Z" fill="url(#paint1_radial_1158_1067)" mask="url(#path-3-outside-1_1158_1067)"/>
<g opacity="0.2" filter="url(#filter0_f_1158_1067)">
<path d="M-281.761 324.546L-295.833 310.474L-48.9629 63.6045L123.263 -100.341L-34.8913 77.6761L-281.761 324.546Z" fill="url(#paint2_linear_1158_1067)" fill-opacity="0.4"/>
</g>
<g opacity="0.32" filter="url(#filter1_f_1158_1067)">
<path d="M-164.456 318.611L-178.528 304.539L68.3424 57.6691L240.568 -106.277L82.414 71.7407L-164.456 318.611Z" fill="url(#paint3_linear_1158_1067)" fill-opacity="0.4"/>
</g>
<g opacity="0.32" filter="url(#filter2_f_1158_1067)">
<path d="M-119.418 379.01L-133.489 364.938L113.381 118.068L285.607 -45.8775L127.452 132.14L-119.418 379.01Z" fill="url(#paint4_linear_1158_1067)" fill-opacity="0.4"/>
</g>
</g>
<rect x="0.5" y="0.5" width="99" height="99" rx="12.8333" stroke="white" stroke-opacity="0.6"/>
<defs>
<filter id="filter0_f_1158_1067" x="-337.728" y="-142.236" width="502.886" height="508.678" filterUnits="userSpaceOnUse" color-interpolation-filters="sRGB">
<feFlood flood-opacity="0" result="BackgroundImageFix"/>
<feBlend mode="normal" in="SourceGraphic" in2="BackgroundImageFix" result="shape"/>
<feGaussianBlur stdDeviation="20.9476" result="effect1_foregroundBlur_1158_1067"/>
</filter>
<filter id="filter1_f_1158_1067" x="-220.423" y="-148.172" width="502.886" height="508.678" filterUnits="userSpaceOnUse" color-interpolation-filters="sRGB">
<feFlood flood-opacity="0" result="BackgroundImageFix"/>
<feBlend mode="normal" in="SourceGraphic" in2="BackgroundImageFix" result="shape"/>
<feGaussianBlur stdDeviation="20.9476" result="effect1_foregroundBlur_1158_1067"/>
</filter>
<filter id="filter2_f_1158_1067" x="-175.384" y="-87.7727" width="502.886" height="508.678" filterUnits="userSpaceOnUse" color-interpolation-filters="sRGB">
<feFlood flood-opacity="0" result="BackgroundImageFix"/>
<feBlend mode="normal" in="SourceGraphic" in2="BackgroundImageFix" result="shape"/>
<feGaussianBlur stdDeviation="20.9476" result="effect1_foregroundBlur_1158_1067"/>
</filter>
<linearGradient id="paint0_linear_1158_1067" x1="49.5" y1="8.33334" x2="49.5" y2="92.3334" gradientUnits="userSpaceOnUse">
<stop stop-color="#C5C7BC"/>
<stop offset="1" stop-color="#60615C"/>
</linearGradient>
<radialGradient id="paint1_radial_1158_1067" cx="0" cy="0" r="1" gradientUnits="userSpaceOnUse" gradientTransform="translate(49.193 50.0866) rotate(-90.1379) scale(110.688 177.149)">
<stop offset="0.25" stop-color="#C5C7BC"/>
<stop offset="1" stop-color="#F2E8EA"/>
</radialGradient>
<linearGradient id="paint2_linear_1158_1067" x1="-288.797" y1="317.51" x2="-41.9271" y2="70.6403" gradientUnits="userSpaceOnUse">
<stop stop-color="white"/>
<stop offset="1" stop-color="#D3D8DF"/>
</linearGradient>
<linearGradient id="paint3_linear_1158_1067" x1="-171.492" y1="311.575" x2="75.3781" y2="64.7049" gradientUnits="userSpaceOnUse">
<stop stop-color="white"/>
<stop offset="1" stop-color="#D3D8DF"/>
</linearGradient>
<linearGradient id="paint4_linear_1158_1067" x1="-126.453" y1="371.974" x2="120.417" y2="125.104" gradientUnits="userSpaceOnUse">
<stop stop-color="white"/>
<stop offset="1" stop-color="#D3D8DF"/>
</linearGradient>
<clipPath id="clip0_1158_1067">
<rect width="100" height="100" rx="13.3333" fill="white"/>
</clipPath>
</defs>
</svg>
