<svg width="100" height="100" viewBox="0 0 100 100" fill="none" xmlns="http://www.w3.org/2000/svg">
<g clip-path="url(#clip0_1158_1036)">
<rect width="100" height="100" rx="13.3333" fill="#0A0B04"/>
<mask id="path-3-outside-1_1158_1036" maskUnits="userSpaceOnUse" x="9.64823" y="26.2769" width="51.6188" height="51.6188" fill="black">
<rect fill="white" x="9.64823" y="26.2769" width="51.6188" height="51.6188"/>
<path d="M40.3413 31.3812L19.3932 52.3292L39.3248 72.2608L34.8612 76.7244L10.466 52.3292L35.8776 26.9175L40.3413 31.3812ZM47.3239 44.1091L31.3257 60.1074L26.862 55.6438L42.8603 39.6455L47.3239 44.1091Z"/>
</mask>
<path d="M40.3413 31.3812L19.3932 52.3292L39.3248 72.2608L34.8612 76.7244L10.466 52.3292L35.8776 26.9175L40.3413 31.3812ZM47.3239 44.1091L31.3257 60.1074L26.862 55.6438L42.8603 39.6455L47.3239 44.1091Z" fill="url(#paint0_linear_1158_1036)"/>
<path d="M40.3413 31.3812L40.4886 31.5285L40.6359 31.3812L40.4886 31.2338L40.3413 31.3812ZM19.3932 52.3292L19.2459 52.1819L19.0986 52.3292L19.2459 52.4765L19.3932 52.3292ZM39.3248 72.2608L39.4721 72.4081L39.6194 72.2608L39.4721 72.1135L39.3248 72.2608ZM34.8612 76.7244L34.7139 76.8717L34.8612 77.019L35.0085 76.8717L34.8612 76.7244ZM10.466 52.3292L10.3187 52.1819L10.1714 52.3292L10.3187 52.4765L10.466 52.3292ZM35.8776 26.9175L36.025 26.7702L35.8777 26.6229L35.7303 26.7702L35.8776 26.9175ZM47.3239 44.1091L47.4713 44.2564L47.6186 44.1091L47.4713 43.9618L47.3239 44.1091ZM31.3257 60.1074L31.1783 60.2547L31.3257 60.402L31.473 60.2547L31.3257 60.1074ZM26.862 55.6438L26.7147 55.4964L26.5674 55.6438L26.7147 55.7911L26.862 55.6438ZM42.8603 39.6455L43.0076 39.4982L42.8603 39.3508L42.713 39.4982L42.8603 39.6455ZM40.1939 31.2338L19.2459 52.1819L19.5405 52.4765L40.4886 31.5285L40.1939 31.2338ZM19.2459 52.4765L39.1775 72.4081L39.4721 72.1135L19.5405 52.1819L19.2459 52.4765ZM39.1775 72.1135L34.7139 76.5771L35.0085 76.8717L39.4721 72.4081L39.1775 72.1135ZM35.0085 76.5771L10.6133 52.1819L10.3187 52.4765L34.7139 76.8717L35.0085 76.5771ZM10.6133 52.4765L36.025 27.0649L35.7303 26.7702L10.3187 52.1819L10.6133 52.4765ZM35.7303 27.0649L40.1939 31.5285L40.4886 31.2338L36.025 26.7702L35.7303 27.0649ZM47.1766 43.9618L31.1783 59.9601L31.473 60.2547L47.4713 44.2564L47.1766 43.9618ZM31.473 59.9601L27.0094 55.4964L26.7147 55.7911L31.1783 60.2547L31.473 59.9601ZM27.0094 55.7911L43.0076 39.7928L42.713 39.4982L26.7147 55.4964L27.0094 55.7911ZM42.713 39.7928L47.1766 44.2564L47.4713 43.9618L43.0076 39.4982L42.713 39.7928Z" fill="url(#paint1_radial_1158_1036)" mask="url(#path-3-outside-1_1158_1036)"/>
<mask id="path-5-outside-2_1158_1036" maskUnits="userSpaceOnUse" x="39.2622" y="26.2769" width="51.6188" height="51.6188" fill="black">
<rect fill="white" x="39.2622" y="26.2769" width="51.6188" height="51.6188"/>
<path d="M60.188 31.3812L81.136 52.3292L61.2044 72.2608L65.668 76.7244L90.0632 52.3292L64.6516 26.9175L60.188 31.3812ZM53.2053 44.1091L69.2036 60.1074L73.6672 55.6438L57.6689 39.6455L53.2053 44.1091Z"/>
</mask>
<path d="M60.188 31.3812L81.136 52.3292L61.2044 72.2608L65.668 76.7244L90.0632 52.3292L64.6516 26.9175L60.188 31.3812ZM53.2053 44.1091L69.2036 60.1074L73.6672 55.6438L57.6689 39.6455L53.2053 44.1091Z" fill="url(#paint2_linear_1158_1036)"/>
<path d="M60.188 31.3812L60.0407 31.5285L59.8933 31.3812L60.0407 31.2338L60.188 31.3812ZM81.136 52.3292L81.2833 52.1819L81.4306 52.3292L81.2833 52.4765L81.136 52.3292ZM61.2044 72.2608L61.0571 72.4081L60.9098 72.2608L61.0571 72.1135L61.2044 72.2608ZM65.668 76.7244L65.8154 76.8717L65.668 77.019L65.5207 76.8717L65.668 76.7244ZM90.0632 52.3292L90.2105 52.1819L90.3579 52.3292L90.2105 52.4765L90.0632 52.3292ZM64.6516 26.9175L64.5043 26.7702L64.6516 26.6229L64.7989 26.7702L64.6516 26.9175ZM53.2053 44.1091L53.058 44.2564L52.9107 44.1091L53.058 43.9618L53.2053 44.1091ZM69.2036 60.1074L69.3509 60.2547L69.2036 60.402L69.0563 60.2547L69.2036 60.1074ZM73.6672 55.6438L73.8145 55.4964L73.9618 55.6438L73.8145 55.7911L73.6672 55.6438ZM57.6689 39.6455L57.5216 39.4982L57.6689 39.3508L57.8162 39.4982L57.6689 39.6455ZM60.3353 31.2338L81.2833 52.1819L80.9887 52.4765L60.0407 31.5285L60.3353 31.2338ZM81.2833 52.4765L61.3517 72.4081L61.0571 72.1135L80.9887 52.1819L81.2833 52.4765ZM61.3517 72.1135L65.8154 76.5771L65.5207 76.8717L61.0571 72.4081L61.3517 72.1135ZM65.5207 76.5771L89.9159 52.1819L90.2105 52.4765L65.8154 76.8717L65.5207 76.5771ZM89.9159 52.4765L64.5043 27.0649L64.7989 26.7702L90.2105 52.1819L89.9159 52.4765ZM64.7989 27.0649L60.3353 31.5285L60.0407 31.2338L64.5043 26.7702L64.7989 27.0649ZM53.3526 43.9618L69.3509 59.9601L69.0563 60.2547L53.058 44.2564L53.3526 43.9618ZM69.0563 59.9601L73.5199 55.4964L73.8145 55.7911L69.3509 60.2547L69.0563 59.9601ZM73.5199 55.7911L57.5216 39.7928L57.8162 39.4982L73.8145 55.4964L73.5199 55.7911ZM57.8162 39.7928L53.3526 44.2564L53.058 43.9618L57.5216 39.4982L57.8162 39.7928Z" fill="url(#paint3_radial_1158_1036)" mask="url(#path-5-outside-2_1158_1036)"/>
<g opacity="0.2" filter="url(#filter0_f_1158_1036)">
<path d="M-281.761 324.546L-295.833 310.474L-48.9628 63.6045L123.263 -100.341L-34.8912 77.6761L-281.761 324.546Z" fill="url(#paint4_linear_1158_1036)" fill-opacity="0.4"/>
</g>
<g opacity="0.32" filter="url(#filter1_f_1158_1036)">
<path d="M-164.456 318.611L-178.528 304.539L68.3424 57.669L240.568 -106.277L82.414 71.7406L-164.456 318.611Z" fill="url(#paint5_linear_1158_1036)" fill-opacity="0.4"/>
</g>
<g opacity="0.32" filter="url(#filter2_f_1158_1036)">
<path d="M-119.418 379.01L-133.489 364.938L113.381 118.068L285.607 -45.8775L127.452 132.14L-119.418 379.01Z" fill="url(#paint6_linear_1158_1036)" fill-opacity="0.4"/>
</g>
</g>
<rect x="0.5" y="0.5" width="99" height="99" rx="12.8333" stroke="white" stroke-opacity="0.6"/>
<defs>
<filter id="filter0_f_1158_1036" x="-337.728" y="-142.236" width="502.886" height="508.678" filterUnits="userSpaceOnUse" color-interpolation-filters="sRGB">
<feFlood flood-opacity="0" result="BackgroundImageFix"/>
<feBlend mode="normal" in="SourceGraphic" in2="BackgroundImageFix" result="shape"/>
<feGaussianBlur stdDeviation="20.9476" result="effect1_foregroundBlur_1158_1036"/>
</filter>
<filter id="filter1_f_1158_1036" x="-220.423" y="-148.172" width="502.886" height="508.678" filterUnits="userSpaceOnUse" color-interpolation-filters="sRGB">
<feFlood flood-opacity="0" result="BackgroundImageFix"/>
<feBlend mode="normal" in="SourceGraphic" in2="BackgroundImageFix" result="shape"/>
<feGaussianBlur stdDeviation="20.9476" result="effect1_foregroundBlur_1158_1036"/>
</filter>
<filter id="filter2_f_1158_1036" x="-175.384" y="-87.7727" width="502.886" height="508.678" filterUnits="userSpaceOnUse" color-interpolation-filters="sRGB">
<feFlood flood-opacity="0" result="BackgroundImageFix"/>
<feBlend mode="normal" in="SourceGraphic" in2="BackgroundImageFix" result="shape"/>
<feGaussianBlur stdDeviation="20.9476" result="effect1_foregroundBlur_1158_1036"/>
</filter>
<linearGradient id="paint0_linear_1158_1036" x1="1.16295" y1="19.9129" x2="60.5599" y2="79.3099" gradientUnits="userSpaceOnUse">
<stop stop-color="#C5C7BC"/>
<stop offset="1" stop-color="#60615C"/>
</linearGradient>
<radialGradient id="paint1_radial_1158_1036" cx="0" cy="0" r="1" gradientUnits="userSpaceOnUse" gradientTransform="translate(30.4699 49.654) rotate(-135.138) scale(110.688 177.149)">
<stop offset="0.25" stop-color="#C5C7BC"/>
<stop offset="1" stop-color="#F2E8EA"/>
</radialGradient>
<linearGradient id="paint2_linear_1158_1036" x1="99.3663" y1="19.9129" x2="39.9693" y2="79.3099" gradientUnits="userSpaceOnUse">
<stop stop-color="#C5C7BC"/>
<stop offset="1" stop-color="#60615C"/>
</linearGradient>
<radialGradient id="paint3_radial_1158_1036" cx="0" cy="0" r="1" gradientUnits="userSpaceOnUse" gradientTransform="translate(70.0594 49.654) rotate(-44.8621) scale(110.688 177.149)">
<stop offset="0.25" stop-color="#C5C7BC"/>
<stop offset="1" stop-color="#F2E8EA"/>
</radialGradient>
<linearGradient id="paint4_linear_1158_1036" x1="-288.797" y1="317.51" x2="-41.927" y2="70.6403" gradientUnits="userSpaceOnUse">
<stop stop-color="white"/>
<stop offset="1" stop-color="#D3D8DF"/>
</linearGradient>
<linearGradient id="paint5_linear_1158_1036" x1="-171.492" y1="311.575" x2="75.3781" y2="64.7049" gradientUnits="userSpaceOnUse">
<stop stop-color="white"/>
<stop offset="1" stop-color="#D3D8DF"/>
</linearGradient>
<linearGradient id="paint6_linear_1158_1036" x1="-126.453" y1="371.974" x2="120.417" y2="125.104" gradientUnits="userSpaceOnUse">
<stop stop-color="white"/>
<stop offset="1" stop-color="#D3D8DF"/>
</linearGradient>
<clipPath id="clip0_1158_1036">
<rect width="100" height="100" rx="13.3333" fill="white"/>
</clipPath>
</defs>
</svg>
