<svg width="390" height="1055" viewBox="0 0 390 1055" fill="none" xmlns="http://www.w3.org/2000/svg">
<circle cx="20" cy="1" r="1" fill="#444738"/>
<circle cx="47" cy="1" r="1" fill="#444738"/>
<circle cx="74" cy="1" r="1" fill="#444738"/>
<circle cx="101" cy="1" r="1" fill="#444738"/>
<circle cx="128" cy="1" r="1" fill="#444738"/>
<circle cx="155" cy="1" r="1" fill="#444738"/>
<circle cx="182" cy="1" r="1" fill="#444738"/>
<circle cx="209" cy="1" r="1" fill="#444738"/>
<circle cx="236" cy="1" r="1" fill="#444738"/>
<circle cx="263" cy="1" r="1" fill="#444738"/>
<circle cx="290" cy="1" r="1" fill="#444738"/>
<circle cx="317" cy="1" r="1" fill="#444738"/>
<circle cx="344" cy="1" r="1" fill="#444738"/>
<circle cx="371" cy="1" r="1" fill="#444738"/>
<circle cx="20" cy="28" r="1" fill="#444738"/>
<circle cx="47" cy="28" r="1" fill="#444738"/>
<circle cx="74" cy="28" r="1" fill="#444738"/>
<circle cx="101" cy="28" r="1" fill="#444738"/>
<circle cx="128" cy="28" r="1" fill="#444738"/>
<circle cx="155" cy="28" r="1" fill="#444738"/>
<circle cx="182" cy="28" r="1" fill="#444738"/>
<circle cx="209" cy="28" r="1" fill="#444738"/>
<circle cx="236" cy="28" r="1" fill="#444738"/>
<circle cx="263" cy="28" r="1" fill="#444738"/>
<circle cx="290" cy="28" r="1" fill="#444738"/>
<circle cx="317" cy="28" r="1" fill="#444738"/>
<circle cx="344" cy="28" r="1" fill="#444738"/>
<circle cx="371" cy="28" r="1" fill="#444738"/>
<circle cx="20" cy="55" r="1" fill="#444738"/>
<circle cx="47" cy="55" r="1" fill="#444738"/>
<circle cx="74" cy="55" r="1" fill="#444738"/>
<circle cx="101" cy="55" r="1" fill="#444738"/>
<circle cx="128" cy="55" r="1" fill="#444738"/>
<circle cx="155" cy="55" r="1" fill="#444738"/>
<circle cx="182" cy="55" r="1" fill="#444738"/>
<circle cx="209" cy="55" r="1" fill="#444738"/>
<circle cx="236" cy="55" r="1" fill="#444738"/>
<circle cx="263" cy="55" r="1" fill="#444738"/>
<circle cx="290" cy="55" r="1" fill="#444738"/>
<circle cx="317" cy="55" r="1" fill="#444738"/>
<circle cx="344" cy="55" r="1" fill="#444738"/>
<circle cx="371" cy="55" r="1" fill="#444738"/>
<circle cx="20" cy="82" r="1" fill="#444738"/>
<circle cx="47" cy="82" r="1" fill="#444738"/>
<circle cx="74" cy="82" r="1" fill="#444738"/>
<circle cx="101" cy="82" r="1" fill="#444738"/>
<circle cx="128" cy="82" r="1" fill="#444738"/>
<circle cx="155" cy="82" r="1" fill="#444738"/>
<circle cx="182" cy="82" r="1" fill="#444738"/>
<circle cx="209" cy="82" r="1" fill="#444738"/>
<circle cx="236" cy="82" r="1" fill="#444738"/>
<circle cx="263" cy="82" r="1" fill="#444738"/>
<circle cx="290" cy="82" r="1" fill="#444738"/>
<circle cx="317" cy="82" r="1" fill="#444738"/>
<circle cx="344" cy="82" r="1" fill="#444738"/>
<circle cx="371" cy="82" r="1" fill="#444738"/>
<circle cx="20" cy="109" r="1" fill="#444738"/>
<circle cx="47" cy="109" r="1" fill="#444738"/>
<circle cx="74" cy="109" r="1" fill="#444738"/>
<circle cx="101" cy="109" r="1" fill="#444738"/>
<circle cx="128" cy="109" r="1" fill="#444738"/>
<circle cx="155" cy="109" r="1" fill="#444738"/>
<circle cx="182" cy="109" r="1" fill="#444738"/>
<circle cx="209" cy="109" r="1" fill="#444738"/>
<circle cx="236" cy="109" r="1" fill="#444738"/>
<circle cx="263" cy="109" r="1" fill="#444738"/>
<circle cx="290" cy="109" r="1" fill="#444738"/>
<circle cx="317" cy="109" r="1" fill="#444738"/>
<circle cx="344" cy="109" r="1" fill="#444738"/>
<circle cx="371" cy="109" r="1" fill="#444738"/>
<circle cx="20" cy="136" r="1" fill="#444738"/>
<circle cx="47" cy="136" r="1" fill="#444738"/>
<circle cx="74" cy="136" r="1" fill="#444738"/>
<circle cx="101" cy="136" r="1" fill="#444738"/>
<circle cx="128" cy="136" r="1" fill="#444738"/>
<circle cx="155" cy="136" r="1" fill="#444738"/>
<circle cx="182" cy="136" r="1" fill="#444738"/>
<circle cx="209" cy="136" r="1" fill="#444738"/>
<circle cx="236" cy="136" r="1" fill="#444738"/>
<circle cx="263" cy="136" r="1" fill="#444738"/>
<circle cx="290" cy="136" r="1" fill="#444738"/>
<circle cx="317" cy="136" r="1" fill="#444738"/>
<circle cx="344" cy="136" r="1" fill="#444738"/>
<circle cx="371" cy="136" r="1" fill="#444738"/>
<circle cx="20" cy="163" r="1" fill="#444738"/>
<circle cx="47" cy="163" r="1" fill="#444738"/>
<circle cx="74" cy="163" r="1" fill="#444738"/>
<circle cx="101" cy="163" r="1" fill="#444738"/>
<circle cx="128" cy="163" r="1" fill="#444738"/>
<circle cx="155" cy="163" r="1" fill="#444738"/>
<circle cx="182" cy="163" r="1" fill="#444738"/>
<circle cx="209" cy="163" r="1" fill="#444738"/>
<circle cx="236" cy="163" r="1" fill="#444738"/>
<circle cx="263" cy="163" r="1" fill="#444738"/>
<circle cx="290" cy="163" r="1" fill="#444738"/>
<circle cx="317" cy="163" r="1" fill="#444738"/>
<circle cx="344" cy="163" r="1" fill="#444738"/>
<circle cx="371" cy="163" r="1" fill="#444738"/>
<circle cx="20" cy="190" r="1" fill="#444738"/>
<circle cx="47" cy="190" r="1" fill="#444738"/>
<circle cx="74" cy="190" r="1" fill="#444738"/>
<circle cx="101" cy="190" r="1" fill="#444738"/>
<circle cx="128" cy="190" r="1" fill="#444738"/>
<circle cx="155" cy="190" r="1" fill="#444738"/>
<circle cx="182" cy="190" r="1" fill="#444738"/>
<circle cx="209" cy="190" r="1" fill="#444738"/>
<circle cx="236" cy="190" r="1" fill="#444738"/>
<circle cx="263" cy="190" r="1" fill="#444738"/>
<circle cx="290" cy="190" r="1" fill="#444738"/>
<circle cx="317" cy="190" r="1" fill="#444738"/>
<circle cx="344" cy="190" r="1" fill="#444738"/>
<circle cx="371" cy="190" r="1" fill="#444738"/>
<circle cx="20" cy="217" r="1" fill="#444738"/>
<circle cx="47" cy="217" r="1" fill="#444738"/>
<circle cx="74" cy="217" r="1" fill="#444738"/>
<circle cx="101" cy="217" r="1" fill="#444738"/>
<circle cx="128" cy="217" r="1" fill="#444738"/>
<circle cx="155" cy="217" r="1" fill="#444738"/>
<circle cx="182" cy="217" r="1" fill="#444738"/>
<circle cx="209" cy="217" r="1" fill="#444738"/>
<circle cx="236" cy="217" r="1" fill="#444738"/>
<circle cx="263" cy="217" r="1" fill="#444738"/>
<circle cx="290" cy="217" r="1" fill="#444738"/>
<circle cx="317" cy="217" r="1" fill="#444738"/>
<circle cx="344" cy="217" r="1" fill="#444738"/>
<circle cx="371" cy="217" r="1" fill="#444738"/>
<circle cx="20" cy="244" r="1" fill="#444738"/>
<circle cx="47" cy="244" r="1" fill="#444738"/>
<circle cx="74" cy="244" r="1" fill="#444738"/>
<circle cx="101" cy="244" r="1" fill="#444738"/>
<circle cx="128" cy="244" r="1" fill="#444738"/>
<circle cx="155" cy="244" r="1" fill="#444738"/>
<circle cx="182" cy="244" r="1" fill="#444738"/>
<circle cx="209" cy="244" r="1" fill="#444738"/>
<circle cx="236" cy="244" r="1" fill="#444738"/>
<circle cx="263" cy="244" r="1" fill="#444738"/>
<circle cx="290" cy="244" r="1" fill="#444738"/>
<circle cx="317" cy="244" r="1" fill="#444738"/>
<circle cx="344" cy="244" r="1" fill="#444738"/>
<circle cx="371" cy="244" r="1" fill="#444738"/>
<circle cx="20" cy="271" r="1" fill="#444738"/>
<circle cx="47" cy="271" r="1" fill="#444738"/>
<circle cx="74" cy="271" r="1" fill="#444738"/>
<circle cx="101" cy="271" r="1" fill="#444738"/>
<circle cx="128" cy="271" r="1" fill="#444738"/>
<circle cx="155" cy="271" r="1" fill="#444738"/>
<circle cx="182" cy="271" r="1" fill="#444738"/>
<circle cx="209" cy="271" r="1" fill="#444738"/>
<circle cx="236" cy="271" r="1" fill="#444738"/>
<circle cx="263" cy="271" r="1" fill="#444738"/>
<circle cx="290" cy="271" r="1" fill="#444738"/>
<circle cx="317" cy="271" r="1" fill="#444738"/>
<circle cx="344" cy="271" r="1" fill="#444738"/>
<circle cx="371" cy="271" r="1" fill="#444738"/>
<circle cx="20" cy="298" r="1" fill="#444738"/>
<circle cx="47" cy="298" r="1" fill="#444738"/>
<circle cx="74" cy="298" r="1" fill="#444738"/>
<circle cx="101" cy="298" r="1" fill="#444738"/>
<circle cx="128" cy="298" r="1" fill="#444738"/>
<circle cx="155" cy="298" r="1" fill="#444738"/>
<circle cx="182" cy="298" r="1" fill="#444738"/>
<circle cx="209" cy="298" r="1" fill="#444738"/>
<circle cx="236" cy="298" r="1" fill="#444738"/>
<circle cx="263" cy="298" r="1" fill="#444738"/>
<circle cx="290" cy="298" r="1" fill="#444738"/>
<circle cx="317" cy="298" r="1" fill="#444738"/>
<circle cx="344" cy="298" r="1" fill="#444738"/>
<circle cx="371" cy="298" r="1" fill="#444738"/>
<circle cx="20" cy="325" r="1" fill="#444738"/>
<circle cx="47" cy="325" r="1" fill="#444738"/>
<circle cx="74" cy="325" r="1" fill="#444738"/>
<circle cx="101" cy="325" r="1" fill="#444738"/>
<circle cx="128" cy="325" r="1" fill="#444738"/>
<circle cx="155" cy="325" r="1" fill="#444738"/>
<circle cx="182" cy="325" r="1" fill="#444738"/>
<circle cx="209" cy="325" r="1" fill="#444738"/>
<circle cx="236" cy="325" r="1" fill="#444738"/>
<circle cx="263" cy="325" r="1" fill="#444738"/>
<circle cx="290" cy="325" r="1" fill="#444738"/>
<circle cx="317" cy="325" r="1" fill="#444738"/>
<circle cx="344" cy="325" r="1" fill="#444738"/>
<circle cx="371" cy="325" r="1" fill="#444738"/>
<circle cx="20" cy="352" r="1" fill="#444738"/>
<circle cx="47" cy="352" r="1" fill="#444738"/>
<circle cx="74" cy="352" r="1" fill="#444738"/>
<circle cx="101" cy="352" r="1" fill="#444738"/>
<circle cx="128" cy="352" r="1" fill="#444738"/>
<circle cx="155" cy="352" r="1" fill="#444738"/>
<circle cx="182" cy="352" r="1" fill="#444738"/>
<circle cx="209" cy="352" r="1" fill="#444738"/>
<circle cx="236" cy="352" r="1" fill="#444738"/>
<circle cx="263" cy="352" r="1" fill="#444738"/>
<circle cx="290" cy="352" r="1" fill="#444738"/>
<circle cx="317" cy="352" r="1" fill="#444738"/>
<circle cx="344" cy="352" r="1" fill="#444738"/>
<circle cx="371" cy="352" r="1" fill="#444738"/>
<circle cx="20" cy="379" r="1" fill="#444738"/>
<circle cx="47" cy="379" r="1" fill="#444738"/>
<circle cx="74" cy="379" r="1" fill="#444738"/>
<circle cx="101" cy="379" r="1" fill="#444738"/>
<circle cx="128" cy="379" r="1" fill="#444738"/>
<circle cx="155" cy="379" r="1" fill="#444738"/>
<circle cx="182" cy="379" r="1" fill="#444738"/>
<circle cx="209" cy="379" r="1" fill="#444738"/>
<circle cx="236" cy="379" r="1" fill="#444738"/>
<circle cx="263" cy="379" r="1" fill="#444738"/>
<circle cx="290" cy="379" r="1" fill="#444738"/>
<circle cx="317" cy="379" r="1" fill="#444738"/>
<circle cx="344" cy="379" r="1" fill="#444738"/>
<circle cx="371" cy="379" r="1" fill="#444738"/>
<circle cx="20" cy="406" r="1" fill="#444738"/>
<circle cx="47" cy="406" r="1" fill="#444738"/>
<circle cx="74" cy="406" r="1" fill="#444738"/>
<circle cx="101" cy="406" r="1" fill="#444738"/>
<circle cx="128" cy="406" r="1" fill="#444738"/>
<circle cx="155" cy="406" r="1" fill="#444738"/>
<circle cx="182" cy="406" r="1" fill="#444738"/>
<circle cx="209" cy="406" r="1" fill="#444738"/>
<circle cx="236" cy="406" r="1" fill="#444738"/>
<circle cx="263" cy="406" r="1" fill="#444738"/>
<circle cx="290" cy="406" r="1" fill="#444738"/>
<circle cx="317" cy="406" r="1" fill="#444738"/>
<circle cx="344" cy="406" r="1" fill="#444738"/>
<circle cx="371" cy="406" r="1" fill="#444738"/>
<circle cx="20" cy="433" r="1" fill="#444738"/>
<circle cx="47" cy="433" r="1" fill="#444738"/>
<circle cx="74" cy="433" r="1" fill="#444738"/>
<circle cx="101" cy="433" r="1" fill="#444738"/>
<circle cx="128" cy="433" r="1" fill="#444738"/>
<circle cx="155" cy="433" r="1" fill="#444738"/>
<circle cx="182" cy="433" r="1" fill="#444738"/>
<circle cx="209" cy="433" r="1" fill="#444738"/>
<circle cx="236" cy="433" r="1" fill="#444738"/>
<circle cx="263" cy="433" r="1" fill="#444738"/>
<circle cx="290" cy="433" r="1" fill="#444738"/>
<circle cx="317" cy="433" r="1" fill="#444738"/>
<circle cx="344" cy="433" r="1" fill="#444738"/>
<circle cx="371" cy="433" r="1" fill="#444738"/>
<circle cx="20" cy="460" r="1" fill="#444738"/>
<circle cx="47" cy="460" r="1" fill="#444738"/>
<circle cx="74" cy="460" r="1" fill="#444738"/>
<circle cx="101" cy="460" r="1" fill="#444738"/>
<circle cx="128" cy="460" r="1" fill="#444738"/>
<circle cx="155" cy="460" r="1" fill="#444738"/>
<circle cx="182" cy="460" r="1" fill="#444738"/>
<circle cx="209" cy="460" r="1" fill="#444738"/>
<circle cx="236" cy="460" r="1" fill="#444738"/>
<circle cx="263" cy="460" r="1" fill="#444738"/>
<circle cx="290" cy="460" r="1" fill="#444738"/>
<circle cx="317" cy="460" r="1" fill="#444738"/>
<circle cx="344" cy="460" r="1" fill="#444738"/>
<circle cx="371" cy="460" r="1" fill="#444738"/>
<circle cx="20" cy="487" r="1" fill="#444738"/>
<circle cx="47" cy="487" r="1" fill="#444738"/>
<circle cx="74" cy="487" r="1" fill="#444738"/>
<circle cx="101" cy="487" r="1" fill="#444738"/>
<circle cx="128" cy="487" r="1" fill="#444738"/>
<circle cx="155" cy="487" r="1" fill="#444738"/>
<circle cx="182" cy="487" r="1" fill="#444738"/>
<circle cx="209" cy="487" r="1" fill="#444738"/>
<circle cx="236" cy="487" r="1" fill="#444738"/>
<circle cx="263" cy="487" r="1" fill="#444738"/>
<circle cx="290" cy="487" r="1" fill="#444738"/>
<circle cx="317" cy="487" r="1" fill="#444738"/>
<circle cx="344" cy="487" r="1" fill="#444738"/>
<circle cx="371" cy="487" r="1" fill="#444738"/>
<circle cx="20" cy="514" r="1" fill="#444738"/>
<circle cx="47" cy="514" r="1" fill="#444738"/>
<circle cx="74" cy="514" r="1" fill="#444738"/>
<circle cx="101" cy="514" r="1" fill="#444738"/>
<circle cx="128" cy="514" r="1" fill="#444738"/>
<circle cx="155" cy="514" r="1" fill="#444738"/>
<circle cx="182" cy="514" r="1" fill="#444738"/>
<circle cx="209" cy="514" r="1" fill="#444738"/>
<circle cx="236" cy="514" r="1" fill="#444738"/>
<circle cx="263" cy="514" r="1" fill="#444738"/>
<circle cx="290" cy="514" r="1" fill="#444738"/>
<circle cx="317" cy="514" r="1" fill="#444738"/>
<circle cx="344" cy="514" r="1" fill="#444738"/>
<circle cx="371" cy="514" r="1" fill="#444738"/>
<circle cx="20" cy="541" r="1" fill="#444738"/>
<circle cx="47" cy="541" r="1" fill="#444738"/>
<circle cx="74" cy="541" r="1" fill="#444738"/>
<circle cx="101" cy="541" r="1" fill="#444738"/>
<circle cx="128" cy="541" r="1" fill="#444738"/>
<circle cx="155" cy="541" r="1" fill="#444738"/>
<circle cx="182" cy="541" r="1" fill="#444738"/>
<circle cx="209" cy="541" r="1" fill="#444738"/>
<circle cx="236" cy="541" r="1" fill="#444738"/>
<circle cx="263" cy="541" r="1" fill="#444738"/>
<circle cx="290" cy="541" r="1" fill="#444738"/>
<circle cx="317" cy="541" r="1" fill="#444738"/>
<circle cx="344" cy="541" r="1" fill="#444738"/>
<circle cx="371" cy="541" r="1" fill="#444738"/>
<circle cx="20" cy="568" r="1" fill="#444738"/>
<circle cx="47" cy="568" r="1" fill="#444738"/>
<circle cx="74" cy="568" r="1" fill="#444738"/>
<circle cx="101" cy="568" r="1" fill="#444738"/>
<circle cx="128" cy="568" r="1" fill="#444738"/>
<circle cx="155" cy="568" r="1" fill="#444738"/>
<circle cx="182" cy="568" r="1" fill="#444738"/>
<circle cx="209" cy="568" r="1" fill="#444738"/>
<circle cx="236" cy="568" r="1" fill="#444738"/>
<circle cx="263" cy="568" r="1" fill="#444738"/>
<circle cx="290" cy="568" r="1" fill="#444738"/>
<circle cx="317" cy="568" r="1" fill="#444738"/>
<circle cx="344" cy="568" r="1" fill="#444738"/>
<circle cx="371" cy="568" r="1" fill="#444738"/>
<circle cx="20" cy="595" r="1" fill="#444738"/>
<circle cx="47" cy="595" r="1" fill="#444738"/>
<circle cx="74" cy="595" r="1" fill="#444738"/>
<circle cx="101" cy="595" r="1" fill="#444738"/>
<circle cx="128" cy="595" r="1" fill="#444738"/>
<circle cx="155" cy="595" r="1" fill="#444738"/>
<circle cx="182" cy="595" r="1" fill="#444738"/>
<circle cx="209" cy="595" r="1" fill="#444738"/>
<circle cx="236" cy="595" r="1" fill="#444738"/>
<circle cx="263" cy="595" r="1" fill="#444738"/>
<circle cx="290" cy="595" r="1" fill="#444738"/>
<circle cx="317" cy="595" r="1" fill="#444738"/>
<circle cx="344" cy="595" r="1" fill="#444738"/>
<circle cx="371" cy="595" r="1" fill="#444738"/>
<circle cx="20" cy="622" r="1" fill="#444738"/>
<circle cx="47" cy="622" r="1" fill="#444738"/>
<circle cx="74" cy="622" r="1" fill="#444738"/>
<circle cx="101" cy="622" r="1" fill="#444738"/>
<circle cx="128" cy="622" r="1" fill="#444738"/>
<circle cx="155" cy="622" r="1" fill="#444738"/>
<circle cx="182" cy="622" r="1" fill="#444738"/>
<circle cx="209" cy="622" r="1" fill="#444738"/>
<circle cx="236" cy="622" r="1" fill="#444738"/>
<circle cx="263" cy="622" r="1" fill="#444738"/>
<circle cx="290" cy="622" r="1" fill="#444738"/>
<circle cx="317" cy="622" r="1" fill="#444738"/>
<circle cx="344" cy="622" r="1" fill="#444738"/>
<circle cx="371" cy="622" r="1" fill="#444738"/>
<circle cx="20" cy="649" r="1" fill="#444738"/>
<circle cx="47" cy="649" r="1" fill="#444738"/>
<circle cx="74" cy="649" r="1" fill="#444738"/>
<circle cx="101" cy="649" r="1" fill="#444738"/>
<circle cx="128" cy="649" r="1" fill="#444738"/>
<circle cx="155" cy="649" r="1" fill="#444738"/>
<circle cx="182" cy="649" r="1" fill="#444738"/>
<circle cx="209" cy="649" r="1" fill="#444738"/>
<circle cx="236" cy="649" r="1" fill="#444738"/>
<circle cx="263" cy="649" r="1" fill="#444738"/>
<circle cx="290" cy="649" r="1" fill="#444738"/>
<circle cx="317" cy="649" r="1" fill="#444738"/>
<circle cx="344" cy="649" r="1" fill="#444738"/>
<circle cx="371" cy="649" r="1" fill="#444738"/>
<circle cx="20" cy="676" r="1" fill="#444738"/>
<circle cx="47" cy="676" r="1" fill="#444738"/>
<circle cx="74" cy="676" r="1" fill="#444738"/>
<circle cx="101" cy="676" r="1" fill="#444738"/>
<circle cx="128" cy="676" r="1" fill="#444738"/>
<circle cx="155" cy="676" r="1" fill="#444738"/>
<circle cx="182" cy="676" r="1" fill="#444738"/>
<circle cx="209" cy="676" r="1" fill="#444738"/>
<circle cx="236" cy="676" r="1" fill="#444738"/>
<circle cx="263" cy="676" r="1" fill="#444738"/>
<circle cx="290" cy="676" r="1" fill="#444738"/>
<circle cx="317" cy="676" r="1" fill="#444738"/>
<circle cx="344" cy="676" r="1" fill="#444738"/>
<circle cx="371" cy="676" r="1" fill="#444738"/>
<circle cx="20" cy="703" r="1" fill="#444738"/>
<circle cx="47" cy="703" r="1" fill="#444738"/>
<circle cx="74" cy="703" r="1" fill="#444738"/>
<circle cx="101" cy="703" r="1" fill="#444738"/>
<circle cx="128" cy="703" r="1" fill="#444738"/>
<circle cx="155" cy="703" r="1" fill="#444738"/>
<circle cx="182" cy="703" r="1" fill="#444738"/>
<circle cx="209" cy="703" r="1" fill="#444738"/>
<circle cx="236" cy="703" r="1" fill="#444738"/>
<circle cx="263" cy="703" r="1" fill="#444738"/>
<circle cx="290" cy="703" r="1" fill="#444738"/>
<circle cx="317" cy="703" r="1" fill="#444738"/>
<circle cx="344" cy="703" r="1" fill="#444738"/>
<circle cx="371" cy="703" r="1" fill="#444738"/>
<circle cx="20" cy="730" r="1" fill="#444738"/>
<circle cx="47" cy="730" r="1" fill="#444738"/>
<circle cx="74" cy="730" r="1" fill="#444738"/>
<circle cx="101" cy="730" r="1" fill="#444738"/>
<circle cx="128" cy="730" r="1" fill="#444738"/>
<circle cx="155" cy="730" r="1" fill="#444738"/>
<circle cx="182" cy="730" r="1" fill="#444738"/>
<circle cx="209" cy="730" r="1" fill="#444738"/>
<circle cx="236" cy="730" r="1" fill="#444738"/>
<circle cx="263" cy="730" r="1" fill="#444738"/>
<circle cx="290" cy="730" r="1" fill="#444738"/>
<circle cx="317" cy="730" r="1" fill="#444738"/>
<circle cx="344" cy="730" r="1" fill="#444738"/>
<circle cx="371" cy="730" r="1" fill="#444738"/>
<circle cx="20" cy="757" r="1" fill="#444738"/>
<circle cx="47" cy="757" r="1" fill="#444738"/>
<circle cx="74" cy="757" r="1" fill="#444738"/>
<circle cx="101" cy="757" r="1" fill="#444738"/>
<circle cx="128" cy="757" r="1" fill="#444738"/>
<circle cx="155" cy="757" r="1" fill="#444738"/>
<circle cx="182" cy="757" r="1" fill="#444738"/>
<circle cx="209" cy="757" r="1" fill="#444738"/>
<circle cx="236" cy="757" r="1" fill="#444738"/>
<circle cx="263" cy="757" r="1" fill="#444738"/>
<circle cx="290" cy="757" r="1" fill="#444738"/>
<circle cx="317" cy="757" r="1" fill="#444738"/>
<circle cx="344" cy="757" r="1" fill="#444738"/>
<circle cx="371" cy="757" r="1" fill="#444738"/>
<circle cx="20" cy="784" r="1" fill="#444738"/>
<circle cx="47" cy="784" r="1" fill="#444738"/>
<circle cx="74" cy="784" r="1" fill="#444738"/>
<circle cx="101" cy="784" r="1" fill="#444738"/>
<circle cx="128" cy="784" r="1" fill="#444738"/>
<circle cx="155" cy="784" r="1" fill="#444738"/>
<circle cx="182" cy="784" r="1" fill="#444738"/>
<circle cx="209" cy="784" r="1" fill="#444738"/>
<circle cx="236" cy="784" r="1" fill="#444738"/>
<circle cx="263" cy="784" r="1" fill="#444738"/>
<circle cx="290" cy="784" r="1" fill="#444738"/>
<circle cx="317" cy="784" r="1" fill="#444738"/>
<circle cx="344" cy="784" r="1" fill="#444738"/>
<circle cx="371" cy="784" r="1" fill="#444738"/>
<circle cx="20" cy="811" r="1" fill="#444738"/>
<circle cx="47" cy="811" r="1" fill="#444738"/>
<circle cx="74" cy="811" r="1" fill="#444738"/>
<circle cx="101" cy="811" r="1" fill="#444738"/>
<circle cx="128" cy="811" r="1" fill="#444738"/>
<circle cx="155" cy="811" r="1" fill="#444738"/>
<circle cx="182" cy="811" r="1" fill="#444738"/>
<circle cx="209" cy="811" r="1" fill="#444738"/>
<circle cx="236" cy="811" r="1" fill="#444738"/>
<circle cx="263" cy="811" r="1" fill="#444738"/>
<circle cx="290" cy="811" r="1" fill="#444738"/>
<circle cx="317" cy="811" r="1" fill="#444738"/>
<circle cx="344" cy="811" r="1" fill="#444738"/>
<circle cx="371" cy="811" r="1" fill="#444738"/>
<circle cx="20" cy="838" r="1" fill="#444738"/>
<circle cx="47" cy="838" r="1" fill="#444738"/>
<circle cx="74" cy="838" r="1" fill="#444738"/>
<circle cx="101" cy="838" r="1" fill="#444738"/>
<circle cx="128" cy="838" r="1" fill="#444738"/>
<circle cx="155" cy="838" r="1" fill="#444738"/>
<circle cx="182" cy="838" r="1" fill="#444738"/>
<circle cx="209" cy="838" r="1" fill="#444738"/>
<circle cx="236" cy="838" r="1" fill="#444738"/>
<circle cx="263" cy="838" r="1" fill="#444738"/>
<circle cx="290" cy="838" r="1" fill="#444738"/>
<circle cx="317" cy="838" r="1" fill="#444738"/>
<circle cx="344" cy="838" r="1" fill="#444738"/>
<circle cx="371" cy="838" r="1" fill="#444738"/>
<circle cx="20" cy="865" r="1" fill="#444738"/>
<circle cx="47" cy="865" r="1" fill="#444738"/>
<circle cx="74" cy="865" r="1" fill="#444738"/>
<circle cx="101" cy="865" r="1" fill="#444738"/>
<circle cx="128" cy="865" r="1" fill="#444738"/>
<circle cx="155" cy="865" r="1" fill="#444738"/>
<circle cx="182" cy="865" r="1" fill="#444738"/>
<circle cx="209" cy="865" r="1" fill="#444738"/>
<circle cx="236" cy="865" r="1" fill="#444738"/>
<circle cx="263" cy="865" r="1" fill="#444738"/>
<circle cx="290" cy="865" r="1" fill="#444738"/>
<circle cx="317" cy="865" r="1" fill="#444738"/>
<circle cx="344" cy="865" r="1" fill="#444738"/>
<circle cx="371" cy="865" r="1" fill="#444738"/>
<circle cx="20" cy="892" r="1" fill="#444738"/>
<circle cx="47" cy="892" r="1" fill="#444738"/>
<circle cx="74" cy="892" r="1" fill="#444738"/>
<circle cx="101" cy="892" r="1" fill="#444738"/>
<circle cx="128" cy="892" r="1" fill="#444738"/>
<circle cx="155" cy="892" r="1" fill="#444738"/>
<circle cx="182" cy="892" r="1" fill="#444738"/>
<circle cx="209" cy="892" r="1" fill="#444738"/>
<circle cx="236" cy="892" r="1" fill="#444738"/>
<circle cx="263" cy="892" r="1" fill="#444738"/>
<circle cx="290" cy="892" r="1" fill="#444738"/>
<circle cx="317" cy="892" r="1" fill="#444738"/>
<circle cx="344" cy="892" r="1" fill="#444738"/>
<circle cx="371" cy="892" r="1" fill="#444738"/>
<circle cx="20" cy="919" r="1" fill="#444738"/>
<circle cx="47" cy="919" r="1" fill="#444738"/>
<circle cx="74" cy="919" r="1" fill="#444738"/>
<circle cx="101" cy="919" r="1" fill="#444738"/>
<circle cx="128" cy="919" r="1" fill="#444738"/>
<circle cx="155" cy="919" r="1" fill="#444738"/>
<circle cx="182" cy="919" r="1" fill="#444738"/>
<circle cx="209" cy="919" r="1" fill="#444738"/>
<circle cx="236" cy="919" r="1" fill="#444738"/>
<circle cx="263" cy="919" r="1" fill="#444738"/>
<circle cx="290" cy="919" r="1" fill="#444738"/>
<circle cx="317" cy="919" r="1" fill="#444738"/>
<circle cx="344" cy="919" r="1" fill="#444738"/>
<circle cx="371" cy="919" r="1" fill="#444738"/>
<circle cx="20" cy="946" r="1" fill="#444738"/>
<circle cx="47" cy="946" r="1" fill="#444738"/>
<circle cx="74" cy="946" r="1" fill="#444738"/>
<circle cx="101" cy="946" r="1" fill="#444738"/>
<circle cx="128" cy="946" r="1" fill="#444738"/>
<circle cx="155" cy="946" r="1" fill="#444738"/>
<circle cx="182" cy="946" r="1" fill="#444738"/>
<circle cx="209" cy="946" r="1" fill="#444738"/>
<circle cx="236" cy="946" r="1" fill="#444738"/>
<circle cx="263" cy="946" r="1" fill="#444738"/>
<circle cx="290" cy="946" r="1" fill="#444738"/>
<circle cx="317" cy="946" r="1" fill="#444738"/>
<circle cx="344" cy="946" r="1" fill="#444738"/>
<circle cx="371" cy="946" r="1" fill="#444738"/>
</svg>
