<svg width="139" height="112" viewBox="0 0 139 112" fill="none" xmlns="http://www.w3.org/2000/svg">
<path d="M6 1H133.5C136.261 1 138.5 3.23858 138.5 6V106C138.5 108.761 136.261 111 133.5 111H6C3.23858 111 1 108.761 1 106V6C1 3.23858 3.23858 1 6 1Z" stroke="#C5C7BC" stroke-width="0.458333"/>
<rect x="49.5833" y="12.9167" width="41.25" height="9.16667" rx="1.83333" fill="#C5C7BC"/>
<path d="M1 80H139V106C139 108.761 136.761 111 134 111H6C3.23858 111 1 108.761 1 106V80Z" fill="#C5C7BC"/>
<rect x="95.4167" y="34.9167" width="14.6667" height="3.66667" rx="0.916667" fill="#C5C7BC"/>
<rect x="10.3958" y="33.3125" width="36.2083" height="36.2083" rx="1.60417" stroke="#C5C7BC" stroke-width="0.458333"/>
<rect x="14.75" y="43.1667" width="27.5" height="1.83333" rx="0.916667" fill="#C5C7BC"/>
<rect x="14.75" y="52.3333" width="27.5" height="1.83333" rx="0.916667" fill="#C5C7BC"/>
<rect x="14.75" y="45.9167" width="27.5" height="1.83333" rx="0.916667" fill="#C5C7BC"/>
<rect x="14.75" y="55.0833" width="27.5" height="1.83333" rx="0.916667" fill="#C5C7BC"/>
<rect x="14.75" y="48.6667" width="27.5" height="1.83333" rx="0.916667" fill="#C5C7BC"/>
<rect x="14.75" y="57.8333" width="27.5" height="1.83333" rx="0.916667" fill="#C5C7BC"/>
<rect x="34.9167" y="61.5" width="7.33333" height="1.83333" rx="0.916667" fill="#C5C7BC"/>
<rect x="12" y="34.9167" width="14.6667" height="3.66667" rx="0.916667" fill="#C5C7BC"/>
<rect x="93.8125" y="33.3125" width="36.2083" height="36.2083" rx="1.60417" stroke="#C5C7BC" stroke-width="0.458333"/>
<circle cx="70.2083" cy="50.9583" r="15.8125" stroke="#C5C7BC" stroke-width="0.458333"/>
<path d="M1 79.8333L138.5 79.8333" stroke="#C5C7BC" stroke-width="0.458333"/>
<circle cx="70.2083" cy="43.625" r="4.125" fill="#C5C7BC"/>
<circle cx="29.875" cy="66.5417" r="1.375" fill="#C5C7BC"/>
<circle cx="33.5417" cy="66.5417" r="1.375" fill="#C5C7BC"/>
<circle cx="37.2083" cy="66.5417" r="1.375" fill="#C5C7BC"/>
<circle cx="40.875" cy="66.5417" r="1.375" fill="#C5C7BC"/>
<path d="M62.4167 55.5417C62.4167 51.2384 65.9051 47.75 70.2083 47.75C74.5115 47.75 78 51.2384 78 55.5417V59.4375C78 61.5891 76.2558 63.3333 74.1042 63.3333H66.3125C64.1609 63.3333 62.4167 61.5891 62.4167 59.4375V55.5417Z" fill="#C5C7BC"/>
<rect x="98.1667" y="40.4167" width="27.5" height="7.33333" rx="0.904605" fill="#C5C7BC"/>
<rect x="98.1667" y="48.6667" width="27.5" height="7.33333" rx="0.904605" fill="#C5C7BC"/>
<rect x="98.1667" y="56.9167" width="27.5" height="7.33333" rx="0.904605" fill="#C5C7BC"/>
</svg>
