<svg width="139" height="112" viewBox="0 0 139 112" fill="none" xmlns="http://www.w3.org/2000/svg">
<path d="M5.5 1H133C135.761 1 138 3.23858 138 6V106C138 108.761 135.761 111 133 111H5.5C2.73858 111 0.5 108.761 0.5 106V6C0.5 3.23858 2.73858 1 5.5 1Z" stroke="#C5C7BC" stroke-width="0.458333"/>
<path d="M0.5 80H138.5V106C138.5 108.761 136.261 111 133.5 111H5.5C2.73858 111 0.5 108.761 0.5 106V80Z" fill="#C5C7BC"/>
<path d="M0.5 79.8333L138 79.8333" stroke="#C5C7BC" stroke-width="0.458333"/>
<rect x="19.9026" y="8.40259" width="99.3299" height="64.1948" rx="2.81813" stroke="#C5C7BC" stroke-width="0.80518"/>
<rect x="56.3918" y="13.2703" width="25.7658" height="6.44144" rx="1.61036" fill="#C5C7BC"/>
<rect x="30.0405" y="36.1081" width="24.5946" height="3.51351" rx="1.61036" fill="#C5C7BC"/>
<rect x="84.5" y="36.1081" width="24.5946" height="3.51351" rx="1.31757" fill="#C5C7BC"/>
<rect x="35.3108" y="43.1351" width="12.2973" height="17.5676" rx="1.61036" fill="#C5C7BC"/>
<rect x="90.7701" y="43.1351" width="12.2973" height="17.5676" rx="1.61036" fill="#C5C7BC"/>
<rect x="56.3918" y="60.7027" width="25.7658" height="6.44144" rx="1.61036" fill="#C5C7BC"/>
<circle cx="96.7973" cy="25.5675" r="8.6583" stroke="#C5C7BC" stroke-width="0.250965"/>
<circle cx="96.7971" cy="21.5521" r="2.25869" fill="#C5C7BC"/>
<path d="M92.5308 28.0772C92.5308 25.721 94.4409 23.8108 96.7972 23.8108C99.1534 23.8108 101.064 25.721 101.064 28.0772V30.2104C101.064 31.3886 100.109 32.3436 98.9304 32.3436H94.664C93.4858 32.3436 92.5308 31.3886 92.5308 30.2104V28.0772Z" fill="#C5C7BC"/>
<circle cx="42.3376" cy="25.5675" r="8.6583" stroke="#C5C7BC" stroke-width="0.250965"/>
<circle cx="42.3375" cy="21.5521" r="2.25869" fill="#C5C7BC"/>
<path d="M38.0712 28.0772C38.0712 25.721 39.9813 23.8108 42.3376 23.8108C44.6938 23.8108 46.604 25.721 46.604 28.0772V30.2104C46.604 31.3886 45.6489 32.3436 44.4708 32.3436H40.2044C39.0262 32.3436 38.0712 31.3886 38.0712 30.2104V28.0772Z" fill="#C5C7BC"/>
</svg>
