<svg width="193" height="205" viewBox="0 0 193 205" fill="none" xmlns="http://www.w3.org/2000/svg">
<path d="M0 204.374H27.3816V135.967L0 153.407V204.374Z" fill="#C5C7BC"/>
<path d="M27.2418 136.086H54.6233V67.8491L27.2418 85.2472V136.086Z" fill="#C5C7BC"/>
<path d="M54.4844 68.221H81.866V0.216125L54.4844 17.5626V68.221Z" fill="#C5C7BC"/>
<path d="M82.0913 67.9726V0.827423H107.678V203.736H27.4379V136.445H54.0467H54.6848V135.807V68.6107H81.4532H82.0913V67.9726Z" stroke="#C5C7BC" stroke-width="1.27618"/>
<path d="M124.63 136.932H125.268V136.294V69.7413H151.228V203.741H97.628V136.932H124.63Z" stroke="#C5C7BC" stroke-width="1.27618"/>
<path d="M71 204H108V130L71 148.866V204Z" fill="#C5C7BC"/>
<path d="M98.1461 136.368H125.528V68.5898L98.1461 85.8744V136.368Z" fill="#C5C7BC"/>
<path d="M165.678 137.128V203.738H139.572V153.759L165.678 137.128Z" fill="#C5C7BC" stroke="#C5C7BC" stroke-width="1.27618"/>
<path d="M166.933 136.608H191.432V203.738H166.933V136.608Z" stroke="#C5C7BC" stroke-width="1.27618"/>
</svg>
