<svg width="206" height="203" viewBox="0 0 206 203" fill="none" xmlns="http://www.w3.org/2000/svg">
<path d="M193.905 54.131C180.021 81.0225 150.592 89.387 140.712 90.9762C127.766 93.0257 123.464 98.253 124.828 107.412C126.19 116.362 135.091 119.834 145.227 124.016C161.325 130.665 176.443 139.615 191.435 153.96C200.761 138.82 205.914 121.13 205.999 102.143C206.085 83.4064 200.888 67.8486 193.905 54.131Z" fill="#C5C7BC"/>
<path d="M74.8164 63.9587C96.3236 72.5322 98.4956 60.9475 90.4887 51.0775C84.7393 44.0096 83.2063 33.8468 93.4272 27.6153C104.33 20.9656 120.386 26.6116 123.239 34.8088C126.049 42.8804 123.196 48.2754 117.064 54.4651C110.505 61.1566 112.635 69.1447 127.881 70.8593C143.298 72.574 171.406 65.8826 182.478 37.4436C163.697 15.1106 135.376 0.598318 103.52 0.472844C80.2251 0.389205 58.6757 7.87536 41.3425 20.631C40.8315 36.1053 53.8633 55.6362 74.8164 63.9587Z" fill="#C5C7BC"/>
<path d="M90.3719 105.952C91.2663 94.1584 78.3621 90.3112 61.1141 78.6428C47.9971 69.7347 31.686 56.5189 25.7663 34.8132C9.83851 52.5458 0.128474 75.7988 0.000710149 101.268C-0.0844623 124.103 7.49615 145.224 20.4003 162.203C30.3658 149.949 46.2936 135.939 71.1648 125.651C83.6004 118.374 89.6055 115.948 90.3289 105.952H90.3719Z" fill="#C5C7BC"/>
<path d="M98.1601 140.796C64.9846 144.644 45.6923 160.243 34.2362 177.014C52.3785 193.032 76.3554 202.86 102.674 202.943C133.21 203.07 160.679 190.146 179.631 169.528C160.807 153.26 132.614 136.781 98.1601 140.754V140.796Z" fill="#C5C7BC"/>
</svg>
