<svg width="203" height="192" viewBox="0 0 203 192" fill="none" xmlns="http://www.w3.org/2000/svg">
<g clip-path="url(#clip0_141_83)">
<path d="M3.07574 135.66V30.6847C3.07574 24.8798 7.26868 19.941 12.9753 19.0292L23.1776 17.388C25.66 16.9929 28.2182 17.4032 30.4584 18.5733L71.5704 39.9999C74.3856 41.4588 77.837 40.1823 79.0328 37.2342L88.675 13.361C90.2341 9.50121 93.6854 6.76588 97.7875 6.12766L112.137 3.90899C114.695 3.5139 117.329 3.985 119.6 5.23108L195.239 47.0357C198.993 49.1177 201.324 53.0688 201.324 57.3844V165.308C201.324 171.113 197.116 176.067 191.394 176.963L187.141 177.632C184.537 178.042 181.873 177.571 179.572 176.279L145.681 157.299C144.636 156.722 143.425 156.494 142.245 156.676L131.815 158.272C130.619 158.454 129.393 158.226 128.334 157.618L117.889 151.631C114.302 149.58 109.852 152.178 109.852 156.312V176.188C109.852 182.069 105.553 187.038 99.7554 187.874L93.5642 188.756C91.0818 189.105 88.5538 188.664 86.3439 187.479L9.28189 146.024C5.46736 144.003 3.07574 140.006 3.07574 135.66Z" stroke="#C5C7BC" stroke-width="5" stroke-miterlimit="10"/>
</g>
<defs>
<clipPath id="clip0_141_83">
<rect width="203" height="190.697" fill="white" transform="translate(0 0.696976)"/>
</clipPath>
</defs>
</svg>
