<svg width="205" height="205" viewBox="0 0 205 205" fill="none" xmlns="http://www.w3.org/2000/svg">
<g clip-path="url(#clip0_1042_764)">
<path d="M71.6699 41.3202C60.0586 51.9706 41.4004 70.0282 20.0996 91.1288C2.72265 108.386 -0.0400415 111.268 -2.46627e-06 112.269V113.39L2.72265 113.11C8.96875 112.47 11.4111 111.348 18.2978 105.783C20.9404 103.661 28.2275 97.8553 34.5137 92.8905L45.9648 83.8817L45.7646 80.4784C45.4043 74.8329 46.9258 70.869 51.0498 66.785C56.5752 61.2997 64.623 58.4969 73.0713 59.0575C77.9561 59.4178 78.1562 59.4178 78.6768 59.2176C79.1973 59.0174 112.59 83.7616 124.121 92.8504C132.649 99.577 138.575 103.781 141.858 105.343C143.7 106.223 143.74 106.304 143.74 108.025C143.74 109.587 143.94 110.027 145.462 111.469C146.383 112.39 147.544 113.39 148.064 113.711L148.945 114.311L148.064 116.994C147.304 119.356 147.264 119.837 147.704 121.358C148.425 123.721 150.307 125.522 152.429 125.843C154.751 126.243 156.353 127.724 158.154 131.288C159.035 132.97 159.996 134.651 160.316 135.052C160.637 135.452 162.559 136.653 164.641 137.654L168.364 139.536L168.484 147.103L168.564 154.631L166.482 154.39C157.434 153.309 137.174 151.748 132.249 151.748H128.926V155.832V159.916L126.443 162.438C125.082 163.8 124.081 165.041 124.201 165.161C124.321 165.281 128.646 164.681 133.771 163.8C146.263 161.678 151.147 161.237 161.357 161.237C169.565 161.197 170.446 161.277 179.976 162.839C190.946 164.681 194.189 165.081 194.189 164.64C194.189 164.48 190.105 162.719 185.141 160.757C180.176 158.755 175.972 156.873 175.771 156.553C175.251 155.552 174.57 150.827 174.57 148.305C174.57 146.182 174.971 142.539 175.571 139.096L175.771 137.854L179.815 137.374C189.185 136.213 192.788 134.211 196.592 127.925C198.594 124.641 200.916 122.119 201.957 122.119C202.277 122.119 203.078 121.478 203.799 120.678L205.08 119.196L204.8 114.351C204.68 111.709 204.52 107.425 204.439 104.862C204.319 98.9364 203.879 98.0555 199.995 96.0936C196.712 94.412 196.151 93.451 196.912 90.6883C197.593 88.1659 197.513 86.7245 196.672 85.9637C196.271 85.6034 191.987 83.8416 187.143 82.0399C178.454 78.7967 178.334 78.7567 173.85 78.5965C162.759 78.1161 156.913 80.5184 154.15 86.6444C153.51 88.0057 152.229 90.0877 151.268 91.2889C147.544 95.8534 147.344 96.2137 147.344 97.6952C147.344 98.4959 147.224 99.2567 147.104 99.4168C146.943 99.537 136.093 89.0467 122.96 76.1141C98.7764 52.2508 90.8086 44.6034 84.2822 39.0379C78.5166 34.1131 79.7978 33.8729 71.6699 41.3202Z" fill="#C5C7BC"/>
<path d="M123.721 65.3838V73.1113L130.047 78.5166C137.494 84.9228 142.539 89.0469 142.699 88.8467C142.779 88.7666 142.939 81.7197 143.02 73.1513L143.22 57.6562H133.49H123.721V65.3838Z" fill="#C5C7BC"/>
<path d="M63.7422 62.4609C62.1406 62.9014 59.6982 63.8223 58.3369 64.543C55.2139 66.2246 51.3301 69.8281 49.9687 72.3506C47.8467 76.1943 47.7266 81.1191 49.6084 84.8027C50.5293 86.6045 53.4922 89.4473 55.4541 90.3682C56.2148 90.7285 56.8555 91.1689 56.8555 91.2891C56.8555 91.4492 55.9346 91.7695 54.8135 92.0098C53.6924 92.29 51.25 93.2109 49.3682 94.0918C41.7607 97.6553 37.5566 104.422 38.1973 112.109C38.998 121.879 47.5264 128.085 60.1787 128.125C64.6631 128.125 69.1875 127.284 72.6709 125.843C75.5537 124.642 80.7588 121.278 83.4014 118.956L85.2832 117.234V114.432V111.589L82.3203 114.432C76.4746 119.997 69.748 122.56 63.3418 121.679C58.8174 121.038 54.9336 118.235 52.9717 114.151C52.0107 112.189 51.8906 111.429 51.8506 108.105C51.8506 104.822 52.0107 103.981 52.8916 102.06C54.2129 99.2568 56.6953 96.6943 59.2178 95.5732C60.7793 94.8525 61.7402 94.7324 65.5039 94.8125L69.9482 94.8926L70.5889 93.4111C70.9492 92.5703 71.3096 91.0889 71.3496 90.1279L71.4697 88.3262L68.1064 87.8457C63.2617 87.165 61.1797 85.2432 60.6592 81.0791C59.6182 72.8311 66.2646 63.8623 72.0703 65.624C74.1523 66.2646 75.4336 68.1064 76.4746 72.2305C77.3154 75.5938 77.7959 76.4746 78.7969 76.4746C79.6377 76.4746 82.6807 73.2314 83.7217 71.1895C84.4424 69.748 84.5225 69.3076 84.1221 68.0264C83.4414 65.8242 80.3184 63.1416 77.3555 62.3008C74.1123 61.4199 67.5459 61.46 63.7422 62.4609Z" fill="#C5C7BC"/>
<path d="M89.0068 103.981C88.2061 104.142 88.0859 104.422 88.0859 105.863V107.545H94.2119C101.739 107.545 103.901 108.186 107.104 111.469C109.947 114.312 110.668 116.794 110.428 122.399C110.268 126.283 110.147 126.764 108.666 129.646C107.505 131.889 106.664 133.01 105.383 133.891C103.821 135.012 103.421 135.092 100.498 135.052C97.1348 134.972 96.8145 135.132 96.334 137.094C96.0137 138.415 96.9346 139.736 98.1758 139.736C98.5762 139.736 99.2568 140.097 99.6973 140.537C100.898 141.738 100.738 145.422 99.2568 152.028C97.4551 159.996 97.8154 163.439 100.738 166.923C102.54 169.085 104.662 169.926 108.306 169.926C110.948 169.926 111.909 169.766 113.791 168.885C117.074 167.363 119.477 165.642 123.24 161.998L126.523 158.835V156.112C126.523 154.591 126.443 153.35 126.363 153.35C126.283 153.35 124.802 154.791 123.08 156.593C119.156 160.637 116.914 162.198 114.752 162.438C113.471 162.599 112.95 162.479 112.43 161.878C111.589 160.957 111.549 160.196 111.949 152.549C112.189 147.063 112.149 146.623 111.309 144.821C110.508 143.1 106.504 138.936 105.663 138.936C105.463 138.936 105.303 138.775 105.303 138.615C105.303 138.455 106.504 137.975 108.025 137.574C114.712 135.813 119.276 132.609 121.759 128.005C123.04 125.683 123.12 125.282 123.12 121.719C123.12 118.195 123 117.675 121.799 115.232C119.316 110.147 113.711 106.144 106.784 104.502C104.102 103.861 102.22 103.701 96.6943 103.741C92.9707 103.781 89.4873 103.901 89.0068 103.981Z" fill="#C5C7BC"/>
<path d="M83.2812 105.183C79.6377 106.144 73.2715 109.427 70.0283 111.989C67.1855 114.271 64.0625 117.875 64.0625 118.876C64.0625 119.437 67.2256 119.437 69.5078 118.916C70.709 118.636 71.8701 117.835 74.1123 115.633C76.1543 113.631 78.0762 112.189 80.3184 111.028C82.6807 109.787 84.082 108.706 85.4434 107.145C86.4443 105.943 87.2852 104.862 87.2852 104.742C87.2852 104.342 85.6436 104.542 83.2812 105.183Z" fill="#C5C7BC"/>
<path d="M96.0937 114.231C93.1709 115.433 90.7285 117.154 88.4062 119.637C84.6425 123.681 82.8007 128.886 80.8789 141.218C79.1171 152.549 77.5957 157.514 74.5127 161.638C70.9091 166.562 65.5839 167.483 63.2617 163.64C62.3408 162.158 62.2607 160.637 62.9013 156.353C63.582 151.748 62.7412 151.188 58.3369 153.39C52.8916 156.152 51.4502 157.794 51.9306 160.837C52.4511 164.28 54.5332 166.963 57.9765 168.645C60.499 169.886 60.8593 169.966 65.0634 169.966C70.1084 169.926 73.5918 169.085 78.1962 166.643C83.4013 163.92 89.207 157.514 91.4892 151.868C92.8505 148.425 94.5322 140.577 94.0918 139.696C93.4111 138.495 93.6513 136.013 94.5722 134.531C95.0527 133.73 95.7334 131.368 96.1738 128.926C97.415 121.919 98.4961 119.356 101.459 116.554L102.9 115.152L102.019 114.231C100.898 113.03 99.0166 113.03 96.0937 114.231Z" fill="#C5C7BC"/>
<path d="M69.9883 129.526C69.9082 129.646 68.0264 130.007 65.8643 130.327C63.7022 130.647 61.8604 130.968 61.7803 131.088C61.4199 131.448 63.1817 134.771 64.3027 135.893C65.3037 136.853 65.7041 137.014 67.2656 136.853C69.4678 136.613 74.3125 134.371 74.8731 133.29C75.4336 132.289 74.793 131.128 73.1514 130.127C71.9502 129.366 70.4287 129.086 69.9883 129.526Z" fill="#C5C7BC"/>
<path d="M116.594 152.429C115.032 152.629 114.752 153.229 114.311 156.833C113.951 159.956 114.191 160.356 115.833 159.516C117.194 158.795 123.32 153.029 123.32 152.469C123.32 152.148 119.116 152.108 116.594 152.429Z" fill="#C5C7BC"/>
<path d="M92.8907 156.913C92.3702 157.073 91.2891 157.994 90.5684 158.955C89.8477 159.956 88.086 161.958 86.6446 163.399C85.2432 164.841 84.2022 166.162 84.3623 166.282C84.4825 166.442 87.4053 166.562 90.8086 166.562H96.9746L96.6944 165.642C95.8135 162.839 95.293 159.756 95.4932 158.234C95.7334 156.673 95.6934 156.553 94.8125 156.593C94.292 156.633 93.4512 156.753 92.8907 156.913Z" fill="#C5C7BC"/>
</g>
<defs>
<clipPath id="clip0_1042_764">
<rect width="205" height="205" fill="white"/>
</clipPath>
</defs>
</svg>
