<svg width="48" height="48" viewBox="0 0 48 48" fill="none" xmlns="http://www.w3.org/2000/svg">
<g clip-path="url(#clip0_1196_1401)">
<path d="M7.5 1.5V0H10.5V1.5C10.5 4.81371 13.1863 7.5 16.5 7.5H18V9V10.5H16.5C13.1863 10.5 10.5 13.1863 10.5 16.5V18H9H7.5V16.5C7.5 13.1863 4.81371 10.5 1.5 10.5H0V9V7.5H1.5C4.81371 7.5 7.5 4.81371 7.5 1.5Z" fill="#F2E8EA"/>
<path d="M43.5 13.5V15H40.5V13.5C40.5 11.8432 39.1569 10.5 37.5 10.5H36V9V7.5H37.5C39.1569 7.5 40.5 6.15684 40.5 4.5V3H42H43.5V4.5C43.5 6.15684 44.8431 7.5 46.5 7.5H48V9V10.5H46.5C44.8431 10.5 43.5 11.8432 43.5 13.5Z" fill="#F2E8EA"/>
<path d="M25.2212 14.7882L25.5 12H28.5L28.7788 14.7882C29.4892 21.892 35.1081 27.5108 42.2118 28.2212L45 28.5V31.5L42.2118 31.7787C35.1081 32.4891 29.4892 38.1081 28.7788 45.2118L28.5 48H25.5L25.2212 45.2118C24.5108 38.1081 18.892 32.4891 11.7882 31.7787L9 31.5V28.5L11.7882 28.2212C18.892 27.5108 24.5108 21.892 25.2212 14.7882Z" fill="#F2E8EA"/>
</g>
<defs>
<clipPath id="clip0_1196_1401">
<rect width="48" height="48" fill="white"/>
</clipPath>
</defs>
</svg>
