<svg width="48" height="48" viewBox="0 0 48 48" fill="none" xmlns="http://www.w3.org/2000/svg">
<g clip-path="url(#clip0_102_481)">
<path fill-rule="evenodd" clip-rule="evenodd" d="M42.0855 9.79499L26.928 0.797992C26.0474 0.275139 25.0421 -0.000793457 24.018 -0.000793457C22.9938 -0.000793457 21.9886 0.275139 21.108 0.797992L5.94749 9.79499C5.04646 10.3326 4.30088 11.0955 3.78408 12.0087C3.26728 12.9218 2.99706 13.9538 2.99999 15.003V32.997C2.99443 34.0438 3.26079 35.0741 3.77299 35.987C4.2852 36.8999 5.0257 37.6642 5.92199 38.205L21.0795 47.202C21.9601 47.7248 22.9653 48.0008 23.9895 48.0008C25.0136 48.0008 26.0189 47.7248 26.8995 47.202L42.06 38.205C42.9563 37.6642 43.6968 36.8999 44.209 35.987C44.7212 35.0741 44.9876 34.0438 44.982 32.997V15.003C44.9904 13.9588 44.7281 12.9302 44.2208 12.0175C43.7134 11.1048 42.9783 10.3391 42.087 9.79499H42.0855ZM30.345 37.893V39.183C30.3441 39.2625 30.3233 39.3405 30.2845 39.4099C30.2457 39.4794 30.1902 39.538 30.123 39.5805L29.355 40.02C29.235 40.083 29.133 40.02 29.133 39.8505V38.58C28.5908 38.8464 27.9703 38.9067 27.387 38.7495C27.294 38.6865 27.258 38.5665 27.303 38.4495L27.5775 37.2795C27.6004 37.1805 27.6539 37.0913 27.7305 37.0245C27.7523 37.0029 27.7777 36.9851 27.8055 36.972C27.8441 36.9569 27.8869 36.9569 27.9255 36.972C28.4609 37.1158 29.0313 37.0436 29.514 36.771C29.8569 36.6035 30.1481 36.3464 30.3567 36.0268C30.5653 35.7073 30.6836 35.3373 30.699 34.956C30.699 34.299 30.339 34.026 29.469 34.0185C28.368 34.0185 27.369 33.8085 27.324 32.1825C27.3366 31.4884 27.5026 30.8056 27.8102 30.1832C28.1178 29.5608 28.5593 29.0142 29.103 28.5825V27.2745C29.106 27.1948 29.1276 27.1169 29.1662 27.0471C29.2047 26.9773 29.2591 26.9175 29.325 26.8725L30.066 26.4015C30.186 26.3385 30.288 26.4015 30.288 26.5755V27.8835C30.7419 27.6771 31.2486 27.6164 31.7385 27.7095C31.8435 27.7695 31.8855 27.9015 31.8345 28.0095L31.575 29.169C31.5456 29.2892 31.4716 29.3938 31.368 29.4615C31.338 29.4795 31.293 29.4735 31.257 29.4615C30.7794 29.3569 30.28 29.4385 29.8605 29.6895C29.5545 29.8215 29.2924 30.0379 29.1049 30.3133C28.9174 30.5888 28.8121 30.9119 28.8015 31.245C28.8015 31.8375 29.1135 32.0175 30.162 32.04C31.5645 32.04 32.1675 32.6745 32.184 34.083C32.1708 34.8113 31.9991 35.5281 31.6811 36.1834C31.363 36.8388 30.906 37.417 30.342 37.878L30.345 37.893ZM38.2845 35.718C38.2936 35.7726 38.2874 35.8286 38.2668 35.8799C38.2462 35.9312 38.2118 35.9759 38.1675 36.009L34.35 38.337C34.314 38.367 34.26 38.3715 34.2195 38.3475C34.179 38.3235 34.1595 38.2725 34.17 38.2275V37.2375C34.1726 37.1846 34.1904 37.1335 34.2213 37.0904C34.2521 37.0473 34.2947 37.014 34.344 36.9945L38.118 34.734C38.154 34.704 38.208 34.6995 38.2485 34.7235C38.289 34.7475 38.3085 34.7985 38.298 34.8435V35.7165L38.2845 35.718ZM40.932 13.59L26.589 22.449C24.7995 23.508 23.484 24.666 23.484 26.82V44.487C23.484 45.777 24.0135 46.587 24.807 46.857C24.5447 46.906 24.2788 46.9326 24.012 46.9365C23.1696 46.9346 22.3432 46.7061 21.6195 46.275L6.46199 37.2795C5.72396 36.8366 5.11416 36.209 4.69275 35.4585C4.27135 34.7081 4.05291 33.8607 4.05899 33V15.003C4.0522 14.1412 4.27027 13.2925 4.69168 12.5407C5.11309 11.7888 5.72327 11.1599 6.46199 10.716L21.6195 1.71899C23.0895 0.848992 24.9135 0.848992 26.3835 1.71899L41.541 10.716C42.7905 11.472 43.641 12.741 43.869 14.166C43.377 13.0965 42.2445 12.816 40.926 13.5735H40.9305L40.932 13.59Z" fill="#F2E8EA"/>
</g>
<defs>
<clipPath id="clip0_102_481">
<rect width="48" height="48" fill="white"/>
</clipPath>
</defs>
</svg>
