<svg width="20" height="20" viewBox="0 0 20 20" fill="none" xmlns="http://www.w3.org/2000/svg">
<path fill-rule="evenodd" clip-rule="evenodd" d="M10.7336 9.45794H19.8137C19.9167 9.45794 20 9.37448 20 9.27158V8.99292C20 8.90793 19.9425 8.83383 19.8602 8.81244C15.6021 7.71779 12.2609 4.39418 11.1398 0.139043C11.1181 0.0572196 11.0441 0 10.9597 0H10.7336C10.6307 0 10.5473 0.0834255 10.5473 0.186364V9.27158C10.5473 9.37448 10.6307 9.45794 10.7336 9.45794Z" fill="#F2E8EA"/>
<path fill-rule="evenodd" clip-rule="evenodd" d="M10.7336 19.9997H11.0121C11.097 19.9997 11.1713 19.9423 11.1925 19.8599C12.2865 15.5997 15.6083 12.2562 19.8613 11.1346C19.9431 11.1129 20 11.0389 20 10.9544V10.7282C20 10.6255 19.9167 10.5421 19.8137 10.5421H10.7336C10.6307 10.5421 10.5473 10.6255 10.5473 10.7282V19.8133C10.5473 19.9163 10.6307 19.9997 10.7336 19.9997Z" fill="#F2E8EA"/>
<path fill-rule="evenodd" clip-rule="evenodd" d="M9.0403 20H9.26612C9.36903 20 9.45237 19.9166 9.45237 19.8133V10.7284C9.45237 10.6255 9.36903 10.5421 9.26612 10.5421H0.18626C0.083379 10.5421 0 10.6255 0 10.7284V11.0068C0 11.0921 0.0574558 11.1662 0.139762 11.1876C4.3976 12.2822 7.73914 15.6055 8.8602 19.861C8.88187 19.9428 8.95558 20 9.0403 20Z" fill="#F2E8EA"/>
<path fill-rule="evenodd" clip-rule="evenodd" d="M0.18626 9.45794H9.26612C9.36903 9.45794 9.45237 9.37448 9.45237 9.27158V0.186364C9.45237 0.0834255 9.36903 0 9.26612 0H8.9879C8.90296 0 8.82868 0.0577563 8.80752 0.140109C7.71319 4.40034 4.39173 7.74375 0.138697 8.86544C0.0569195 8.88683 0 8.96087 0 9.04564V9.27158C0 9.37448 0.083379 9.45794 0.18626 9.45794Z" fill="#F2E8EA"/>
</svg>
