<svg width="48" height="48" viewBox="0 0 48 48" fill="none" xmlns="http://www.w3.org/2000/svg">
<g clip-path="url(#clip0_1196_1407)">
<path d="M0 0H40.32C42.3569 0 44.3103 0.80914 45.7506 2.24942C47.1909 3.6897 48 5.64314 48 7.68V40.32C48 42.3569 47.1909 44.3103 45.7506 45.7506C44.3103 47.1909 42.3569 48 40.32 48H7.68C5.64314 48 3.6897 47.1909 2.24942 45.7506C0.80914 44.3103 0 42.3569 0 40.32L0 0Z" fill="#F2E8EA"/>
<path d="M39.1939 44.1552C37.6392 44.1552 36.4502 43.703 35.6179 42.7944C34.7947 41.881 34.3661 40.5778 34.3277 38.8757H37.6781C37.6973 40.381 38.2262 41.1355 39.2659 41.1355C39.7958 41.1355 40.1712 40.9675 40.3877 40.6354C40.5994 40.3042 40.7102 39.7747 40.7102 39.049C40.7102 38.472 40.5658 37.991 40.2864 37.6114C39.9073 37.1597 39.4207 36.8108 38.8714 36.5966L37.6296 36C36.5227 35.471 35.7187 34.8461 35.2229 34.115C34.7414 33.3888 34.501 32.3698 34.501 31.067C34.501 29.6098 34.9248 28.427 35.7667 27.5179C36.6331 26.6093 37.8125 26.1576 39.3187 26.1576C40.7731 26.1576 41.8992 26.6045 42.6931 27.4939C43.5019 28.3886 43.9253 29.6674 43.9594 31.3406H40.7342C40.7534 30.7934 40.643 30.2501 40.4117 29.7538C40.2293 29.389 39.8726 29.2061 39.3432 29.2061C38.4 29.2061 37.9282 29.7682 37.9282 30.8885C37.9282 31.4563 38.0434 31.8984 38.2747 32.2349C38.608 32.6071 39.0255 32.8942 39.4925 33.072L40.6814 33.5962C41.9088 34.1587 42.7944 34.8466 43.3382 35.6784C43.8869 36.5054 44.1566 37.6114 44.1566 38.9962C44.1566 40.655 43.7232 41.929 42.8424 42.8184C41.9664 43.7078 40.7486 44.1552 39.1944 44.1552H39.1939ZM28.3738 44.1552C26.8186 44.1552 25.6301 43.703 24.7973 42.7944C23.9741 41.881 23.5459 40.5778 23.5075 38.8757H26.8574C26.8766 40.381 27.4061 41.1355 28.4462 41.1355C28.9752 41.1355 29.3506 40.9675 29.5622 40.6354C29.7792 40.3042 29.8848 39.7747 29.8848 39.049C29.8848 38.472 29.7456 37.991 29.4662 37.6114C29.0872 37.1597 28.6005 36.8108 28.0512 36.5966L26.8094 36C25.7021 35.471 24.8986 34.8461 24.4027 34.115C23.9213 33.3888 23.6808 32.3698 23.6808 31.067C23.6808 29.6098 24.1042 28.427 24.9466 27.5179C25.813 26.6093 26.9923 26.1576 28.4986 26.1576C29.9525 26.1576 31.0786 26.6045 31.8682 27.4939C32.6866 28.3886 33.1051 29.6674 33.1387 31.3406H29.9141C29.9333 30.7934 29.8229 30.2501 29.5915 29.7538C29.4086 29.389 29.0525 29.2061 28.523 29.2061C27.5794 29.2061 27.1075 29.7682 27.1075 30.8885C27.1075 31.4563 27.2232 31.8984 27.4541 32.2349C27.7873 32.6071 28.2049 32.8942 28.6718 33.072L29.8608 33.5962C31.0882 34.1587 31.9738 34.8466 32.5181 35.6784C33.0619 36.5054 33.336 37.6114 33.336 38.9962C33.336 40.655 32.8982 41.929 32.0222 42.8184C31.1462 43.7078 29.9285 44.1552 28.3738 44.1552ZM17.1058 44.1552C15.5842 44.1552 14.3765 43.7414 13.4813 42.9144C12.5861 42.0926 12.143 40.8566 12.143 39.2218V31.1438C12.143 29.519 12.6149 28.2878 13.5581 27.4416C14.5162 26.605 15.7723 26.1821 17.327 26.1821C18.8338 26.1821 20.0222 26.6146 20.903 27.4704C21.7939 28.331 22.2413 29.6102 22.2413 31.3171V31.9565H18.6941V31.3363C18.6941 30.6778 18.5496 30.192 18.2702 29.8747C18.1482 29.7161 17.9904 29.5885 17.8098 29.5024C17.6291 29.4163 17.4306 29.3742 17.2306 29.3794C16.6531 29.3794 16.2442 29.5762 16.0128 29.9755C15.7665 30.528 15.6559 31.1313 15.6902 31.7352V38.7557C15.6902 40.2221 16.2058 40.9675 17.231 40.9819C17.712 40.9819 18.073 40.8086 18.3235 40.4626C18.5956 40.0254 18.7251 39.5145 18.6941 39.0005V38.4768H22.2413V39.025C22.2413 40.1645 22.02 41.1163 21.5722 41.8762C21.1465 42.6177 20.5076 43.2141 19.7386 43.5878C18.9173 43.9798 18.0156 44.1742 17.1058 44.1552Z" fill="#0A0B04"/>
</g>
<defs>
<clipPath id="clip0_1196_1407">
<rect width="48" height="48" fill="white"/>
</clipPath>
</defs>
</svg>
