<svg width="34" height="48" viewBox="0 0 34 48" fill="none" xmlns="http://www.w3.org/2000/svg">
<path fill-rule="evenodd" clip-rule="evenodd" d="M4.16417 16.4829C1.65729 14.8834 0 12.1141 0 8.96568C0 4.01408 4.09939 0 9.15622 0H24.8438C29.9006 0 34 4.01408 34 8.96568C34 12.1141 32.3428 14.8834 29.8358 16.4829C32.3428 18.0824 34 20.8518 34 24.0001C34 28.9517 29.9006 32.9658 24.8438 32.9658H24.6769C22.2865 32.9658 20.11 32.0688 18.4793 30.5998V38.9526C18.4793 43.9595 14.2903 48 9.19772 48C4.15127 48 0 43.9961 0 39.0343C0 35.886 1.65721 33.1167 4.16401 31.5172C1.65721 29.9177 0 27.1484 0 24.0001C0 20.8518 1.65729 18.0824 4.16417 16.4829ZM18.4793 24.0001C18.4793 27.3517 21.2541 30.0686 24.6769 30.0686H24.8438C28.2666 30.0686 31.0413 27.3517 31.0413 24.0001C31.0413 20.6485 28.2666 17.9315 24.8438 17.9315H24.6769C21.2541 17.9315 18.4793 20.6485 18.4793 24.0001ZM15.5207 17.9315H9.15622C5.73339 17.9315 2.95869 20.6485 2.95869 24.0001C2.95869 27.3449 5.7222 30.0576 9.13538 30.0686H9.1451H15.5207V17.9315ZM9.15622 32.9658C9.14927 32.9658 9.14233 32.9658 9.13538 32.9658C5.7222 32.9767 2.95869 35.6895 2.95869 39.0343C2.95869 42.3758 5.76452 45.1029 9.19772 45.1029C12.677 45.1029 15.5207 42.3392 15.5207 38.9526V32.9658H9.15622ZM15.5207 15.0342H9.15622C5.73339 15.0342 2.95869 12.3173 2.95869 8.96568C2.95869 5.61408 5.73339 2.89712 9.15622 2.89712H15.5207V15.0342ZM24.8438 15.0342H18.4793V2.89712H24.8438C28.2666 2.89712 31.0413 5.61408 31.0413 8.96568C31.0413 12.3173 28.2666 15.0342 24.8438 15.0342Z" fill="#F2E8EA"/>
</svg>
