<svg width="49" height="48" viewBox="0 0 49 48" fill="none" xmlns="http://www.w3.org/2000/svg">
<path d="M17.7355 44.8399C19.5953 45.5885 21.613 46.0326 23.7317 46.1066C26.5989 46.2068 29.3254 45.614 31.7629 44.4879C28.84 43.3395 26.1928 41.6601 23.9334 39.5721C22.4689 41.9169 20.3029 43.769 17.7355 44.8399Z" fill="#F2E8EA"/>
<path d="M23.7369 45.9567C21.7637 45.8878 19.879 45.4951 18.1294 44.8327C20.5235 43.7564 22.5511 42.0006 23.9641 39.8038C26.1222 41.7701 28.6257 43.3686 31.3798 44.4959C29.0453 45.5186 26.4549 46.0517 23.7369 45.9567Z" stroke="#0A0B04" stroke-opacity="0.4" stroke-width="0.3"/>
<path d="M23.9332 39.5728C18.7759 34.8031 15.6473 27.8995 15.9117 20.3274C15.9203 20.0816 15.9333 19.8358 15.9485 19.5901C15.0065 19.3459 14.0407 19.2053 13.0682 19.1708C11.686 19.122 10.3047 19.2881 8.97352 19.6631C7.59672 22.0747 6.766 24.8417 6.66248 27.8056C6.39536 35.4544 11.0242 42.1379 17.7352 44.8407C20.3026 43.7697 22.4686 41.9199 23.9332 39.5728Z" fill="#F2E8EA"/>
<path d="M15.7618 20.3221L15.7618 20.3222C15.4973 27.8948 18.6065 34.8031 23.74 39.598C22.304 41.852 20.2097 43.6322 17.7341 44.6784C11.1107 41.9836 6.5483 35.3729 6.81239 27.8108C6.91427 24.8939 7.72644 22.1695 9.07337 19.7909C10.3713 19.4318 11.7167 19.2732 13.0628 19.3207C13.9833 19.3533 14.8978 19.4821 15.7913 19.7049C15.7793 19.9103 15.769 20.1161 15.7618 20.3221Z" stroke="#0A0B04" stroke-opacity="0.4" stroke-width="0.3"/>
<path d="M23.9333 39.5725C25.1323 37.6537 25.8593 35.4041 25.9439 32.9803C26.1666 26.6047 21.8806 21.1202 15.9486 19.5898C15.9334 19.8355 15.9204 20.0813 15.9118 20.3271C15.6474 27.8992 18.776 34.8028 23.9333 39.5725Z" fill="#F2E8EA"/>
<path d="M16.0617 20.3324C16.0681 20.149 16.077 19.9656 16.0874 19.7819C21.8612 21.3573 26.0119 26.7347 25.794 32.9751C25.7126 35.3068 25.0301 37.4751 23.9015 39.3379C18.8546 34.6013 15.8012 27.7934 16.0617 20.3324ZM16.0617 20.3324L15.9118 20.3271M16.0617 20.3324L15.9118 20.3271M15.9118 20.3271C15.6493 27.8443 18.7308 34.7026 23.8214 39.4684L15.9394 19.7424C15.9282 19.9372 15.9186 20.1321 15.9118 20.3271Z" stroke="#0A0B04" stroke-opacity="0.4" stroke-width="0.3"/>
<path d="M25.2805 1.66864C21.9021 4.37528 19.2342 7.94416 17.6201 12.0554C16.696 14.4103 16.1153 16.9398 15.9457 19.5914C21.8777 21.1218 26.1638 26.6063 25.9412 32.9818C25.8565 35.4056 25.1274 37.653 23.9305 39.5742C26.1897 41.6643 28.8369 43.3416 31.7599 44.4899C37.6269 41.7779 41.7895 35.9422 42.0305 29.0398C42.1867 24.5677 40.4685 20.5818 38.0405 17.2175C35.4765 13.6594 25.2805 1.66864 25.2805 1.66864Z" fill="#F2E8EA"/>
<path d="M37.9188 17.3052L37.9189 17.3053C40.3342 20.6521 42.0353 24.6058 41.8806 29.0345C41.6424 35.8554 37.5421 41.626 31.7551 44.3268C28.9123 43.2015 26.3333 41.5723 24.1231 39.5476C25.2946 37.6285 26.0071 35.3936 26.0911 32.9871C26.3147 26.5829 22.0397 21.0682 16.1036 19.4779C16.282 16.8869 16.8555 14.4145 17.7597 12.1102C19.346 8.06995 21.9562 4.55643 25.2609 1.87715L25.2813 1.90125L25.6092 2.28781C25.893 2.62256 26.3012 3.10477 26.7991 3.69455C27.7949 4.87412 29.1493 6.4839 30.5838 8.20481C33.4546 11.6488 36.6406 15.5314 37.9188 17.3052Z" stroke="#0A0B04" stroke-opacity="0.4" stroke-width="0.3"/>
</svg>
