<svg width="36" height="49" viewBox="0 0 36 49" fill="none" xmlns="http://www.w3.org/2000/svg">
<g clip-path="url(#clip0_102_491)">
<path d="M0.37793 38.7943L0.668254 38.3879L14.3987 12.3347L14.4277 12.0589L8.3752 0.689696C7.86784 -0.262646 6.44015 -0.0218257 6.27386 1.04429L0.37793 38.7943Z" fill="#F2E8EA"/>
<path d="M0.549286 38.4845L0.768773 38.0563L14.3555 12.276L8.3179 0.860656C7.81616 -0.0817025 6.5419 0.158571 6.37725 1.21348L0.549286 38.4845Z" fill="#F2E8EA"/>
<path d="M0.549286 38.4845L0.768773 38.0563L14.3555 12.276L8.3179 0.860656C7.81616 -0.0817025 6.5419 0.158571 6.37725 1.21348L0.549286 38.4845Z" fill="#F2E8EA"/>
<path d="M18.8402 20.6585L23.3468 16.0431L18.8388 7.43734C18.4109 6.6227 17.2161 6.62024 16.7927 7.43734L14.3841 12.0304V12.4215L18.84 20.6585H18.8402Z" fill="#F2E8EA"/>
<path d="M18.7597 20.4663L23.1411 15.9792L18.7597 7.63632C18.3437 6.84438 17.333 6.76138 16.9214 7.55563L14.5002 12.2201L14.4277 12.4586L18.7597 20.4663Z" fill="#F2E8EA"/>
<path d="M18.7597 20.4663L23.1411 15.9792L18.7597 7.63632C18.3437 6.84438 17.333 6.76138 16.9214 7.55563L14.5002 12.2201L14.4277 12.4586L18.7597 20.4663Z" fill="#F2E8EA"/>
<path d="M0.37793 38.7943L0.509485 38.6619L0.987571 38.4677L18.5571 20.9635L18.7797 20.3575L14.3968 12.0055L0.37793 38.7943Z" fill="#F2E8EA"/>
<path d="M19.403 47.6221L35.3039 38.7541L30.7632 10.789C30.6211 9.91405 29.5477 9.56821 28.9214 10.1955L0.37793 38.7943L16.1876 47.6214C16.679 47.8958 17.2324 48.0398 17.7952 48.04C18.358 48.0401 18.9115 47.8962 19.403 47.6221Z" fill="#F2E8EA"/>
<path d="M35.1614 38.6797L30.6551 10.927C30.5143 10.0586 29.6216 9.69933 29 10.322L0.554352 38.7399L16.1905 47.4794C16.6781 47.7517 17.2273 47.8947 17.7858 47.8949C18.3444 47.895 18.8936 47.7523 19.3814 47.4803L35.1615 38.6796L35.1614 38.6797Z" fill="#F2E8EA"/>
<path d="M19.4029 47.3608C18.9114 47.6349 18.3579 47.7787 17.7951 47.7786C17.2323 47.7785 16.6789 47.6344 16.1876 47.3601L0.505231 38.6599L0.378052 38.7944L16.1876 47.6214C16.679 47.8958 17.2324 48.0399 17.7952 48.04C18.358 48.0401 18.9115 47.8963 19.403 47.6221L35.3039 38.7541L35.2649 38.5146L19.403 47.3609L19.4029 47.3608Z" fill="#F2E8EA"/>
</g>
<defs>
<clipPath id="clip0_102_491">
<rect width="35.0085" height="48" fill="white" transform="translate(0.37793 0.09375)"/>
</clipPath>
</defs>
</svg>
