<svg width="49" height="48" viewBox="0 0 49 48" fill="none" xmlns="http://www.w3.org/2000/svg">
<rect x="0.62207" width="48" height="48" rx="9.6" fill="#F2E8EA"/>
<g clip-path="url(#clip0_1196_1409)">
<path d="M19.94 17L12.4477 30.2586H5.62207L11.4723 19.9058C12.3792 18.301 14.6423 17 16.5272 17H19.94ZM36.6782 20.3146C36.6782 18.484 38.2062 17 40.091 17C41.9759 17 43.5038 18.484 43.5038 20.3146C43.5038 22.1453 41.9759 23.6293 40.091 23.6293C38.2062 23.6293 36.6782 22.1453 36.6782 20.3146ZM21.2198 17H28.0454L20.5531 30.2586H13.7275L21.2198 17ZM29.2814 17H36.107L30.2567 27.3528C29.3498 28.9576 27.0867 30.2586 25.2019 30.2586H21.7891L29.2814 17Z" fill="#0A0B04"/>
</g>
<defs>
<clipPath id="clip0_1196_1409">
<rect width="37.92" height="13.2703" fill="white" transform="translate(5.62207 17)"/>
</clipPath>
</defs>
</svg>
