<svg width="48" height="49" viewBox="0 0 48 49" fill="none" xmlns="http://www.w3.org/2000/svg">
<g clip-path="url(#clip0_102_489)">
<path d="M47.0944 21.9564L26.1375 0.997603C25.5577 0.41836 24.7717 0.0929871 23.9522 0.0929871C23.1326 0.0929871 22.3466 0.41836 21.7669 0.997603L17.415 5.3476L22.935 10.8695C23.586 10.6474 24.2863 10.6127 24.9561 10.7695C25.6258 10.9262 26.238 11.2681 26.7229 11.756C27.2077 12.2439 27.5456 12.8583 27.698 13.5291C27.8505 14.1998 27.8113 14.8999 27.585 15.5495L32.9044 20.8707C33.6995 20.5974 34.5642 20.6048 35.3545 20.8917C36.1449 21.1786 36.8129 21.7278 37.2475 22.4475C37.682 23.1673 37.8568 24.0143 37.7426 24.8473C37.6284 25.6803 37.2321 26.449 36.6199 27.0252C36.0077 27.6015 35.2164 27.9505 34.3781 28.0142C33.5397 28.0778 32.7049 27.8522 32.0127 27.375C31.3205 26.8977 30.8127 26.1977 30.5741 25.3914C30.3355 24.5852 30.3803 23.7216 30.7012 22.9445L25.74 17.9814V31.0389C26.4941 31.4117 27.0976 32.0318 27.4499 32.7957C27.8023 33.5596 27.8821 34.4212 27.6762 35.2369C27.4703 36.0526 26.9911 36.773 26.3184 37.2782C25.6457 37.7833 24.8202 38.0426 23.9795 38.0129C23.1387 37.9832 22.3336 37.6663 21.6982 37.1149C21.0629 36.5635 20.6357 35.811 20.4879 34.9829C20.3401 34.1547 20.4805 33.3009 20.8859 32.5638C21.2913 31.8266 21.9371 31.2507 22.7156 30.932V17.7564C22.2664 17.5723 21.8581 17.3012 21.5143 16.9586C21.1704 16.616 20.8978 16.2087 20.7122 15.7602C20.5265 15.3116 20.4315 14.8308 20.4327 14.3454C20.4338 13.86 20.531 13.3796 20.7187 12.932L15.2737 7.48885L0.905614 21.8589C0.325797 22.4387 6.10352e-05 23.2251 6.10352e-05 24.0451C6.10352e-05 24.8651 0.325797 25.6515 0.905614 26.2314L21.8625 47.1882C22.4423 47.768 23.2287 48.0938 24.0487 48.0938C24.8687 48.0938 25.6552 47.768 26.235 47.1882L47.0944 26.3289C47.6743 25.7487 48.0001 24.962 48.0001 24.1417C48.0001 23.3214 47.6743 22.5346 47.0944 21.9545" fill="#F2E8EA"/>
</g>
<defs>
<clipPath id="clip0_102_489">
<rect width="48" height="48" fill="white" transform="translate(0 0.09375)"/>
</clipPath>
</defs>
</svg>
