<svg width="49" height="49" viewBox="0 0 49 49" fill="none" xmlns="http://www.w3.org/2000/svg">
<g clip-path="url(#clip0_102_489)">
<path d="M47.4723 21.9564L26.5154 0.997603C25.9357 0.41836 25.1496 0.0929871 24.3301 0.0929871C23.5106 0.0929871 22.7246 0.41836 22.1448 0.997603L17.7929 5.3476L23.3129 10.8695C23.9639 10.6474 24.6642 10.6127 25.334 10.7695C26.0038 10.9262 26.616 11.2681 27.1008 11.756C27.5856 12.2439 27.9235 12.8583 28.0759 13.5291C28.2284 14.1998 28.1892 14.8999 27.9629 15.5495L33.2823 20.8707C34.0774 20.5974 34.9422 20.6048 35.7325 20.8917C36.5228 21.1786 37.1909 21.7278 37.6254 22.4475C38.06 23.1673 38.2347 24.0143 38.1205 24.8473C38.0063 25.6803 37.6101 26.449 36.9978 27.0252C36.3856 27.6015 35.5944 27.9505 34.756 28.0142C33.9176 28.0778 33.0828 27.8522 32.3906 27.375C31.6984 26.8977 31.1907 26.1977 30.952 25.3914C30.7134 24.5852 30.7583 23.7216 31.0792 22.9445L26.1179 17.9814V31.0389C26.872 31.4117 27.4755 32.0318 27.8279 32.7957C28.1802 33.5596 28.2601 34.4212 28.0542 35.2369C27.8483 36.0526 27.369 36.773 26.6963 37.2782C26.0236 37.7833 25.1981 38.0426 24.3574 38.0129C23.5167 37.9832 22.7115 37.6663 22.0762 37.1149C21.4408 36.5635 21.0136 35.811 20.8658 34.9829C20.718 34.1547 20.8585 33.3009 21.2639 32.5638C21.6692 31.8266 22.315 31.2507 23.0935 30.932V17.7564C22.6444 17.5723 22.2361 17.3012 21.8922 16.9586C21.5484 16.616 21.2757 16.2087 21.0901 15.7602C20.9045 15.3116 20.8095 14.8308 20.8106 14.3454C20.8117 13.86 20.9089 13.3796 21.0967 12.932L15.6517 7.48885L1.28354 21.8589C0.703727 22.4387 0.377991 23.2251 0.377991 24.0451C0.377991 24.8651 0.703727 25.6515 1.28354 26.2314L22.2404 47.1882C22.8203 47.768 23.6067 48.0938 24.4267 48.0938C25.2467 48.0938 26.0331 47.768 26.6129 47.1882L47.4723 26.3289C48.0522 25.7487 48.378 24.962 48.378 24.1417C48.378 23.3214 48.0522 22.5346 47.4723 21.9545" fill="#F2E8EA"/>
</g>
<defs>
<clipPath id="clip0_102_489">
<rect width="48" height="48" fill="white" transform="translate(0.37793 0.09375)"/>
</clipPath>
</defs>
</svg>
