<svg width="21" height="20" viewBox="0 0 21 20" fill="none" xmlns="http://www.w3.org/2000/svg">
<path d="M10.2532 0.00012207C4.59123 0.00012207 0 4.59055 0 10.2533C0 14.7834 2.93784 18.6268 7.01177 19.9826C7.52418 20.0775 7.71234 19.7601 7.71234 19.4893C7.71234 19.2448 7.70273 18.4371 7.6984 17.5804C4.84596 18.2006 4.24407 16.3707 4.24407 16.3707C3.77763 15.1855 3.10557 14.8703 3.10557 14.8703C2.17534 14.234 3.17574 14.2471 3.17574 14.2471C4.2053 14.3194 4.74743 15.3037 4.74743 15.3037C5.66196 16.8711 7.1461 16.418 7.73117 16.156C7.8232 15.4934 8.0889 15.041 8.38216 14.7849C6.10477 14.5257 3.71075 13.6465 3.71075 9.71783C3.71075 8.5984 4.11126 7.68371 4.76714 6.96567C4.66068 6.70742 4.30975 5.66465 4.86646 4.25228C4.86646 4.25228 5.72748 3.97673 7.68687 5.3033C8.50471 5.07613 9.38184 4.96223 10.2532 4.9583C11.1245 4.96223 12.0024 5.07605 12.8218 5.3033C14.7787 3.97681 15.6386 4.25236 15.6386 4.25236C16.1966 5.66457 15.8455 6.7075 15.7391 6.96567C16.3965 7.68371 16.7943 8.5984 16.7943 9.71783C16.7943 13.6559 14.3957 14.523 12.1125 14.7769C12.4803 15.095 12.808 15.719 12.808 16.6756C12.808 18.0474 12.7961 19.1516 12.7961 19.4893C12.7961 19.7622 12.9807 20.0819 13.5004 19.9811C17.5721 18.6239 20.5062 14.782 20.5062 10.2534C20.5062 4.59055 15.9156 0.00012207 10.2532 0.00012207ZM3.84019 14.606C3.8176 14.6569 3.73742 14.6722 3.66445 14.6372C3.59003 14.6038 3.5483 14.5344 3.57233 14.4833C3.59444 14.4308 3.67478 14.4162 3.74895 14.4513C3.82345 14.4848 3.8659 14.5549 3.84019 14.606ZM4.34452 15.056C4.29565 15.1014 4.20001 15.0803 4.13513 15.0087C4.06808 14.9372 4.05551 14.8416 4.10509 14.7956C4.15555 14.7503 4.24823 14.7715 4.31544 14.8429C4.38256 14.9153 4.39554 15.0102 4.34452 15.056ZM4.69056 15.6318C4.62768 15.6754 4.52499 15.6345 4.46146 15.5434C4.39866 15.4522 4.39866 15.3429 4.46283 15.299C4.52651 15.2552 4.62768 15.2946 4.692 15.3852C4.75464 15.4778 4.75464 15.5872 4.69048 15.6319L4.69056 15.6318ZM5.27563 16.2986C5.21947 16.3606 5.09972 16.344 5.01209 16.2594C4.92245 16.1767 4.89754 16.0595 4.95393 15.9975C5.01081 15.9353 5.1312 15.9528 5.21947 16.0367C5.30839 16.1192 5.33562 16.2374 5.27563 16.2986ZM6.03195 16.5237C6.00712 16.6041 5.89177 16.6406 5.77571 16.6065C5.65972 16.5713 5.58386 16.4773 5.60725 16.3961C5.63136 16.3152 5.74719 16.2773 5.86414 16.3138C5.97997 16.3487 6.05606 16.442 6.03195 16.5237ZM6.89257 16.6193C6.89546 16.7038 6.79701 16.7739 6.6751 16.7755C6.55254 16.7782 6.45329 16.7098 6.45193 16.6265C6.45193 16.5412 6.54821 16.4717 6.67085 16.4697C6.79277 16.4673 6.89257 16.5352 6.89257 16.6193ZM7.73805 16.5869C7.75263 16.6694 7.66796 16.7541 7.54685 16.7767C7.4279 16.7984 7.31768 16.7475 7.30254 16.6657C7.2878 16.5811 7.37407 16.4963 7.49286 16.4745C7.61414 16.4534 7.72259 16.503 7.73805 16.5869Z" fill="#F2E8EA"/>
</svg>
