<svg width="20" height="20" viewBox="0 0 20 20" fill="none" xmlns="http://www.w3.org/2000/svg">
<path d="M10 1.802C12.6701 1.802 12.9863 1.81215 14.0408 1.8602C15.0158 1.90473 15.5453 2.06762 15.8977 2.20458C16.3645 2.38598 16.6976 2.6027 17.0475 2.95262C17.3975 3.30254 17.6141 3.63567 17.7955 4.10239C17.9325 4.45481 18.0954 4.98434 18.1399 5.95926C18.188 7.01379 18.1981 7.33004 18.1981 10.0001C18.1981 12.6703 18.188 12.9865 18.1399 14.041C18.0954 15.016 17.9325 15.5454 17.7955 15.8979C17.6141 16.3646 17.3974 16.6978 17.0475 17.0477C16.6976 17.3976 16.3645 17.6143 15.8977 17.7957C15.5453 17.9326 15.0158 18.0956 14.0408 18.14C12.9865 18.1882 12.6702 18.1983 10 18.1983C7.32969 18.1983 7.01344 18.1882 5.95914 18.14C4.98414 18.0955 4.45469 17.9326 4.10227 17.7957C3.63555 17.6143 3.30234 17.3976 2.95242 17.0477C2.6025 16.6977 2.38578 16.3646 2.20445 15.8979C2.0675 15.5455 1.90453 15.016 1.86008 14.041C1.81195 12.9865 1.8018 12.6703 1.8018 10.0001C1.8018 7.33004 1.81195 7.01379 1.86008 5.95934C1.90461 4.98434 2.0675 4.45481 2.20445 4.10239C2.38578 3.63567 2.6025 3.30254 2.95242 2.95262C3.30242 2.60262 3.63555 2.38598 4.10227 2.20458C4.45461 2.06762 4.98414 1.90473 5.95914 1.8602C7.01359 1.81215 7.32984 1.802 10 1.802ZM10 0.00012207C7.28414 0.00012207 6.94359 0.0116064 5.87703 0.0602783C4.81258 0.108872 4.08562 0.277935 3.44961 0.525122C2.79195 0.780669 2.2343 1.12262 1.67836 1.67856C1.12242 2.2345 0.780547 2.79215 0.525 3.44973C0.277734 4.08582 0.10875 4.81278 0.0601562 5.87715C0.0114844 6.94372 0 7.28426 0 10.0001C0 12.716 0.0114844 13.0565 0.0601562 14.1231C0.10875 15.1875 0.277734 15.9145 0.525 16.5505C0.780469 17.2081 1.12242 17.7658 1.67836 18.3218C2.2343 18.8777 2.79195 19.2196 3.44961 19.4751C4.0857 19.7224 4.81258 19.8914 5.87695 19.94C6.94359 19.9886 7.28414 20.0001 10 20.0001C12.7159 20.0001 13.0564 19.9886 14.123 19.94C15.1873 19.8914 15.9143 19.7224 16.5503 19.4751C17.208 19.2197 17.7656 18.8777 18.3216 18.3218C18.8775 17.7658 19.2195 17.2082 19.475 16.5505C19.7222 15.9144 19.8913 15.1875 19.9398 14.1232C19.9885 13.0565 20 12.716 20 10.0001C20 7.28426 19.9885 6.94372 19.9398 5.87715C19.8913 4.81278 19.7222 4.08582 19.475 3.44981C19.2195 2.79215 18.8775 2.2345 18.3216 1.67856C17.7656 1.12262 17.208 0.780591 16.5504 0.525122C15.9143 0.277935 15.1873 0.108872 14.123 0.0602783C13.0564 0.0116064 12.7159 0.00012207 10 0.00012207ZM10 4.86497C7.16391 4.86497 4.86484 7.16418 4.86484 10.0001C4.86484 12.8362 7.16391 15.1353 10 15.1353C12.836 15.1353 15.1352 12.8362 15.1352 10.0001C15.1352 7.16411 12.836 4.86497 10 4.86497ZM10 13.3335C8.15906 13.3335 6.66664 11.8411 6.66664 10.0001C6.66664 8.15918 8.15906 6.66676 10 6.66676C11.8409 6.66676 13.3334 8.15918 13.3334 10.0001C13.3334 11.8411 11.8409 13.3335 10 13.3335ZM16.538 4.66208C16.538 5.32489 16.0008 5.86207 15.338 5.86207C14.6752 5.86207 14.138 5.32489 14.138 4.66208C14.138 3.99934 14.6752 3.46208 15.338 3.46208C16.0008 3.46208 16.538 3.99934 16.538 4.66208Z" fill="#F2E8EA"/>
</svg>
