<svg width="48" height="48" viewBox="0 0 48 48" fill="none" xmlns="http://www.w3.org/2000/svg">
<g clip-path="url(#clip0_102_482)">
<path d="M0 0H48V48H0V0Z" fill="#F2E8EA"/>
<path d="M44.0715 36.5521C43.7201 34.362 42.292 32.5232 38.0624 30.8076C36.5932 30.1323 34.9551 29.6487 34.4669 28.5354C34.2935 27.8875 34.2707 27.5224 34.3802 27.1301C34.6951 25.857 36.2144 25.4601 37.419 25.8251C38.1947 26.0852 38.9293 26.6829 39.3719 27.6365C41.4433 26.2951 41.4388 26.3042 42.8852 25.3826C42.3559 24.5613 42.073 24.1825 41.7262 23.8312C40.4806 22.4396 38.7833 21.7233 36.0684 21.778C35.5985 21.8373 35.124 21.9012 34.654 21.9605C33.2989 22.3027 32.0076 23.0145 31.2502 23.9681C28.9779 26.5461 29.6259 31.0586 32.3909 32.9156C35.1148 34.9598 39.1163 35.4252 39.6274 37.3369C40.1247 39.6776 37.9073 40.435 35.7034 40.1658C34.0791 39.8282 33.1757 39.0023 32.1992 37.5012C30.4016 38.5415 30.4016 38.5415 28.5537 39.6046C28.9917 40.5628 29.4525 40.9963 30.1871 41.8267C33.6639 45.3537 42.365 45.1803 43.9255 39.8419C43.9893 39.6593 44.4092 38.4365 44.0715 36.5521ZM26.0943 22.0608H21.6046C21.6046 25.9392 21.5864 29.7901 21.5864 33.6685C21.5864 36.1369 21.7141 38.4 21.3126 39.0935C20.6556 40.4578 18.9537 40.289 18.178 40.0243C17.3886 39.6365 16.9871 39.0844 16.5217 38.3042C16.394 38.0806 16.2981 37.9072 16.2662 37.8935C15.048 38.6373 13.8342 39.3855 12.616 40.1293C13.2229 41.3749 14.1171 42.4563 15.2624 43.1589C16.9734 44.1855 19.273 44.5003 21.6776 43.9483C23.2426 43.492 24.5932 42.5475 25.3004 41.1103C26.3224 39.2259 26.1034 36.9445 26.0943 34.4213C26.1171 30.3057 26.0943 26.1901 26.0943 22.0608Z" fill="#0A0B04"/>
</g>
<defs>
<clipPath id="clip0_102_482">
<rect width="48" height="48" fill="white"/>
</clipPath>
</defs>
</svg>
