<svg width="21" height="20" viewBox="0 0 21 20" fill="none" xmlns="http://www.w3.org/2000/svg">
<path d="M17.5472 17.0412H14.5838V12.4004C14.5838 11.2937 14.564 9.86911 13.0426 9.86911C11.4991 9.86911 11.2629 11.0749 11.2629 12.3198V17.0409H8.29966V7.49747H11.1444V8.80169H11.1843C11.469 8.3149 11.8804 7.91443 12.3747 7.64295C12.8689 7.37147 13.4276 7.23914 13.9911 7.26005C16.9947 7.26005 17.5484 9.23567 17.5484 11.8058L17.5472 17.0412ZM4.95591 6.19302C4.00615 6.19317 3.23607 5.42333 3.23591 4.47357C3.23576 3.5238 4.00552 2.75372 4.95529 2.75357C5.90505 2.75333 6.67513 3.52317 6.67529 4.47294C6.67537 4.92904 6.49427 5.36649 6.17183 5.68906C5.84939 6.01164 5.41201 6.19291 4.95591 6.19302ZM6.43763 17.0413H3.47115V7.49747H6.43755V17.0412L6.43763 17.0413ZM19.0245 0.00145562H1.98208C1.17662 -0.00760688 0.516069 0.637627 0.506226 1.4431V18.5566C0.515757 19.3625 1.17623 20.0083 1.98201 19.9999H19.0245C19.832 20.0099 20.4951 19.364 20.5062 18.5566V1.44177C20.4947 0.634737 19.8316 -0.0104194 19.0245 0.000127492" fill="#F2E8EA"/>
</svg>
