<svg width="48" height="48" viewBox="0 0 48 48" fill="none" xmlns="http://www.w3.org/2000/svg">
<g clip-path="url(#clip0_1194_1184)">
<mask id="mask0_1194_1184" style="mask-type:alpha" maskUnits="userSpaceOnUse" x="0" y="0" width="48" height="48">
<path d="M24 48C37.2548 48 48 37.2548 48 24C48 10.7452 37.2548 0 24 0C10.7452 0 0 10.7452 0 24C0 37.2548 10.7452 48 24 48Z" fill="black"/>
</mask>
<g mask="url(#mask0_1194_1184)">
<path d="M24 47.2C36.813 47.2 47.2 36.813 47.2 24C47.2 11.187 36.813 0.800018 24 0.800018C11.187 0.800018 0.799988 11.187 0.799988 24C0.799988 36.813 11.187 47.2 24 47.2Z" stroke="white" stroke-width="1.6"/>
<path d="M39.8688 42.0053L18.4379 14.4H14.4V33.592H17.6303V18.5023L37.3331 43.9587C38.2221 43.3637 39.0691 42.7107 39.8688 42.0053Z" fill="url(#paint0_linear_1194_1184)"/>
<path d="M33.8667 14.4H30.6667V33.6H33.8667V14.4Z" fill="url(#paint1_linear_1194_1184)"/>
</g>
</g>
<defs>
<linearGradient id="paint0_linear_1194_1184" x1="29.0667" y1="31.0667" x2="38.5333" y2="42.8" gradientUnits="userSpaceOnUse">
<stop stop-color="white"/>
<stop offset="1" stop-color="white" stop-opacity="0"/>
</linearGradient>
<linearGradient id="paint1_linear_1194_1184" x1="32.2667" y1="14.4" x2="32.2131" y2="28.5" gradientUnits="userSpaceOnUse">
<stop stop-color="white"/>
<stop offset="1" stop-color="white" stop-opacity="0"/>
</linearGradient>
<clipPath id="clip0_1194_1184">
<rect width="48" height="48" fill="white"/>
</clipPath>
</defs>
</svg>
