<svg width="43" height="48" viewBox="0 0 43 48" fill="none" xmlns="http://www.w3.org/2000/svg">
<g clip-path="url(#clip0_102_483)">
<path d="M21.2595 47.9111C20.5993 47.9111 19.9831 47.7351 19.4109 47.427L13.5568 43.9497C12.6765 43.4656 13.1166 43.2895 13.3807 43.2015C14.5691 42.8054 14.7891 42.7173 16.0215 42.013C16.1537 41.9249 16.3298 41.9689 16.4617 42.057L20.9514 44.742C21.1275 44.83 21.3475 44.83 21.4796 44.742L39.0419 34.5744C39.218 34.4864 39.306 34.3104 39.306 34.0903V13.7989C39.306 13.5788 39.218 13.4028 39.0419 13.3148L21.4796 3.19108C21.3035 3.10305 21.0835 3.10305 20.9514 3.19108L3.38907 13.3149C3.21301 13.403 3.12498 13.623 3.12498 13.7991V34.0903C3.12498 34.2663 3.21301 34.4864 3.38907 34.5744L8.18691 37.3473C10.7839 38.6677 12.4122 37.1272 12.4122 35.5868V15.5595C12.4122 15.2954 12.6325 15.0313 12.9406 15.0313H15.1854C15.4495 15.0313 15.7136 15.2514 15.7136 15.5595V35.5866C15.7136 39.0639 13.8208 41.0885 10.5196 41.0885C9.50732 41.0885 8.71507 41.0885 6.47037 39.9881L1.84858 37.3473C0.704221 36.6869 0 35.4546 0 34.1341V13.8431C0 12.5227 0.704221 11.2903 1.84858 10.6299L19.4109 0.462389C20.5113 -0.153804 22.0078 -0.153804 23.1081 0.462389L40.6704 10.6299C41.8148 11.2901 42.519 12.5225 42.519 13.8431V34.1343C42.519 35.4547 41.8148 36.6871 40.6704 37.3473L23.1081 47.5152C22.5359 47.7793 21.8757 47.9113 21.2595 47.9113V47.9111ZM26.6734 33.9581C18.9706 33.9581 17.3861 30.437 17.3861 27.4439C17.3861 27.1798 17.6062 26.9157 17.9143 26.9157H20.203C20.4671 26.9157 20.6873 27.0918 20.6873 27.3558C21.0394 29.6886 22.0518 30.8331 26.7174 30.8331C30.4147 30.8331 31.9994 29.9968 31.9994 28.0162C31.9994 26.8717 31.5593 26.0354 25.7931 25.4631C20.9954 24.9789 18.0023 23.9226 18.0023 20.0934C18.0023 16.5279 20.9953 14.4153 26.0132 14.4153C31.6471 14.4153 34.4202 16.3519 34.7723 20.5774C34.7723 20.7094 34.7282 20.8415 34.6402 20.9735C34.5522 21.0615 34.4202 21.1496 34.2881 21.1496H31.9994C31.7792 21.1496 31.5593 20.9735 31.5151 20.7534C30.9869 18.3327 29.6225 17.5404 26.0132 17.5404C21.9639 17.5404 21.4796 18.9489 21.4796 20.0052C21.4796 21.2818 22.0518 21.6777 27.5096 22.3819C32.9237 23.0862 35.4765 24.0987 35.4765 27.884C35.4325 31.7574 32.2635 33.9581 26.6734 33.9581Z" fill="#F2E8EA"/>
</g>
<defs>
<clipPath id="clip0_102_483">
<rect width="42.519" height="48" fill="white"/>
</clipPath>
</defs>
</svg>
