<svg xmlns="http://www.w3.org/2000/svg" width="48" height="49" fill="none" viewBox="0 0 48 49"><g clip-path="url(#clip0_102_490)"><path fill="var(--text)" d="M47.804 27.141C49.484 13.991 40.197 1.97 27.07.291 13.946-1.39 1.876 7.896.196 21.021S7.803 46.194 20.93 47.897c13.15 1.68 25.171-7.606 26.875-20.756"/><path fill="var(--background)" d="M32.663 15.503 22.536 25.63l-2.855-2.856c9.958-9.958 10.942-9.094 12.982-7.27"/><path fill="var(--text)" d="M22.536 25.87a.22.22 0 0 1-.168-.073l-2.88-2.855a.23.23 0 0 1 0-.336c10.127-10.126 11.183-9.166 13.319-7.247a.22.22 0 0 1 .071.168c0 .072-.024.12-.072.168L22.68 25.797c-.024.048-.096.072-.144.072m-2.52-3.096 2.52 2.52 9.767-9.767c-1.776-1.583-2.976-2.064-12.286 7.247"/><path fill="var(--background)" d="m25.44 28.533-2.76-2.76 10.127-10.126c2.71 2.736-1.344 7.175-7.367 12.886"/><path fill="var(--text)" d="M25.44 28.773a.22.22 0 0 1-.168-.072l-2.76-2.76c-.048-.048-.048-.096-.048-.168s.024-.12.072-.167l10.127-10.127a.23.23 0 0 1 .335 0 2.92 2.92 0 0 1 .936 2.232c-.048 2.664-3.071 6.047-8.302 10.99a.4.4 0 0 1-.192.072m-2.424-3c1.536 1.56 2.184 2.184 2.424 2.424 4.031-3.84 7.942-7.774 7.966-10.486.024-.624-.216-1.248-.623-1.728z"/><path fill="var(--background)" d="m19.729 22.846 2.04 2.04q.07.072 0 .144c-.025.024-.025.024-.049.024l-4.223.911a.42.42 0 0 1-.456-.335.36.36 0 0 1 .096-.312l2.448-2.448c.048-.048.12-.072.144-.024"/><path fill="var(--text)" d="M17.425 26.205c-.36 0-.624-.288-.624-.647 0-.168.072-.336.192-.456l2.448-2.448a.365.365 0 0 1 .48 0l2.04 2.04c.143.12.143.336 0 .48a.4.4 0 0 1-.169.096l-4.223.911c-.048 0-.096.024-.144.024m2.232-3.095-2.352 2.352c-.048.048-.072.12-.024.192.024.071.096.095.168.071l3.96-.863z"/><path fill="var(--background)" d="M38.014 9.888c-1.536-1.487-4.008-1.44-5.495.12a3.875 3.875 0 0 0 .12 5.495 3.88 3.88 0 0 0 4.703.528l-2.736-2.735z"/><path fill="var(--text)" d="M35.326 16.823a4.127 4.127 0 1 1 0-8.254c1.056 0 2.088.408 2.856 1.151a.22.22 0 0 1 .071.168c0 .072-.024.12-.072.168l-3.24 3.24 2.545 2.543a.23.23 0 0 1 0 .336l-.048.048c-.624.384-1.368.6-2.112.6m0-7.75a3.61 3.61 0 0 0-3.623 3.647 3.61 3.61 0 0 0 3.647 3.623c.552 0 1.104-.12 1.608-.384l-2.52-2.495a.22.22 0 0 1-.072-.168c0-.072.024-.12.072-.168l3.216-3.216a3.56 3.56 0 0 0-2.328-.84"/><path fill="var(--background)" d="m38.085 9.96-.047-.048-3.432 3.384 2.712 2.711a4.4 4.4 0 0 0 .743-.576 3.846 3.846 0 0 0 .024-5.47"/><path fill="var(--text)" d="M37.342 16.271a.22.22 0 0 1-.168-.072l-2.736-2.735a.22.22 0 0 1-.072-.168c0-.072.024-.12.072-.168l3.408-3.408a.23.23 0 0 1 .335 0l.072.048c1.608 1.608 1.608 4.2.024 5.831-.24.24-.503.456-.791.624-.072.024-.12.048-.144.048m-2.4-2.975 2.424 2.423c.192-.12.384-.288.528-.432 1.367-1.367 1.44-3.599.12-5.039z"/><path fill="var(--background)" d="M33.07 15.935a1.477 1.477 0 0 0-2.087 0l-9.047 9.047 1.512 1.511 9.574-8.398c.624-.528.672-1.464.144-2.088a.3.3 0 0 1-.096-.072"/><path fill="var(--text)" d="M23.424 26.733a.22.22 0 0 1-.168-.072l-1.512-1.511a.23.23 0 0 1 0-.336l9.047-9.047a1.71 1.71 0 0 1 2.423 0 1.71 1.71 0 0 1 0 2.424l-.072.072-9.574 8.398q-.036.072-.144.072m-1.152-1.751 1.176 1.175 9.406-8.254c.528-.432.576-1.224.144-1.752s-1.223-.576-1.751-.144c-.024.024-.048.048-.096.072z"/><path fill="var(--background)" d="M15.002 35.276c-.096.048-.144.144-.12.24l.408 1.727a.46.46 0 0 1-.312.6.48.48 0 0 1-.528-.144l-2.64-2.615 8.615-8.615 2.975.048 2.016 2.016c-.48.408-3.384 3.215-10.414 6.743"/><path fill="var(--text)" d="M14.81 38.083a.65.65 0 0 1-.504-.216l-2.616-2.615a.22.22 0 0 1-.072-.168c0-.072.024-.12.072-.168l8.615-8.615a.26.26 0 0 1 .168-.072l2.975.048c.072 0 .12.024.168.072l2.016 2.016c.048.048.072.12.072.192s-.024.12-.096.168l-.168.144c-2.544 2.231-6 4.463-10.294 6.599l.407 1.703a.76.76 0 0 1-.36.816.8.8 0 0 1-.383.096m-2.64-3 2.472 2.448c.072.12.216.168.336.096s.168-.216.096-.336l-.408-1.727a.44.44 0 0 1 .24-.504c4.247-2.136 7.678-4.343 10.198-6.527l-1.776-1.776-2.76-.048z"/><path fill="var(--background)" d="m9.77 37.148 2.064-2.064 3.072 3.071-4.896-.336a.38.38 0 0 1-.335-.432c0-.096.024-.191.096-.24"/><path fill="var(--text)" d="m14.906 38.371-4.92-.336c-.36-.024-.6-.336-.575-.696.024-.144.072-.288.192-.383l2.063-2.064a.233.233 0 0 1 .336 0l3.071 3.071c.073.072.096.168.049.264q-.072.144-.216.144m-3.072-2.951L9.94 37.315c-.072.048-.072.168 0 .216.023.024.047.048.095.048l4.248.288zm7.75-7.847a.24.24 0 0 1-.24-.24c0-.072.025-.12.073-.168l2.327-2.327a.23.23 0 0 1 .336 0l1.512 1.511c.072.072.096.144.072.24a.27.27 0 0 1-.192.168l-3.84.816zm2.328-2.231-1.583 1.583 2.591-.552z"/><path fill="var(--background)" d="m23.4 26.517-2.64.576a.357.357 0 0 1-.335-.6l1.463-1.463z"/><path fill="var(--text)" d="M20.713 27.333a.594.594 0 0 1-.6-.6.7.7 0 0 1 .168-.432l1.463-1.463a.233.233 0 0 1 .336 0l1.512 1.511c.072.072.096.144.072.24a.27.27 0 0 1-.192.168l-2.64.576zm1.2-1.991-1.296 1.295c-.048.048-.048.096-.024.144q.036.072.144.072l2.207-.48zm16.196-13.078c-.048-.144-.215-.216-.36-.168-.143.048-.215.216-.167.36 0 .024.024.048.024.072.144.288.096.648-.096.912a.29.29 0 0 0 .024.384.27.27 0 0 0 .384-.048c.36-.456.431-1.032.191-1.512"/></g><defs><clipPath id="clip0_102_490"><path fill="#fff" d="M0 .094h48v48H0z"/></clipPath></defs></svg>