<svg width="49" height="49" viewBox="0 0 49 49" fill="none" xmlns="http://www.w3.org/2000/svg">
<g clip-path="url(#clip0_102_490)">
<path d="M48.1816 27.1412C49.8614 13.9916 40.5749 1.96969 27.4494 0.290062C14.3238 -1.38975 2.25387 7.89675 0.574242 21.0223C-1.10557 34.1479 8.18093 46.1938 21.3065 47.8974C34.4561 49.5773 46.478 40.2907 48.1816 27.1412Z" fill="#F2E8EA"/>
<path d="M33.0404 15.5032L22.9141 25.6296L20.0587 22.7739C30.0168 12.8158 31.0008 13.6796 33.0404 15.5032Z" fill="#0A0B04"/>
<path d="M22.9141 25.8694C22.8421 25.8694 22.7941 25.8454 22.7463 25.7974L19.8667 22.9419C19.8439 22.9203 19.8258 22.8942 19.8134 22.8653C19.801 22.8365 19.7946 22.8054 19.7946 22.7739C19.7946 22.7425 19.801 22.7114 19.8134 22.6825C19.8258 22.6537 19.8439 22.6276 19.8667 22.6059C29.993 12.4798 31.0488 13.4396 33.1844 15.3592C33.2322 15.4072 33.2562 15.4552 33.2562 15.5272C33.2562 15.5992 33.2322 15.6473 33.1844 15.6953L23.0581 25.7974C23.0341 25.8454 22.9621 25.8694 22.9141 25.8694ZM20.3947 22.7739L22.9141 25.2936L32.6804 15.5272C30.9048 13.9436 29.7048 13.4634 20.3947 22.7739Z" fill="#F2E8EA"/>
<path d="M25.8177 28.533L23.0581 25.7734L33.1844 15.6472C35.8957 18.3829 31.8406 22.8219 25.8175 28.533H25.8177Z" fill="#0A0B04"/>
<path d="M25.8178 28.773C25.7458 28.773 25.6978 28.749 25.6498 28.701L22.8901 25.9414C22.8421 25.8934 22.8421 25.8454 22.8421 25.7734C22.8421 25.7014 22.8661 25.6534 22.9141 25.6056L33.0404 15.4792C33.0621 15.4565 33.0882 15.4384 33.117 15.4261C33.1459 15.4137 33.177 15.4073 33.2084 15.4073C33.2398 15.4073 33.2708 15.4137 33.2997 15.4261C33.3285 15.4384 33.3546 15.4565 33.3763 15.4792C33.6826 15.7628 33.9247 16.1087 34.0861 16.4936C34.2475 16.8786 34.3246 17.2936 34.3121 17.7109C34.2641 20.3745 31.2408 23.7577 26.0096 28.701C25.9378 28.749 25.8658 28.773 25.8178 28.773ZM23.3941 25.7734C24.9298 27.3332 25.5778 27.957 25.8178 28.197C29.849 24.3577 33.7603 20.4225 33.7843 17.7109C33.8083 17.0871 33.5683 16.4631 33.1604 15.9832L23.3941 25.7734Z" fill="#F2E8EA"/>
<path d="M20.1067 22.8459L22.1463 24.8856C22.1943 24.9336 22.1943 24.9816 22.1463 25.0296C22.1223 25.0536 22.1223 25.0536 22.0983 25.0536L17.875 25.9654C17.659 25.9894 17.4672 25.8454 17.4192 25.6296C17.3952 25.5096 17.4432 25.3896 17.5152 25.3176L19.9627 22.8699C20.0107 22.8219 20.0827 22.7979 20.1067 22.8459Z" fill="#0A0B04"/>
<path d="M17.803 26.2054C17.443 26.2054 17.1792 25.9174 17.1792 25.5576C17.1792 25.3896 17.2512 25.2216 17.3712 25.1016L19.8187 22.6539C19.9627 22.5339 20.1547 22.5339 20.2987 22.6539L22.3383 24.6936C22.4823 24.8136 22.4823 25.0296 22.3383 25.1736C22.2903 25.2216 22.2423 25.2456 22.1703 25.2696L17.947 26.1814C17.899 26.1814 17.851 26.2054 17.803 26.2054ZM20.0347 23.1097L17.683 25.4616C17.635 25.5096 17.6112 25.5816 17.659 25.6536C17.683 25.7254 17.755 25.7494 17.827 25.7254L21.7863 24.8616L20.0347 23.1097Z" fill="#F2E8EA"/>
<path d="M38.3915 9.88838C36.8557 8.40057 34.384 8.44857 32.8964 10.0084C31.4086 11.568 31.4566 14.0156 33.0164 15.5033C33.632 16.0982 34.4273 16.4726 35.278 16.5681C36.1288 16.6636 36.9872 16.4748 37.7195 16.0313L34.9838 13.2956L38.3915 9.88838Z" fill="#0A0B04"/>
<path d="M35.7039 16.8231C33.4243 16.8231 31.5766 14.9754 31.5766 12.6958C31.5766 10.4162 33.4243 8.56857 35.7039 8.56857C36.7597 8.56857 37.7915 8.97657 38.5595 9.72039C38.6073 9.76839 38.6313 9.81639 38.6313 9.88839C38.6313 9.96039 38.6073 10.0084 38.5593 10.0562L35.3199 13.2956L37.8635 15.8393C37.9595 15.9353 37.9595 16.0793 37.8635 16.1753L37.8155 16.2233C37.1917 16.6071 36.4477 16.8231 35.7039 16.8231ZM35.7039 9.07239C33.6883 9.07239 32.0566 10.7042 32.0806 12.7198C32.0806 14.7354 33.7123 16.3671 35.7279 16.3431C36.2799 16.3431 36.8317 16.2231 37.3357 15.9593L34.8161 13.4636C34.7681 13.4156 34.7441 13.3676 34.7441 13.2956C34.7441 13.2236 34.7681 13.1756 34.8161 13.1278L38.0315 9.9122C37.3835 9.36039 36.5677 9.07239 35.7039 9.07239Z" fill="#F2E8EA"/>
<path d="M38.4633 9.96038L38.4155 9.91238L34.984 13.2956L37.6955 16.0073C37.9595 15.8393 38.2235 15.6473 38.4393 15.4313C38.8028 15.0752 39.0921 14.6505 39.2903 14.1818C39.4885 13.7131 39.5917 13.2097 39.5939 12.7008C39.5962 12.192 39.4974 11.6877 39.3033 11.2173C39.1092 10.7469 38.8237 10.3196 38.4633 9.96038Z" fill="#0A0B04"/>
<path d="M37.7195 16.2712C37.6475 16.2712 37.5995 16.2472 37.5515 16.1992L34.816 13.4636C34.768 13.4156 34.744 13.3676 34.744 13.2956C34.744 13.2236 34.768 13.1756 34.816 13.1278L38.2235 9.72037C38.2451 9.69764 38.2712 9.67954 38.3001 9.66718C38.3289 9.65481 38.36 9.64844 38.3914 9.64844C38.4228 9.64844 38.4539 9.65481 38.4827 9.66718C38.5116 9.67954 38.5376 9.69764 38.5593 9.72037L38.6313 9.76837C40.2391 11.376 40.2391 13.9676 38.6553 15.5992C38.4153 15.8392 38.1515 16.0552 37.8635 16.2232C37.7915 16.2472 37.7435 16.2712 37.7195 16.2712ZM35.3199 13.2956L37.7435 15.7192C37.9355 15.5992 38.1275 15.4312 38.2715 15.2872C39.6391 13.9196 39.7111 11.688 38.3915 10.2482L35.3199 13.2956Z" fill="#F2E8EA"/>
<path d="M33.4482 15.9352C33.1713 15.6587 32.7958 15.5034 32.4044 15.5034C32.013 15.5034 31.6376 15.6587 31.3606 15.9352L22.3143 24.9816L23.8261 26.4934L33.4002 18.0949C34.0242 17.5669 34.0722 16.6311 33.5442 16.0072C33.4962 15.9832 33.4722 15.9592 33.4482 15.9352Z" fill="#0A0B04"/>
<path d="M23.8021 26.7332C23.7301 26.7332 23.6821 26.7092 23.6341 26.6614L22.1223 25.1496C22.0996 25.1279 22.0814 25.1018 22.0691 25.0729C22.0567 25.0441 22.0503 25.013 22.0503 24.9816C22.0503 24.9501 22.0567 24.919 22.0691 24.8902C22.0814 24.8613 22.0996 24.8352 22.1223 24.8136L31.1686 15.7672C31.3275 15.6075 31.5163 15.4808 31.7242 15.3943C31.9322 15.3079 32.1552 15.2633 32.3804 15.2633C32.6057 15.2633 32.8287 15.3079 33.0366 15.3943C33.2446 15.4808 33.4334 15.6075 33.5923 15.7672C33.752 15.9261 33.8787 16.1149 33.9652 16.3229C34.0516 16.5308 34.0962 16.7538 34.0962 16.9791C34.0962 17.2043 34.0516 17.4273 33.9652 17.6353C33.8787 17.8432 33.752 18.032 33.5923 18.1909L33.5203 18.2629L23.9459 26.6614C23.9219 26.7092 23.8739 26.7332 23.8021 26.7332ZM22.6503 24.9816L23.8259 26.1574L33.2323 17.9029C33.7603 17.4709 33.8083 16.6791 33.3763 16.1512C32.9444 15.6232 32.1526 15.5752 31.6246 16.0072C31.6006 16.0312 31.5766 16.0552 31.5286 16.0792L22.6503 24.9816Z" fill="#F2E8EA"/>
<path d="M15.3796 35.2757C15.2836 35.3237 15.2356 35.4197 15.2596 35.5157L15.6674 37.2433C15.7634 37.4833 15.6194 37.7713 15.3556 37.8433C15.1636 37.9153 14.9476 37.8433 14.8276 37.6993L12.1882 35.0837L20.8025 26.4694L23.7781 26.5174L25.7937 28.533C25.3137 28.9408 22.4103 31.7484 15.3796 35.2757Z" fill="#0A0B04"/>
<path d="M15.1876 38.0831C14.9956 38.0831 14.8036 38.0113 14.6836 37.8673L12.068 35.2517C12.0202 35.2037 11.9962 35.1557 11.9962 35.0837C11.9962 35.0119 12.0202 34.9637 12.0682 34.9159L20.6827 26.3014C20.7307 26.2534 20.8027 26.2294 20.8505 26.2294L23.8261 26.2774C23.8979 26.2774 23.9461 26.3014 23.9939 26.3494L26.0096 28.365C26.0576 28.413 26.0816 28.485 26.0816 28.557C26.0816 28.629 26.0576 28.677 25.9856 28.725L25.8177 28.8688C23.2741 31.1004 19.8187 33.3321 15.5236 35.4677L15.9314 37.1713C16.0034 37.4833 15.8594 37.8193 15.5714 37.9873C15.4276 38.0593 15.3076 38.0831 15.1876 38.0831ZM12.548 35.0837L15.0196 37.5313C15.0916 37.6513 15.2356 37.6993 15.3556 37.6273C15.4756 37.5553 15.5236 37.4113 15.4516 37.2913L15.0436 35.5637C14.9956 35.3477 15.0916 35.1557 15.2836 35.0597C19.5309 32.9241 22.9621 30.7166 25.4817 28.5328L23.7061 26.7572L20.9465 26.7092L12.548 35.0837Z" fill="#F2E8EA"/>
<path d="M10.1485 37.1475L12.2122 35.0837L15.2834 38.1551L10.3884 37.8193C10.1725 37.7953 10.0284 37.6033 10.0525 37.3873C10.0525 37.2913 10.0765 37.1955 10.1485 37.1475Z" fill="#0A0B04"/>
<path d="M15.2836 38.3711L10.3644 38.0353C10.0044 38.0113 9.76455 37.6993 9.78855 37.3393C9.81255 37.1953 9.86055 37.0515 9.98055 36.9555L12.0442 34.8919C12.0658 34.8691 12.0919 34.851 12.1208 34.8386C12.1497 34.8262 12.1808 34.8198 12.2122 34.8198C12.2436 34.8198 12.2747 34.8262 12.3036 34.8386C12.3324 34.851 12.3585 34.8691 12.3802 34.8919L15.4514 37.9631C15.5236 38.0353 15.5474 38.1313 15.4996 38.2271C15.4516 38.3231 15.3796 38.3711 15.2836 38.3711ZM12.2122 35.4199L10.3165 37.3155C10.2445 37.3633 10.2445 37.4833 10.3165 37.5313C10.3404 37.5553 10.3644 37.5793 10.4124 37.5793L14.6596 37.8673L12.2122 35.4197V35.4199ZM19.9627 27.5732C19.8187 27.5732 19.7227 27.4532 19.7227 27.3332C19.7227 27.2612 19.7467 27.2132 19.7947 27.1652L22.1223 24.8376C22.144 24.8148 22.17 24.7967 22.1989 24.7843C22.2278 24.7719 22.2589 24.7655 22.2903 24.7655C22.3217 24.7655 22.3528 24.7719 22.3817 24.7843C22.4106 24.7967 22.4366 24.8148 22.4583 24.8376L23.9699 26.3494C24.0419 26.4214 24.0659 26.4934 24.0419 26.5894C24.0179 26.6614 23.9459 26.7332 23.8501 26.7572L20.0107 27.5732H19.9627ZM22.2903 25.3416L20.7067 26.9252L23.2981 26.3734L22.2903 25.3416Z" fill="#F2E8EA"/>
<path d="M23.7779 26.5174L21.1385 27.0932C20.9465 27.1412 20.7545 27.0212 20.7067 26.8292C20.6827 26.7092 20.7067 26.5892 20.8025 26.4934L22.2663 25.0296L23.7779 26.5174Z" fill="#0A0B04"/>
<path d="M21.0905 27.3332C21.0115 27.334 20.9331 27.319 20.86 27.2891C20.7868 27.2593 20.7203 27.2151 20.6645 27.1592C20.6086 27.1034 20.5644 27.0369 20.5345 26.9637C20.5047 26.8906 20.4897 26.8122 20.4905 26.7332C20.4905 26.5654 20.5627 26.4214 20.6587 26.3014L22.1223 24.8375C22.144 24.8148 22.17 24.7967 22.1989 24.7843C22.2278 24.7719 22.2589 24.7655 22.2903 24.7655C22.3217 24.7655 22.3528 24.7719 22.3817 24.7843C22.4106 24.7967 22.4367 24.8148 22.4583 24.8375L23.9699 26.3494C24.0419 26.4214 24.0659 26.4934 24.0419 26.5894C24.0179 26.6614 23.9459 26.7332 23.8501 26.7572L21.2105 27.3332H21.0905ZM22.2903 25.3416L20.9947 26.6372C20.9465 26.6854 20.9465 26.7332 20.9705 26.7812C20.9945 26.8292 21.0425 26.8532 21.1145 26.8532L23.3221 26.3732L22.2903 25.3416ZM38.4873 12.2638C38.4393 12.12 38.2715 12.048 38.1273 12.096C37.9835 12.1438 37.9115 12.3118 37.9595 12.456C37.9595 12.4798 37.9835 12.5038 37.9835 12.5278C38.1275 12.8158 38.0795 13.1756 37.8875 13.4396C37.7915 13.5596 37.8155 13.7276 37.9115 13.8236C38.0315 13.9196 38.1995 13.8956 38.2955 13.7756C38.6555 13.3196 38.7273 12.7438 38.4873 12.2638Z" fill="#F2E8EA"/>
</g>
<defs>
<clipPath id="clip0_102_490">
<rect width="48" height="48" fill="white" transform="translate(0.37793 0.09375)"/>
</clipPath>
</defs>
</svg>
