<svg xmlns="http://www.w3.org/2000/svg" width="49" height="48" fill="none" viewBox="0 0 49 48"><g clip-path="url(#clip0_1196_1440)"><path fill="var(--text)" d="M39.535 0h-29.07A9.465 9.465 0 0 0 1 9.465v29.07A9.465 9.465 0 0 0 10.465 48h29.07A9.465 9.465 0 0 0 49 38.535V9.465A9.465 9.465 0 0 0 39.535 0"/><path fill="var(--background)" d="M32.203 33.316c.22-1.827.154-2.095 1.515-1.8l.345.031c1.047.048 2.416-.168 3.22-.542 1.732-.803 2.759-2.145 1.052-1.792-3.895.803-4.162-.516-4.162-.516 4.112-6.101 5.83-13.847 4.347-15.743-4.047-5.17-11.053-2.726-11.17-2.662l-.037.007c-.77-.16-1.631-.255-2.598-.271-1.763-.03-3.1.462-4.114 1.231 0 0-12.498-5.149-11.916 6.475.123 2.473 3.544 18.711 7.624 13.806a75 75 0 0 1 2.932-3.31 3.78 3.78 0 0 0 2.471.631l.07-.059c-.022.223-.013.44.027.698-1.05 1.175-.742 1.38-2.843 1.813-2.126.438-.877 1.218-.062 1.422.989.248 3.276.598 4.822-1.565l-.062.246c.412.33.385 2.371.443 3.83.058 1.457.156 2.818.453 3.62.298.803.648 2.87 3.41 2.277 2.308-.493 4.072-1.205 4.233-7.827"/><path fill="var(--background)" d="M27.07 42.586c-1.22 0-2.016-.472-2.5-.928-.728-.688-1.018-1.575-1.19-2.104l-.075-.221c-.348-.94-.466-2.292-.536-4.033-.01-.261-.018-.53-.026-.816-.006-.21-.013-.471-.024-.745a5.3 5.3 0 0 1-1.388.438c-.86.147-1.787.1-2.752-.142-.68-.17-1.388-.523-1.792-1.068-1.175 1.03-2.297.89-2.907.686-1.078-.36-2.042-1.37-2.949-3.087-.646-1.224-1.27-2.818-1.856-4.739-1.021-3.345-1.67-6.868-1.728-8.025-.18-3.62.794-6.21 2.897-7.695 3.317-2.344 8.344-.966 10.176-.34 1.231-.742 2.68-1.103 4.317-1.077.879.014 1.716.091 2.493.23.811-.255 2.413-.621 4.247-.598 3.38.04 6.18 1.357 8.097 3.808 1.37 1.749.692 5.42.167 7.454-.739 2.86-2.033 5.902-3.624 8.55.432.003 1.058-.049 1.947-.232 1.755-.363 2.268.578 2.407 1 .559 1.69-1.867 2.967-2.624 3.318-.969.45-2.55.724-3.844.665l-.056-.004-.34-.03-.034.284-.032.277c-.087 3.356-.567 5.481-1.553 6.886-1.034 1.472-2.471 1.884-3.737 2.156a5.7 5.7 0 0 1-1.18.132M24.5 30.372c.789.63.858 1.818.92 4.037q.01.416.024.784c.03.74.1 2.476.372 3.21q.055.154.109.32c.303.928.454 1.393 1.764 1.113 1.1-.236 1.665-.447 2.108-1.077.642-.916 1.002-2.758 1.068-5.475l1.338.032-1.329-.16.04-.33c.127-1.094.219-1.884.95-2.407.586-.419 1.254-.378 1.786-.282-.584-.442-.746-.96-.79-1.173l-.11-.55.313-.465c1.806-2.68 3.295-5.972 4.086-9.035.813-3.147.565-4.818.317-5.134-3.28-4.192-8.97-2.46-9.563-2.265l-.1.055-.504.093-.258-.053c-.711-.148-1.5-.23-2.347-.243-1.33-.023-2.404.292-3.284.96l-.61.462-.709-.291c-1.513-.62-5.96-1.864-8.305-.202-1.303.922-1.896 2.73-1.764 5.372.044.872.636 4.175 1.614 7.378 1.351 4.426 2.58 5.896 3.092 6.067.09.03.322-.15.553-.428a76 76 0 0 1 2.99-3.376l.775-.815.937.622c.378.251.794.393 1.222.42l2.234-1.905-.324 3.303c-.007.074-.01.175.018.362l.098.626-.423.472-.049.055 1.228.566z"/><path fill="var(--background)" d="M38.335 29.213c-3.895.803-4.163-.516-4.163-.516 4.113-6.101 5.832-13.847 4.348-15.743-4.047-5.17-11.053-2.725-11.17-2.662l-.038.007c-.77-.16-1.63-.255-2.598-.27-1.763-.03-3.1.462-4.114 1.23 0 0-12.497-5.148-11.916 6.476.123 2.473 3.544 18.71 7.624 13.806a76 76 0 0 1 2.932-3.31 3.78 3.78 0 0 0 2.47.631l.07-.06c-.021.224-.011.441.029.7-1.052 1.174-.743 1.38-2.844 1.812-2.126.438-.877 1.218-.062 1.422.989.247 3.276.598 4.821-1.566l-.061.247c.412.33.7 2.146.652 3.792s-.08 2.776.244 3.659c.325.883.648 2.868 3.41 2.276 2.308-.494 3.504-1.776 3.67-3.914.119-1.52.386-1.295.403-2.654l.214-.643c.248-2.06.04-2.725 1.462-2.416l.345.03c1.047.047 2.416-.169 3.22-.542 1.732-.803 2.759-2.145 1.052-1.792"/><path fill="var(--text)" d="M27.21 41.762c-2.302 0-3.032-1.824-3.33-2.57-.437-1.092-.531-5.333-.434-8.81a.446.446 0 1 1 .892.025c-.112 4.01.047 7.645.37 8.454.505 1.261 1.27 2.364 3.434 1.9 2.054-.44 2.823-1.218 3.165-3.204.263-1.524.783-5.86.847-6.716a.446.446 0 1 1 .89.067c-.066.89-.584 5.218-.857 6.8-.404 2.346-1.45 3.41-3.858 3.927-.41.087-.78.126-1.119.127m-12.484-8.906c-.22 0-.419-.04-.592-.098-1.495-.499-2.92-2.935-4.234-7.24-1-3.277-1.634-6.698-1.69-7.81-.164-3.295.684-5.627 2.523-6.93 3.638-2.577 9.758-.123 10.017-.017a.446.446 0 0 1-.338.827c-.059-.024-5.927-2.376-9.165-.08-1.572 1.115-2.294 3.186-2.145 6.156.046.937.638 4.275 1.652 7.593 1.173 3.844 2.508 6.27 3.662 6.654.182.06.733.245 1.522-.704a69 69 0 0 1 2.86-3.223.446.446 0 0 1 .644.617 68 68 0 0 0-2.818 3.177c-.693.833-1.357 1.078-1.898 1.078m19.419-3.76a.445.445 0 0 1-.37-.696c4.157-6.169 5.616-13.622 4.366-15.22-1.573-2.01-3.794-3.059-6.601-3.12-2.08-.044-3.732.487-4.002.58l-.068.027a.447.447 0 0 1-.382-.804q.02-.012.12-.05c.459-.167 2.137-.67 4.214-.647 3.107.033 5.674 1.23 7.422 3.465.827 1.057.829 3.492.005 6.68-.84 3.252-2.42 6.746-4.334 9.588a.44.44 0 0 1-.37.196m.212 2.855c-.71 0-1.346-.1-1.727-.328-.392-.235-.466-.554-.476-.723-.107-1.877.929-2.203 1.457-2.352a6 6 0 0 0-.287-.378c-.308-.385-.73-.912-1.054-1.7-.051-.123-.21-.409-.395-.74-1.001-1.796-3.084-5.53-1.746-7.443.619-.886 1.852-1.234 3.67-1.04-.535-1.628-3.08-6.722-9.12-6.821-1.816-.03-3.306.528-4.425 1.659-2.506 2.53-2.416 7.11-2.414 7.156a.446.446 0 1 1-.892.023c-.006-.203-.1-5.009 2.672-7.808 1.297-1.31 3.004-1.956 5.074-1.922 3.864.063 6.35 2.028 7.756 3.664 1.533 1.784 2.284 3.751 2.346 4.408.046.488-.305.586-.375.6l-.161.004c-1.783-.286-2.927-.087-3.4.588-1.018 1.455.952 4.988 1.794 6.497.214.385.37.663.44.835.277.67.637 1.12.927 1.483.255.318.475.594.554.918.037.064.557.833 3.642.196.773-.16 1.237-.023 1.379.406.279.843-1.286 1.827-2.152 2.229-.776.36-2.015.589-3.087.589m-1.313-1.125c.098.1.587.27 1.602.226.901-.039 1.852-.235 2.423-.5.73-.339 1.217-.718 1.469-.976l-.14.025c-1.973.408-3.368.353-4.147-.161a2 2 0 0 1-.151-.112c-.085.033-.163.055-.218.07-.442.125-.9.253-.838 1.428M20.3 33.32c-.49 0-1.006-.067-1.533-.199-.546-.136-1.466-.547-1.452-1.222.016-.757 1.117-.984 1.532-1.07 1.498-.308 1.595-.432 2.063-1.026.136-.173.306-.389.538-.647.344-.385.72-.58 1.116-.58.277 0 .504.094.654.156.477.198.876.677 1.04 1.25.148.516.077 1.013-.199 1.4-.905 1.267-2.205 1.938-3.76 1.938m-2.02-1.383c.134.104.404.243.704.318.456.114.898.172 1.316.172 1.271 0 2.292-.526 3.034-1.564.154-.217.108-.492.066-.636-.086-.303-.302-.579-.523-.67a.9.9 0 0 0-.312-.088c-.05 0-.2 0-.452.282-.213.238-.366.433-.502.604-.582.74-.85.992-2.584 1.349-.423.087-.64.175-.747.233m3.431-2.058a.45.45 0 0 1-.44-.379 2 2 0 0 1-.023-.223c-1.136-.022-2.233-.51-3.066-1.378-1.053-1.099-1.532-2.62-1.314-4.175.236-1.689.148-3.179.1-3.98-.013-.222-.022-.383-.022-.495.001-.14.004-.515 1.256-1.15.445-.226 1.338-.62 2.313-.72 1.616-.167 2.68.552 3 2.026.86 3.98.068 5.74-.51 7.025-.108.24-.21.466-.291.685l-.072.193c-.306.82-.57 1.528-.49 2.057a.446.446 0 0 1-.373.508zm-3.87-10.506.018.319c.05.831.14 2.38-.107 4.156-.18 1.282.212 2.534 1.074 3.433.682.711 1.579 1.104 2.5 1.104h.02c.103-.435.274-.895.459-1.39l.071-.191c.092-.247.2-.487.314-.74.557-1.238 1.25-2.778.452-6.47-.158-.731-.542-1.155-1.172-1.294-1.294-.286-3.223.688-3.628 1.073m2.694-.19c-.022.158.289.58.695.636s.752-.273.774-.43c.022-.158-.289-.332-.695-.389s-.752.026-.774.184m.788.791-.114-.008a1.07 1.07 0 0 1-.68-.424c-.061-.081-.161-.239-.141-.379.028-.206.279-.33.67-.33q.133 0 .271.02c.215.03.413.092.56.173.255.143.273.301.262.383-.031.228-.393.565-.828.565m-.64-.764c.012.097.254.418.567.462l.073.005c.29 0 .507-.228.532-.303-.027-.05-.213-.177-.566-.226a2 2 0 0 0-.23-.017c-.227 0-.348.051-.376.079m12.196-.348c.022.158-.29.579-.695.635-.406.057-.753-.273-.775-.43-.021-.158.29-.332.695-.388.406-.057.753.025.775.183m-.789.716c-.39 0-.727-.304-.755-.501-.032-.237.358-.417.759-.472q.133-.02.26-.019c.346 0 .576.102.598.266.015.106-.066.27-.206.417a.98.98 0 0 1-.552.302zm.264-.843q-.116 0-.24.017c-.402.056-.643.218-.631.305.013.095.27.372.608.372l.083-.006a.83.83 0 0 0 .464-.257c.124-.13.173-.252.167-.294-.008-.055-.156-.137-.45-.137m1.11 9.186a.446.446 0 0 1-.371-.694c.95-1.42.776-2.867.608-4.267-.072-.597-.146-1.213-.127-1.805.02-.609.097-1.111.172-1.597.089-.576.173-1.12.138-1.765a.446.446 0 1 1 .891-.048c.04.738-.055 1.353-.147 1.949-.07.46-.144.934-.161 1.49-.017.524.05 1.08.12 1.67.18 1.488.382 3.175-.752 4.869a.45.45 0 0 1-.372.198"/></g><defs><clipPath id="clip0_1196_1440"><path fill="#fff" d="M.622 0h48v48h-48z"/></clipPath></defs></svg>