<svg width="41" height="48" viewBox="0 0 41 48" fill="none" xmlns="http://www.w3.org/2000/svg">
<g clip-path="url(#clip0_1196_1408)">
<path d="M39.9996 36.4674L23.5382 1.50952C23.3336 1.07938 23.0166 0.712545 22.6206 0.447825C22.2247 0.183106 21.7645 0.0303507 21.2889 0.00572449C20.8123 -0.0262121 20.3361 0.0731302 19.912 0.292947C19.488 0.512765 19.1323 0.844642 18.8838 1.25249L1.02976 30.17C0.758285 30.6066 0.616906 31.1116 0.622198 31.6257C0.627491 32.1399 0.779238 32.6418 1.05965 33.0728L9.78853 46.5903C10.1188 47.0978 10.6042 47.4849 11.1724 47.6938C11.7406 47.9028 12.3612 47.9225 12.9415 47.7499L38.273 40.257C38.6544 40.1455 39.0074 39.9534 39.3082 39.6937C39.609 39.434 39.8505 39.1127 40.0164 38.7516C40.18 38.3924 40.2634 38.0019 40.2607 37.6072C40.258 37.2125 40.1693 36.8231 40.0008 36.4662L39.9996 36.4674ZM36.3141 37.9668L14.8189 44.3229C14.1632 44.518 13.5338 43.9496 13.6702 43.2878L21.3499 6.51607C21.4934 5.82812 22.4435 5.71912 22.7439 6.35581L36.9602 36.5452C37.0231 36.6797 37.056 36.8262 37.0567 36.9747C37.0575 37.1232 37.026 37.27 36.9645 37.4052C36.9029 37.5403 36.8128 37.6605 36.7004 37.7574C36.5879 37.8543 36.4557 37.9257 36.313 37.9666L36.3141 37.9668Z" fill="#F2E8EA"/>
</g>
<defs>
<clipPath id="clip0_1196_1408">
<rect width="39.6387" height="48" fill="white" transform="translate(0.62207)"/>
</clipPath>
</defs>
</svg>
