<svg width="55" height="49" viewBox="0 0 55 49" fill="none" xmlns="http://www.w3.org/2000/svg">
<g clip-path="url(#clip0_102_486)">
<path d="M44.8449 15.5722C44.2702 15.375 43.6907 15.1924 43.1068 15.0244C43.2049 14.6236 43.2952 14.2277 43.3753 13.8387C44.6912 7.45133 43.8309 2.30551 40.8928 0.61126C38.0757 -1.01296 33.4686 0.680659 28.8158 4.73003C28.3572 5.12982 27.9088 5.54114 27.4711 5.96359C27.178 5.68268 26.8797 5.40721 26.5765 5.13735C21.7 0.807643 16.8122 -1.01718 13.8772 0.681924C11.0627 2.31121 10.2292 7.14864 11.4139 13.2021C11.5317 13.8017 11.6648 14.3981 11.813 14.9909C11.1211 15.1875 10.4535 15.3967 9.81453 15.6195C4.09728 17.6128 0.446167 20.7366 0.446167 23.9768C0.446167 27.3233 4.36581 30.68 10.3206 32.7153C10.8033 32.8797 11.2901 33.0319 11.7805 33.172C11.6212 33.8104 11.4798 34.4532 11.3565 35.0995C10.2271 41.048 11.1091 45.7711 13.916 47.39C16.8151 49.0619 21.681 47.3436 26.4189 43.2019C26.8031 42.8652 27.1788 42.5189 27.5457 42.1634C28.0198 42.6209 28.5066 43.065 29.0054 43.4953C33.595 47.4445 38.1276 49.0391 40.9318 47.4158C43.8282 45.739 44.7696 40.6651 43.5474 34.4921C43.4512 34.0084 43.3432 33.5272 43.2237 33.0488C43.5654 32.9476 43.9008 32.8434 44.2277 32.7349C50.4183 30.684 54.4462 27.3681 54.4462 23.9768C54.4462 20.7248 50.6771 17.5799 44.8449 15.5722ZM43.5023 30.5454C43.207 30.6431 42.9041 30.7374 42.5953 30.8291C41.9118 28.6655 40.9896 26.365 39.8609 23.988C40.9379 21.6677 41.8247 19.3965 42.489 17.2471C43.0414 17.4069 43.5774 17.5755 44.0942 17.7533C49.0913 19.4737 52.1394 22.017 52.1394 23.9768C52.1394 26.0642 48.8475 28.7742 43.5023 30.5454ZM41.2845 34.9401C41.8249 37.6696 41.9019 40.1376 41.544 42.067C41.2225 43.8007 40.5758 44.9564 39.7759 45.4195C38.0743 46.4045 34.4349 45.1241 30.51 41.7466C30.046 41.3465 29.5933 40.9336 29.1522 40.5084C30.6739 38.8443 32.1946 36.9098 33.6787 34.7612C36.2893 34.5296 38.7556 34.1508 40.9922 33.6337C41.1023 34.0782 41.2001 34.514 41.2845 34.9401ZM18.8559 45.2492C17.1933 45.8363 15.8691 45.8531 15.0686 45.3916C13.3652 44.4093 12.6571 40.6168 13.623 35.5299C13.7378 34.9287 13.8693 34.3309 14.0173 33.7371C16.2291 34.2265 18.6775 34.5783 21.2942 34.7905C22.7885 36.8929 24.353 38.8253 25.9297 40.5175C25.5947 40.8417 25.2516 41.1577 24.901 41.465C22.8058 43.2964 20.7063 44.5957 18.8559 45.2492ZM11.0669 30.5325C8.43374 29.6325 6.25918 28.4628 4.7687 27.1864C3.42925 26.0396 2.75319 24.9007 2.75319 23.9768C2.75319 22.0105 5.68459 19.5024 10.5739 17.7978C11.1673 17.5911 11.7883 17.396 12.4327 17.2129C13.1085 19.4109 13.9949 21.709 15.0646 24.0329C13.981 26.3912 13.082 28.7261 12.3996 30.95C11.952 30.8218 11.5076 30.6826 11.0669 30.5325ZM13.6779 12.7589C12.663 7.57262 13.337 3.66036 15.0331 2.67845C16.8396 1.63262 20.8343 3.12374 25.0449 6.86239C25.3194 7.10674 25.5895 7.35604 25.8551 7.61017C24.2861 9.29492 22.7359 11.213 21.2549 13.3029C18.7153 13.5384 16.2842 13.9164 14.0491 14.4228C13.9114 13.8715 13.7876 13.3165 13.6779 12.7589ZM36.9711 18.5108C36.4431 17.5989 35.8956 16.6985 35.3289 15.8102C37.0518 16.0281 38.7026 16.3172 40.2528 16.6708C39.7875 18.1625 39.2074 19.722 38.5246 21.3209C38.0255 20.3739 37.5076 19.4371 36.9711 18.5108ZM27.4721 9.25885C28.5361 10.4116 29.6017 11.6986 30.6499 13.095C28.5236 12.9945 26.3938 12.9941 24.2675 13.0937C25.3168 11.7102 26.3915 10.4249 27.4721 9.25885ZM17.9122 18.5266C17.3824 19.4454 16.8741 20.3765 16.3878 21.319C15.7161 19.7258 15.1413 18.1592 14.672 16.6463C16.2127 16.3016 17.8557 16.0198 19.5677 15.8059C18.9946 16.6997 18.4427 17.607 17.9122 18.5266ZM19.6168 32.3118C17.8481 32.1144 16.1804 31.8471 14.6402 31.5117C15.1169 29.9719 15.7043 28.3719 16.3905 26.7445C16.8788 27.6878 17.3892 28.6194 17.9213 29.5386C18.4685 30.4836 19.035 31.4092 19.6168 32.3118ZM27.5358 38.8572C26.4423 37.6776 25.3518 36.3726 24.2867 34.969C25.3208 35.0095 26.3748 35.0301 27.4462 35.0301C28.5468 35.0301 29.6349 35.0055 30.7058 34.9578C29.6543 36.3867 28.5926 37.6937 27.5358 38.8572ZM38.5463 26.6614C39.2682 28.3067 39.8765 29.8982 40.3596 31.4117C38.794 31.7691 37.1035 32.0568 35.3224 32.2705C35.8931 31.3656 36.4458 30.4496 36.9801 29.5228C37.5234 28.5807 38.0456 27.6267 38.5463 26.6614ZM34.9819 28.3702C34.1639 29.7912 33.3 31.1852 32.3914 32.5499C30.7456 32.6665 29.0961 32.7244 27.4462 32.7235C25.7656 32.7235 24.1311 32.6712 22.5571 32.5691C21.6248 31.2075 20.7443 29.8111 19.9176 28.3829C19.0948 26.9622 18.3264 25.5108 17.6137 24.0319C18.3246 22.5525 19.0908 21.1005 19.9108 19.6787L19.9106 19.679C20.7303 18.2569 21.6038 16.8664 22.529 15.5106C24.1349 15.3891 25.7817 15.3258 27.446 15.3258C29.1178 15.3258 30.767 15.3898 32.3724 15.5121C33.2883 16.8659 34.1562 18.2515 34.9743 19.6665C35.7971 21.0851 36.5734 22.5301 37.3022 23.9992C36.5809 25.4833 35.807 26.9412 34.9819 28.3702ZM39.7407 2.60968C41.5488 3.65256 42.2521 7.85802 41.116 13.373C41.0434 13.7248 40.962 14.0832 40.8734 14.4467C38.6328 13.9294 36.2001 13.5449 33.653 13.3059C32.1693 11.1929 30.6317 9.27193 29.0883 7.6089C29.4928 7.21899 29.9069 6.83918 30.3303 6.46984C34.317 3.00055 38.043 1.63072 39.7407 2.60968ZM27.4462 19.1548C30.1093 19.1548 32.2682 21.3137 32.2682 23.9768C32.2682 26.6399 30.1093 28.7988 27.4462 28.7988C24.7831 28.7988 22.6241 26.6399 22.6241 23.9768C22.6241 21.3137 24.7831 19.1548 27.4462 19.1548Z" fill="#F2E8EA"/>
</g>
<defs>
<clipPath id="clip0_102_486">
<rect width="54" height="48.0938" fill="white" transform="translate(0.446167)"/>
</clipPath>
</defs>
</svg>
