<svg width="42" height="48" viewBox="0 0 42 48" fill="none" xmlns="http://www.w3.org/2000/svg">
<g clip-path="url(#clip0_1196_1405)">
<path d="M35.444 15.2782V32.5309L20.7809 41.1896L20.6514 41.3191V47.7444L20.7809 47.8738L41.4323 35.962V11.928L41.2381 11.8795L35.4117 15.1164L35.444 15.2782Z" fill="#F2E8EA"/>
<path d="M35.569 15.2782V15.2658L35.5666 15.2537L35.5521 15.1813L41.2557 12.0127L41.3073 12.0256V35.8898L20.8015 47.7176L20.7764 47.6926V41.3709L20.8581 41.2892L35.5076 32.6385L35.569 32.6023V32.5309V15.2782Z" stroke="black" stroke-opacity="0.2" stroke-width="0.25"/>
<mask id="path-3-inside-1_1196_1405" fill="white">
<path d="M6.08532 32.6604L20.7809 41.1896V47.9062L-6.10352e-05 35.9135V11.9765L0.210338 11.9604L6.02058 15.3267L6.08532 15.521V32.6765"/>
</mask>
<path d="M6.08532 32.6604L20.7809 41.1896V47.9062L-6.10352e-05 35.9135V11.9765L0.210338 11.9604L6.02058 15.3267L6.08532 15.521V32.6765" fill="#F2E8EA"/>
<path d="M20.7809 41.1896H21.0309V41.0456L20.9064 40.9734L20.7809 41.1896ZM20.7809 47.9062L20.6559 48.1227L21.0309 48.3391V47.9062H20.7809ZM-6.10352e-05 35.9135H-0.250061V36.0578L-0.125021 36.13L-6.10352e-05 35.9135ZM-6.10352e-05 11.9765L-0.0192349 11.7273L-0.250061 11.745V11.9765H-6.10352e-05ZM0.210338 11.9604L0.335668 11.744L0.268529 11.7051L0.191164 11.7111L0.210338 11.9604ZM6.02058 15.3267L6.25775 15.2477L6.22782 15.1579L6.14591 15.1104L6.02058 15.3267ZM6.08532 15.521H6.33532V15.4804L6.32249 15.4419L6.08532 15.521ZM5.95983 32.8766L20.6554 41.4058L20.9064 40.9734L6.21081 32.4441L5.95983 32.8766ZM20.5309 41.1896V47.9062H21.0309V41.1896H20.5309ZM20.9058 47.6897L0.124899 35.6969L-0.125021 36.13L20.6559 48.1227L20.9058 47.6897ZM0.249939 35.9135V11.9765H-0.250061V35.9135H0.249939ZM0.0191128 12.2258L0.229512 12.2096L0.191164 11.7111L-0.0192349 11.7273L0.0191128 12.2258ZM0.0850074 12.1767L5.89525 15.5431L6.14591 15.1104L0.335668 11.744L0.0850074 12.1767ZM5.78341 15.4058L5.84815 15.6L6.32249 15.4419L6.25775 15.2477L5.78341 15.4058ZM5.83532 15.521V32.6765H6.33532V15.521H5.83532Z" fill="black" fill-opacity="0.2" mask="url(#path-3-inside-1_1196_1405)"/>
<path d="M6.08538 15.5048L0 11.9765L20.7324 0L41.4324 11.928L35.4441 15.2782L20.7324 6.87842L6.08538 15.5048Z" fill="#F2E8EA"/>
<path d="M20.7944 6.76987L20.7314 6.73393L20.6689 6.77071L6.08489 15.36L0.249553 11.9767L20.7325 0.144313L41.1792 11.9264L35.4447 15.1346L20.7944 6.76987Z" stroke="black" stroke-opacity="0.2" stroke-width="0.25"/>
<path d="M20.5381 30.6859L20.3763 30.524V24.0502L20.5381 23.9693L20.5705 23.8074L26.1218 20.5705L26.2836 20.6029V27.2871L20.5381 30.6859Z" fill="#F2E8EA"/>
<path d="M20.594 24.0811L20.6487 24.0537L20.6607 23.9938L20.682 23.8871L26.1437 20.7024L26.1586 20.7054V27.2158L20.5579 30.5289L20.5013 30.4722V24.1275L20.594 24.0811Z" stroke="black" stroke-opacity="0.2" stroke-width="0.25"/>
<mask id="path-9-inside-2_1196_1405" fill="white">
<path d="M14.6793 27.4975V20.5544H14.8411L20.4895 23.8398L20.5381 23.9693V30.6859L14.6793 27.5137"/>
</mask>
<path d="M14.6793 27.4975V20.5544H14.8411L20.4895 23.8398L20.5381 23.9693V30.6859L14.6793 27.5137" fill="#F2E8EA"/>
<path d="M14.6793 20.5544V20.3044H14.4293V20.5544H14.6793ZM14.8411 20.5544L14.9668 20.3383L14.9086 20.3044H14.8411V20.5544ZM20.4895 23.8398L20.7236 23.752L20.6923 23.6685L20.6152 23.6237L20.4895 23.8398ZM20.5381 23.9693H20.7881V23.924L20.7722 23.8815L20.5381 23.9693ZM20.5381 30.6859L20.4191 30.9057L20.7881 31.1055V30.6859H20.5381ZM14.9293 27.4975V20.5544H14.4293V27.4975H14.9293ZM14.6793 20.8044H14.8411V20.3044H14.6793V20.8044ZM14.7154 20.7705L20.3638 24.0559L20.6152 23.6237L14.9668 20.3383L14.7154 20.7705ZM20.2555 23.9276L20.304 24.0571L20.7722 23.8815L20.7236 23.752L20.2555 23.9276ZM20.2881 23.9693V30.6859H20.7881V23.9693H20.2881ZM20.6571 30.466L14.7983 27.2939L14.5603 27.7335L20.4191 30.9057L20.6571 30.466Z" fill="black" fill-opacity="0.2" mask="url(#path-9-inside-2_1196_1405)"/>
<path d="M20.441 17.1556L14.6793 20.5543L20.5381 23.9693L26.2998 20.6029L20.441 17.1556Z" fill="#F2E8EA"/>
<path d="M26.0527 20.6025L20.538 23.8245L14.9264 20.5537L20.4411 17.3007L26.0527 20.6025Z" stroke="black" stroke-opacity="0.2" stroke-width="0.25"/>
<path d="M13.3684 34.91L13.2065 34.7482V28.2744L13.3684 28.1935L13.4007 28.0316L18.952 24.7947L19.1139 24.8271V31.5113L13.3684 34.91Z" fill="#F2E8EA"/>
<path d="M13.4243 28.3053L13.4789 28.2779L13.4909 28.218L13.5123 28.1113L18.974 24.9266L18.9889 24.9296V31.44L13.3882 34.7531L13.3315 34.6964V28.3516L13.4243 28.3053Z" stroke="black" stroke-opacity="0.2" stroke-width="0.25"/>
<path d="M7.50956 31.7217V24.7623H7.6714L13.3198 28.0478L13.3684 28.1773V34.8938L7.50956 31.7217Z" fill="#F2E8EA"/>
<path d="M13.2434 34.684L7.63456 31.6472V24.8873H7.63769L13.2184 28.1334L13.2434 28.1999V34.684Z" stroke="black" stroke-opacity="0.2" stroke-width="0.25"/>
<mask id="path-17-inside-3_1196_1405" fill="white">
<path d="M13.2712 21.3636L7.50956 24.7785L13.3684 28.1935L19.13 24.8271L13.2712 21.3798"/>
</mask>
<path d="M13.2712 21.3636L7.50956 24.7785L13.3684 28.1935L19.13 24.8271L13.2712 21.3798" fill="#F2E8EA"/>
<path d="M7.50956 24.7785L7.38209 24.5635L7.0162 24.7803L7.38367 24.9945L7.50956 24.7785ZM13.3684 28.1935L13.2425 28.4094L13.3685 28.4829L13.4945 28.4093L13.3684 28.1935ZM19.13 24.8271L19.2562 25.0429L19.6243 24.8278L19.2568 24.6116L19.13 24.8271ZM13.1438 21.1485L7.38209 24.5635L7.63703 24.9936L13.3987 21.5786L13.1438 21.1485ZM7.38367 24.9945L13.2425 28.4094L13.4942 27.9775L7.63545 24.5625L7.38367 24.9945ZM13.4945 28.4093L19.2562 25.0429L19.0039 24.6112L13.2422 27.9776L13.4945 28.4093ZM19.2568 24.6116L13.398 21.1643L13.1445 21.5952L19.0033 25.0425L19.2568 24.6116Z" fill="black" fill-opacity="0.2" mask="url(#path-17-inside-3_1196_1405)"/>
<path d="M28.2096 35.0719L28.0477 34.91V28.4362L28.2096 28.3553L28.2581 28.1934L33.8094 24.9565L33.9712 24.9889V31.6731L28.2096 35.0719Z" fill="#F2E8EA"/>
<path d="M28.2655 28.4671L28.3138 28.4429L28.3293 28.3912L28.3637 28.2766L33.8314 25.0884L33.8462 25.0914V31.6017L28.2295 34.915L28.1727 34.8582V28.5135L28.2655 28.4671Z" stroke="black" stroke-opacity="0.2" stroke-width="0.25"/>
<mask id="path-21-inside-4_1196_1405" fill="white">
<path d="M22.3669 31.8835V24.9242H22.5288L28.1772 28.2096L28.2257 28.3391V35.0557L22.3508 31.8835"/>
</mask>
<path d="M22.3669 31.8835V24.9242H22.5288L28.1772 28.2096L28.2257 28.3391V35.0557L22.3508 31.8835" fill="#F2E8EA"/>
<path d="M22.3669 24.9242V24.6742H22.1169V24.9242H22.3669ZM22.5288 24.9242L22.6545 24.7081L22.5962 24.6742H22.5288V24.9242ZM28.1772 28.2096L28.4113 28.1218L28.38 28.0384L28.3029 27.9935L28.1772 28.2096ZM28.2257 28.3391H28.4757V28.2938L28.4598 28.2513L28.2257 28.3391ZM28.2257 35.0557L28.107 35.2757L28.4757 35.4748V35.0557H28.2257ZM22.6169 31.8835V24.9242H22.1169V31.8835H22.6169ZM22.3669 25.1742H22.5288V24.6742H22.3669V25.1742ZM22.4031 25.1403L28.0515 28.4257L28.3029 27.9935L22.6545 24.7081L22.4031 25.1403ZM27.9431 28.2974L27.9917 28.4269L28.4598 28.2513L28.4113 28.1218L27.9431 28.2974ZM27.9757 28.3391V35.0557H28.4757V28.3391H27.9757ZM28.3445 34.8357L22.4695 31.6635L22.232 32.1035L28.107 35.2757L28.3445 34.8357Z" fill="black" fill-opacity="0.2" mask="url(#path-21-inside-4_1196_1405)"/>
<mask id="path-23-inside-5_1196_1405" fill="white">
<path d="M28.1286 21.5254L22.367 24.9403L28.2257 28.3553L33.9874 24.9889L28.1286 21.5416"/>
</mask>
<path d="M28.1286 21.5254L22.367 24.9403L28.2257 28.3553L33.9874 24.9889L28.1286 21.5416" fill="#F2E8EA"/>
<path d="M22.367 24.9403L22.2395 24.7253L21.8736 24.9421L22.2411 25.1563L22.367 24.9403ZM28.2257 28.3553L28.0999 28.5712L28.2259 28.6447L28.3519 28.5711L28.2257 28.3553ZM33.9874 24.9889L34.1136 25.2047L34.4817 24.9896L34.1142 24.7734L33.9874 24.9889ZM28.0012 21.3103L22.2395 24.7253L22.4944 25.1554L28.2561 21.7405L28.0012 21.3103ZM22.2411 25.1563L28.0999 28.5712L28.3516 28.1393L22.4928 24.7243L22.2411 25.1563ZM28.3519 28.5711L34.1136 25.2047L33.8613 24.773L28.0996 28.1394L28.3519 28.5711ZM34.1142 24.7734L28.2554 21.3261L28.0019 21.757L33.8607 25.2043L34.1142 24.7734Z" fill="black" fill-opacity="0.2" mask="url(#path-23-inside-5_1196_1405)"/>
<path d="M21.0398 39.2961L20.878 39.1342V32.6604L21.0398 32.5795L21.0884 32.4176L26.6397 29.1807L26.8015 29.2131V35.8973L21.0398 39.2961Z" fill="#F2E8EA"/>
<path d="M21.0957 32.6913L21.144 32.6671L21.1595 32.6154L21.1939 32.5008L26.6617 29.3126L26.6765 29.3156V35.8259L21.0597 39.1392L21.003 39.0824V32.7377L21.0957 32.6913Z" stroke="black" stroke-opacity="0.2" stroke-width="0.25"/>
<mask id="path-27-inside-6_1196_1405" fill="white">
<path d="M15.181 36.0915V29.1646H15.3429L21.0075 32.45L21.0398 32.5795V39.2961L15.181 36.1077"/>
</mask>
<path d="M15.181 36.0915V29.1646H15.3429L21.0075 32.45L21.0398 32.5795V39.2961L15.181 36.1077" fill="#F2E8EA"/>
<path d="M15.181 29.1646V28.9146H14.931V29.1646H15.181ZM15.3429 29.1646L15.4683 28.9483L15.4101 28.9146H15.3429V29.1646ZM21.0075 32.45L21.25 32.3894L21.2243 32.2868L21.1329 32.2338L21.0075 32.45ZM21.0398 32.5795H21.2898V32.5487L21.2824 32.5189L21.0398 32.5795ZM21.0398 39.2961L20.9203 39.5157L21.2898 39.7167V39.2961H21.0398ZM15.431 36.0915V29.1646H14.931V36.0915H15.431ZM15.181 29.4146H15.3429V28.9146H15.181V29.4146ZM15.2174 29.3808L20.882 32.6663L21.1329 32.2338L15.4683 28.9483L15.2174 29.3808ZM20.7649 32.5106L20.7973 32.6401L21.2824 32.5189L21.25 32.3894L20.7649 32.5106ZM20.7898 32.5795V39.2961H21.2898V32.5795H20.7898ZM21.1593 39.0765L15.3005 35.8881L15.0615 36.3273L20.9203 39.5157L21.1593 39.0765Z" fill="black" fill-opacity="0.2" mask="url(#path-27-inside-6_1196_1405)"/>
<path d="M20.9427 25.7657L15.181 29.1645L21.0398 32.5794L26.8015 29.2131L20.9427 25.7657Z" fill="#F2E8EA"/>
<path d="M26.5544 29.2127L21.0397 32.4347L15.4281 29.1639L20.9428 25.9108L26.5544 29.2127Z" stroke="black" stroke-opacity="0.2" stroke-width="0.25"/>
<mask id="path-31-inside-7_1196_1405" fill="white">
<path d="M20.5381 21.5093L20.3763 21.3474V14.8736L20.5381 14.7765L20.5705 14.6147L26.1218 11.3777L26.2836 11.4263V18.0943L20.5381 21.4931"/>
</mask>
<path d="M20.5381 21.5093L20.3763 21.3474V14.8736L20.5381 14.7765L20.5705 14.6147L26.1218 11.3777L26.2836 11.4263V18.0943L20.5381 21.4931" fill="#F2E8EA"/>
<path d="M20.3763 21.3474H20.1263V21.451L20.1995 21.5242L20.3763 21.3474ZM20.3763 14.8736L20.2476 14.6592L20.1263 14.7321V14.8736H20.3763ZM20.5381 14.7765L20.6667 14.9909L20.7616 14.934L20.7832 14.8255L20.5381 14.7765ZM20.5705 14.6147L20.4445 14.3987L20.3474 14.4553L20.3253 14.5656L20.5705 14.6147ZM26.1218 11.3777L26.1936 11.1383L26.0896 11.1071L25.9958 11.1618L26.1218 11.3777ZM26.2836 11.4263H26.5336V11.2403L26.3554 11.1868L26.2836 11.4263ZM26.2836 18.0943L26.4109 18.3095L26.5336 18.2369V18.0943H26.2836ZM20.7149 21.3325L20.553 21.1706L20.1995 21.5242L20.3613 21.686L20.7149 21.3325ZM20.6263 21.3474V14.8736H20.1263V21.3474H20.6263ZM20.5049 15.088L20.6667 14.9909L20.4095 14.5621L20.2476 14.6592L20.5049 15.088ZM20.7832 14.8255L20.8156 14.6637L20.3253 14.5656L20.293 14.7275L20.7832 14.8255ZM20.6964 14.8306L26.2477 11.5937L25.9958 11.1618L20.4445 14.3987L20.6964 14.8306ZM26.0499 11.6172L26.2118 11.6658L26.3554 11.1868L26.1936 11.1383L26.0499 11.6172ZM26.0336 11.4263V18.0943H26.5336V11.4263H26.0336ZM26.1563 17.8792L20.4108 21.2779L20.6654 21.7082L26.4109 18.3095L26.1563 17.8792Z" fill="black" fill-opacity="0.2" mask="url(#path-31-inside-7_1196_1405)"/>
<path d="M14.6793 18.2886V11.394H14.8411L20.4895 14.6632L20.5381 14.7927V21.5255L14.6793 18.2886Z" fill="#F2E8EA"/>
<path d="M20.4131 21.3136L14.8043 18.2148V11.519H14.8076L20.3882 14.749L20.4131 14.8154V21.3136Z" stroke="black" stroke-opacity="0.2" stroke-width="0.25"/>
<path d="M20.441 7.9628L14.6793 11.3615L20.5381 14.7765L26.2998 11.4263L20.441 7.9628Z" fill="#F2E8EA"/>
<path d="M26.0526 11.4254L20.5382 14.6318L14.9264 11.3609L20.4409 8.10797L26.0526 11.4254Z" stroke="black" stroke-opacity="0.2" stroke-width="0.25"/>
<mask id="path-37-inside-8_1196_1405" fill="white">
<path d="M13.3684 25.7334L13.2065 25.5716V19.0978L13.3684 19.0007L13.4007 18.8388L18.952 15.6019L19.1139 15.6505V22.3185L13.3684 25.7173"/>
</mask>
<path d="M13.3684 25.7334L13.2065 25.5716V19.0978L13.3684 19.0007L13.4007 18.8388L18.952 15.6019L19.1139 15.6505V22.3185L13.3684 25.7173" fill="#F2E8EA"/>
<path d="M13.2065 25.5716H12.9565V25.6751L13.0297 25.7484L13.2065 25.5716ZM13.2065 19.0978L13.0779 18.8834L12.9565 18.9562V19.0978H13.2065ZM13.3684 19.0007L13.497 19.2151L13.5918 19.1582L13.6135 19.0497L13.3684 19.0007ZM13.4007 18.8388L13.2748 18.6229L13.1776 18.6795L13.1556 18.7898L13.4007 18.8388ZM18.952 15.6019L19.0239 15.3625L18.9199 15.3313L18.8261 15.386L18.952 15.6019ZM19.1139 15.6505H19.3639V15.4645L19.1857 15.411L19.1139 15.6505ZM19.1139 22.3185L19.2411 22.5337L19.3639 22.4611V22.3185H19.1139ZM13.5451 25.5567L13.3833 25.3948L13.0297 25.7484L13.1916 25.9102L13.5451 25.5567ZM13.4565 25.5716V19.0978H12.9565V25.5716H13.4565ZM13.3351 19.3122L13.497 19.2151L13.2397 18.7863L13.0779 18.8834L13.3351 19.3122ZM13.6135 19.0497L13.6459 18.8879L13.1556 18.7898L13.1232 18.9516L13.6135 19.0497ZM13.5267 19.0548L19.0779 15.8179L18.8261 15.386L13.2748 18.6229L13.5267 19.0548ZM18.8802 15.8414L19.042 15.8899L19.1857 15.411L19.0239 15.3625L18.8802 15.8414ZM18.8639 15.6505V22.3185H19.3639V15.6505H18.8639ZM18.9866 22.1033L13.2411 25.5021L13.4956 25.9324L19.2411 22.5337L18.9866 22.1033Z" fill="black" fill-opacity="0.2" mask="url(#path-37-inside-8_1196_1405)"/>
<path d="M7.50956 22.5289V15.6019H7.6714L13.3198 18.8712L13.3684 19.0007V25.7334L7.50956 22.5289Z" fill="#F2E8EA"/>
<path d="M13.2434 25.5226L7.63456 22.4548V15.7269H7.63784L13.2185 18.957L13.2434 19.0233V25.5226Z" stroke="black" stroke-opacity="0.2" stroke-width="0.25"/>
<path d="M13.2712 12.187L7.50956 15.5857L13.3684 19.0006L19.13 15.6504L13.2712 12.187Z" fill="#F2E8EA"/>
<path d="M18.8829 15.6495L13.3684 18.856L7.75668 15.5851L13.2712 12.3321L18.8829 15.6495Z" stroke="black" stroke-opacity="0.2" stroke-width="0.25"/>
<mask id="path-43-inside-9_1196_1405" fill="white">
<path d="M28.2096 25.8952L28.0477 25.7334V19.2596L28.2096 19.1625L28.2581 19.0006L33.8094 15.7637L33.9712 15.8123V22.4803L28.2096 25.879"/>
</mask>
<path d="M28.2096 25.8952L28.0477 25.7334V19.2596L28.2096 19.1625L28.2581 19.0006L33.8094 15.7637L33.9712 15.8123V22.4803L28.2096 25.879" fill="#F2E8EA"/>
<path d="M28.0477 25.7334H27.7977V25.8369L27.8709 25.9101L28.0477 25.7334ZM28.0477 19.2596L27.9191 19.0452L27.7977 19.118V19.2596H28.0477ZM28.2096 19.1625L28.3382 19.3768L28.4212 19.327L28.449 19.2343L28.2096 19.1625ZM28.2581 19.0006L28.1322 18.7846L28.047 18.8343L28.0187 18.9288L28.2581 19.0006ZM33.8094 15.7637L33.8812 15.5242L33.7773 15.4931L33.6835 15.5477L33.8094 15.7637ZM33.9712 15.8123H34.2212V15.6262L34.0431 15.5728L33.9712 15.8123ZM33.9712 22.4803L34.0983 22.6956L34.2212 22.6231V22.4803H33.9712ZM28.3863 25.7184L28.2245 25.5566L27.8709 25.9101L28.0328 26.072L28.3863 25.7184ZM28.2977 25.7334V19.2596H27.7977V25.7334H28.2977ZM28.1763 19.4739L28.3382 19.3768L28.0809 18.9481L27.9191 19.0452L28.1763 19.4739ZM28.449 19.2343L28.4976 19.0724L28.0187 18.9288L27.9701 19.0906L28.449 19.2343ZM28.384 19.2166L33.9353 15.9797L33.6835 15.5477L28.1322 18.7846L28.384 19.2166ZM33.7376 16.0032L33.8994 16.0517L34.0431 15.5728L33.8812 15.5242L33.7376 16.0032ZM33.7212 15.8123V22.4803H34.2212V15.8123H33.7212ZM33.8442 22.2649L28.0825 25.6637L28.3366 26.0944L34.0983 22.6956L33.8442 22.2649Z" fill="black" fill-opacity="0.2" mask="url(#path-43-inside-9_1196_1405)"/>
<path d="M22.367 22.6907V15.7637H22.5288L28.1772 19.033L28.2257 19.1625V25.8952L22.367 22.6907Z" fill="#F2E8EA"/>
<path d="M28.1007 25.6844L22.492 22.6166V15.8887H22.4952L28.0759 19.1188L28.1007 19.1851V25.6844Z" stroke="black" stroke-opacity="0.2" stroke-width="0.25"/>
<path d="M28.1286 12.3488L22.367 15.7475L28.2257 19.1625L33.9874 15.8123L28.1286 12.3488Z" fill="#F2E8EA"/>
<path d="M33.7403 15.8114L28.2258 19.0178L22.6141 15.7469L28.1286 12.494L33.7403 15.8114Z" stroke="black" stroke-opacity="0.2" stroke-width="0.25"/>
<path d="M21.0398 30.1032L20.878 29.9414V23.4676L21.0398 23.3866L21.0884 23.2248L26.6397 19.9879L26.8015 20.0364V26.7045L21.0398 30.1032Z" fill="#F2E8EA"/>
<path d="M21.0957 23.4984L21.144 23.4743L21.1595 23.4226L21.1939 23.3079L26.6557 20.1232L26.6765 20.1294V26.6331L21.0597 29.9463L21.003 29.8896V23.5448L21.0957 23.4984Z" stroke="black" stroke-opacity="0.2" stroke-width="0.25"/>
<path d="M15.181 26.9149V19.9879H15.3429L21.0075 23.2572L21.0398 23.3866V30.1194L15.181 26.9149Z" fill="#F2E8EA"/>
<path d="M20.9148 29.9085L15.306 26.8408V20.1129H15.3094L20.899 23.3389L20.9148 23.402V29.9085Z" stroke="black" stroke-opacity="0.2" stroke-width="0.25"/>
<path d="M20.9427 16.5729L15.181 19.9717L21.0398 23.3866L26.8015 20.0364L20.9427 16.5729Z" fill="#F2E8EA"/>
<path d="M26.5544 20.0355L21.0399 23.242L15.4281 19.971L20.9426 16.7181L26.5544 20.0355Z" stroke="black" stroke-opacity="0.2" stroke-width="0.25"/>
</g>
<defs>
<clipPath id="clip0_1196_1405">
<rect width="41.4324" height="47.9062" fill="white"/>
</clipPath>
</defs>
</svg>
