<svg xmlns="http://www.w3.org/2000/svg" width="42" height="48" fill="none" viewBox="0 0 42 48"><g clip-path="url(#clip0_1196_1405)"><path fill="var(--text)" d="M35.444 15.278v17.253L20.781 41.19l-.13.13v6.424l.13.13 20.651-11.912V11.928l-.194-.049-5.826 3.237z"/><path stroke="var(--background)" stroke-opacity=".2" stroke-width=".25" d="M35.569 15.278v-.012l-.002-.012-.015-.073 5.704-3.168.051.013V35.89L20.802 47.718l-.026-.025V41.37l.082-.082 14.65-8.65.061-.037V15.278Z"/><mask id="path-3-inside-1_1196_1405" fill="#fff"><path d="m6.085 32.66 14.696 8.53v6.716L0 35.914V11.976l.21-.017 5.81 3.367.065.194v17.155"/></mask><path fill="var(--text)" d="m6.085 32.66 14.696 8.53v6.716L0 35.914V11.976l.21-.017 5.81 3.367.065.194v17.155"/><path fill="var(--background)" fill-opacity=".2" d="M20.78 41.19h.25v-.144l-.124-.073zm0 6.716-.124.217.375.216v-.433zM0 35.914h-.25v.144l.125.072zm0-23.937-.02-.25-.23.018v.232zm.21-.017.126-.216-.067-.039-.078.006zm5.81 3.367.238-.08-.03-.09-.082-.047zm.065.194h.25v-.04l-.013-.04zM5.96 32.877l14.695 8.529.251-.433-14.695-8.529zm14.57 8.313v6.716h.5V41.19zm.376 6.5L.125 35.697l-.25.433 20.78 11.993zM.25 35.914V11.976h-.5v23.937zM.02 12.226l.21-.016-.039-.499-.21.016zm.065-.05 5.81 3.367.25-.433-5.81-3.366zm5.698 3.23.065.194.474-.158-.064-.194zm.052.115v17.155h.5V15.521z" mask="url(#path-3-inside-1_1196_1405)"/><path fill="var(--text)" d="M6.085 15.505 0 11.976 20.732 0l20.7 11.928-5.988 3.35-14.712-8.4z"/><path stroke="var(--background)" stroke-opacity=".2" stroke-width=".25" d="m20.794 6.77-.063-.036-.062.037L6.085 15.36.25 11.977 20.733.144l20.446 11.782-5.734 3.209z"/><path fill="var(--text)" d="m20.538 30.686-.162-.162V24.05l.162-.08.032-.163 5.552-3.236.162.032v6.684z"/><path stroke="var(--background)" stroke-opacity=".2" stroke-width=".25" d="m20.594 24.081.055-.027.012-.06.021-.107 5.462-3.185.015.003v6.51l-5.601 3.314-.057-.057v-6.344z"/><mask id="path-9-inside-2_1196_1405" fill="#fff"><path d="M14.68 27.498v-6.944h.161l5.649 3.286.048.13v6.716l-5.859-3.172"/></mask><path fill="var(--text)" d="M14.68 27.498v-6.944h.161l5.649 3.286.048.13v6.716l-5.859-3.172"/><path fill="var(--background)" fill-opacity=".2" d="M14.68 20.554v-.25h-.25v.25zm.161 0 .126-.216-.058-.034h-.068zm5.649 3.286.234-.088-.032-.083-.077-.045zm.048.13h.25v-.046l-.016-.043zm0 6.716-.119.22.37.2v-.42zm-5.609-3.189v-6.943h-.5v6.944zm-.25-6.693h.162v-.5h-.162zm.036-.034 5.649 3.286.251-.432-5.648-3.286zm5.54 3.158.049.13.468-.177-.048-.129zm.033.041v6.717h.5v-6.717zm.37 6.497-5.86-3.172-.238.44 5.86 3.172z" mask="url(#path-9-inside-2_1196_1405)"/><path fill="var(--text)" d="m20.441 17.156-5.762 3.398 5.86 3.415 5.76-3.366z"/><path stroke="var(--background)" stroke-opacity=".2" stroke-width=".25" d="m26.053 20.603-5.515 3.221-5.612-3.27 5.515-3.253z"/><path fill="var(--text)" d="m13.368 34.91-.162-.162v-6.474l.162-.08.033-.162 5.551-3.237.162.032v6.684z"/><path stroke="var(--background)" stroke-opacity=".2" stroke-width=".25" d="m13.424 28.305.055-.027.012-.06.021-.107 5.462-3.184.015.003v6.51l-5.6 3.313-.057-.057v-6.344z"/><path fill="var(--text)" d="M7.51 31.722v-6.96h.161l5.649 3.286.048.13v6.716z"/><path stroke="var(--background)" stroke-opacity=".2" stroke-width=".25" d="m13.243 34.684-5.608-3.037v-6.76h.003l5.58 3.246.025.067z"/><mask id="path-17-inside-3_1196_1405" fill="#fff"><path d="M13.271 21.364 7.51 24.779l5.858 3.415 5.762-3.367-5.859-3.447"/></mask><path fill="var(--text)" d="M13.271 21.364 7.51 24.779l5.858 3.415 5.762-3.367-5.859-3.447"/><path fill="var(--background)" fill-opacity=".2" d="m7.51 24.779-.128-.215-.366.216.368.214zm5.858 3.415-.126.215.126.074.127-.074zm5.762-3.367.126.216.368-.215-.367-.216zm-5.986-3.679-5.762 3.416.255.43 5.762-3.415zm-5.76 3.846 5.858 3.415.252-.431-5.859-3.416zm6.11 3.415 5.762-3.366-.252-.432-5.762 3.367zm5.763-3.797-5.859-3.448-.253.431 5.858 3.448z" mask="url(#path-17-inside-3_1196_1405)"/><path fill="var(--text)" d="m28.21 35.072-.162-.162v-6.474l.162-.08.048-.163 5.551-3.237.162.033v6.684z"/><path stroke="var(--background)" stroke-opacity=".2" stroke-width=".25" d="m28.266 28.467.048-.024.015-.052.035-.114 5.467-3.189.015.003v6.51l-5.616 3.314-.057-.057v-6.344z"/><mask id="path-21-inside-4_1196_1405" fill="#fff"><path d="M22.367 31.884v-6.96h.162l5.648 3.286.049.13v6.716l-5.875-3.172"/></mask><path fill="var(--text)" d="M22.367 31.884v-6.96h.162l5.648 3.286.049.13v6.716l-5.875-3.172"/><path fill="var(--background)" fill-opacity=".2" d="M22.367 24.924v-.25h-.25v.25zm.162 0 .125-.216-.058-.034h-.067zm5.648 3.286.234-.088-.031-.084-.077-.044zm.049.13h.25v-.046l-.016-.043zm0 6.716-.119.22.369.199v-.42zm-5.61-3.172v-6.96h-.5v6.96zm-.25-6.71h.163v-.5h-.162zm.037-.034 5.649 3.286.25-.432-5.648-3.286zm5.54 3.157.049.13.468-.176-.049-.13zm.033.042v6.717h.5v-6.717zm.369 6.497-5.875-3.172-.238.44 5.875 3.172z" mask="url(#path-21-inside-4_1196_1405)"/><mask id="path-23-inside-5_1196_1405" fill="#fff"><path d="m28.129 21.525-5.762 3.415 5.859 3.415 5.761-3.366-5.858-3.447"/></mask><path fill="var(--text)" d="m28.129 21.525-5.762 3.415 5.859 3.415 5.761-3.366-5.858-3.447"/><path fill="var(--background)" fill-opacity=".2" d="m22.367 24.94-.128-.215-.365.217.367.214zm5.859 3.415-.126.216.126.074.126-.074zm5.761-3.366.127.216.368-.215-.368-.217zm-5.986-3.679-5.762 3.415.255.43 5.762-3.415zm-5.76 3.846 5.859 3.415.252-.432-5.86-3.415zm6.11 3.415 5.763-3.366-.253-.432-5.761 3.366zm5.763-3.798-5.859-3.447-.253.431 5.859 3.447z" mask="url(#path-23-inside-5_1196_1405)"/><path fill="var(--text)" d="m21.04 39.296-.162-.162V32.66l.162-.08.048-.162 5.552-3.237.162.032v6.684z"/><path stroke="var(--background)" stroke-opacity=".2" stroke-width=".25" d="m21.096 32.691.048-.024.016-.052.034-.114 5.468-3.188.015.003v6.51l-5.617 3.313-.057-.057v-6.344z"/><mask id="path-27-inside-6_1196_1405" fill="#fff"><path d="M15.181 36.092v-6.927h.162l5.665 3.285.032.13v6.716l-5.859-3.188"/></mask><path fill="var(--text)" d="M15.181 36.092v-6.927h.162l5.665 3.285.032.13v6.716l-5.859-3.188"/><path fill="var(--background)" fill-opacity=".2" d="M15.181 29.165v-.25h-.25v.25zm.162 0 .125-.217-.058-.033h-.067zm5.665 3.285.242-.06-.026-.103-.091-.053zm.032.13h.25v-.031l-.008-.03zm0 6.716-.12.22.37.2v-.42zm-5.609-3.204v-6.927h-.5v6.927zm-.25-6.677h.162v-.5h-.162zm.036-.034 5.665 3.285.25-.432-5.664-3.286zm5.548 3.13.032.13.485-.122-.032-.13zm.025.069v6.716h.5V32.58zm.37 6.497-5.86-3.189-.239.44 5.86 3.188z" mask="url(#path-27-inside-6_1196_1405)"/><path fill="var(--text)" d="m20.943 25.766-5.762 3.399 5.859 3.414 5.762-3.366z"/><path stroke="var(--background)" stroke-opacity=".2" stroke-width=".25" d="m26.554 29.213-5.514 3.222-5.612-3.271 5.515-3.253z"/><mask id="path-31-inside-7_1196_1405" fill="#fff"><path d="m20.538 21.51-.162-.163v-6.473l.162-.098.032-.161 5.552-3.237.162.048v6.668l-5.746 3.4"/></mask><path fill="var(--text)" d="m20.538 21.51-.162-.163v-6.473l.162-.098.032-.161 5.552-3.237.162.048v6.668l-5.746 3.4"/><path fill="var(--background)" fill-opacity=".2" d="M20.376 21.347h-.25v.104l.073.073zm0-6.473-.128-.215-.122.073v.142zm.162-.098.129.215.095-.057.021-.108zm.032-.161-.125-.216-.098.056-.022.11zm5.552-3.237.072-.24-.104-.03-.094.054zm.162.048h.25v-.186l-.179-.053zm0 6.668.127.215.123-.072v-.143zm-5.57 3.238-.161-.161-.354.353.162.162zm-.088.015v-6.473h-.5v6.473zm-.121-6.259.162-.097-.258-.429-.161.097zm.278-.262.033-.162-.49-.098-.033.161zm-.087.005 5.552-3.237-.252-.432-5.551 3.237zm5.354-3.214.162.049.143-.48-.161-.048zm-.016-.19v6.667h.5v-6.668zm.122 6.452-5.745 3.399.254.43 5.746-3.398z" mask="url(#path-31-inside-7_1196_1405)"/><path fill="var(--text)" d="M14.68 18.289v-6.895h.161l5.649 3.27.048.129v6.733z"/><path stroke="var(--background)" stroke-opacity=".2" stroke-width=".25" d="m20.413 21.314-5.609-3.1V11.52h.004l5.58 3.23.025.066z"/><path fill="var(--text)" d="m20.441 7.963-5.762 3.398 5.86 3.415 5.76-3.35z"/><path stroke="var(--background)" stroke-opacity=".2" stroke-width=".25" d="m26.053 11.425-5.515 3.207-5.612-3.271 5.515-3.253z"/><mask id="path-37-inside-8_1196_1405" fill="#fff"><path d="m13.368 25.733-.162-.161v-6.474l.162-.097.033-.162 5.551-3.237.162.048v6.669l-5.746 3.398"/></mask><path fill="var(--text)" d="m13.368 25.733-.162-.161v-6.474l.162-.097.033-.162 5.551-3.237.162.048v6.669l-5.746 3.398"/><path fill="var(--background)" fill-opacity=".2" d="M13.207 25.572h-.25v.103l.073.073zm0-6.474-.13-.215-.12.073v.142zm.161-.097.129.214.095-.057.021-.108zm.033-.162-.126-.216-.097.056-.022.11zm5.551-3.237.072-.24-.104-.03-.094.054zm.162.048h.25v-.186l-.178-.053zm0 6.669.127.215.123-.073v-.142zm-5.569 3.238-.162-.162-.353.353.162.162zm-.088.015v-6.474h-.5v6.474zm-.122-6.26.162-.097-.257-.429-.162.097zm.278-.262.033-.162-.49-.098-.033.162zm-.086.005 5.55-3.237-.25-.432-5.552 3.237zm5.353-3.214.162.049.144-.479-.162-.048zm-.016-.19v6.668h.5V15.65zm.123 6.452-5.746 3.4.255.43 5.745-3.4z" mask="url(#path-37-inside-8_1196_1405)"/><path fill="var(--text)" d="M7.51 22.529v-6.927h.161l5.649 3.27.048.129v6.732z"/><path stroke="var(--background)" stroke-opacity=".2" stroke-width=".25" d="m13.243 25.523-5.608-3.068v-6.728h.003l5.58 3.23.025.066z"/><path fill="var(--text)" d="M13.271 12.187 7.51 15.586 13.368 19l5.762-3.35z"/><path stroke="var(--background)" stroke-opacity=".2" stroke-width=".25" d="m18.883 15.65-5.515 3.206-5.611-3.27 5.514-3.254z"/><mask id="path-43-inside-9_1196_1405" fill="#fff"><path d="m28.21 25.895-.162-.162V19.26l.162-.098.048-.161 5.551-3.237.162.048v6.668L28.21 25.88"/></mask><path fill="var(--text)" d="m28.21 25.895-.162-.162V19.26l.162-.098.048-.161 5.551-3.237.162.048v6.668L28.21 25.88"/><path fill="var(--background)" fill-opacity=".2" d="M28.048 25.733h-.25v.104l.073.073zm0-6.473-.129-.215-.121.073v.142zm.162-.098.128.215.083-.05.028-.093zm.048-.161-.126-.216-.085.05-.028.094zm5.551-3.237.072-.24-.104-.03-.093.054zm.162.048h.25v-.186l-.178-.053zm0 6.668.127.216.123-.073v-.143zm-5.585 3.238-.162-.161-.353.353.162.162zm-.088.015V19.26h-.5v6.473zm-.122-6.26.162-.096-.257-.429-.162.097zm.273-.239.049-.162-.48-.143-.048.162zm-.065-.017 5.551-3.237-.252-.432-5.55 3.237zm5.354-3.214.161.049.144-.48-.162-.048zm-.017-.19v6.667h.5v-6.668zm.123 6.452-5.762 3.399.255.43 5.761-3.398z" mask="url(#path-43-inside-9_1196_1405)"/><path fill="var(--text)" d="M22.367 22.69v-6.926h.162l5.648 3.269.049.13v6.732z"/><path stroke="var(--background)" stroke-opacity=".2" stroke-width=".25" d="m28.1 25.684-5.608-3.067v-6.728h.003l5.58 3.23.026.066z"/><path fill="var(--text)" d="m28.129 12.349-5.762 3.399 5.859 3.415 5.761-3.35z"/><path stroke="var(--background)" stroke-opacity=".2" stroke-width=".25" d="m33.74 15.811-5.514 3.207-5.612-3.271 5.515-3.253z"/><path fill="var(--text)" d="m21.04 30.103-.162-.162v-6.473l.162-.081.048-.162 5.552-3.237.162.048v6.668z"/><path stroke="var(--background)" stroke-opacity=".2" stroke-width=".25" d="m21.096 23.498.048-.024.016-.051.034-.115 5.462-3.185.02.006v6.504l-5.616 3.313-.057-.056v-6.345z"/><path fill="var(--text)" d="M15.181 26.915v-6.927h.162l5.665 3.27.032.129v6.732z"/><path stroke="var(--background)" stroke-opacity=".2" stroke-width=".25" d="m20.915 29.909-5.609-3.068v-6.728h.003l5.59 3.226.016.063z"/><path fill="var(--text)" d="m20.943 16.573-5.762 3.399 5.859 3.415 5.762-3.35z"/><path stroke="var(--background)" stroke-opacity=".2" stroke-width=".25" d="m26.554 20.036-5.514 3.206-5.612-3.271 5.515-3.253z"/></g><defs><clipPath id="clip0_1196_1405"><path fill="#fff" d="M0 0h41.432v47.906H0z"/></clipPath></defs></svg>