<svg width="20" height="20" viewBox="0 0 20 20" fill="none" xmlns="http://www.w3.org/2000/svg">
<path d="M14.7435 9.26958C14.6569 9.22809 14.5694 9.18839 14.4812 9.15052C14.3268 6.30604 12.7725 4.6776 10.1627 4.66094H10.1273C8.56627 4.66094 7.26804 5.32719 6.46898 6.53969L7.90429 7.52427C8.50117 6.61854 9.43804 6.42552 10.128 6.42552H10.1519C11.0112 6.43104 11.6596 6.68094 12.0793 7.16813C12.3847 7.52281 12.589 8.01302 12.6901 8.63167C11.9282 8.50219 11.1043 8.46229 10.2235 8.51292C7.74221 8.65573 6.147 10.1029 6.25419 12.1137C6.30856 13.1337 6.81669 14.0112 7.68492 14.5845C8.41898 15.0691 9.3645 15.306 10.3471 15.2524C11.6448 15.1812 12.6628 14.6861 13.373 13.7808C13.9124 13.0933 14.2536 12.2024 14.4042 11.0798C15.0226 11.453 15.481 11.9442 15.7341 12.5346C16.1645 13.5382 16.1896 15.1875 14.8439 16.5321C13.6648 17.71 12.2475 18.2196 10.1055 18.2353C7.7296 18.2177 5.93262 17.4557 4.7644 15.9705C3.67044 14.5798 3.10502 12.571 3.08387 10C3.10502 7.42896 3.67033 5.42021 4.7644 4.02948C5.93273 2.54427 7.7296 1.78229 10.1055 1.76458C12.4988 1.78229 14.327 2.54792 15.54 4.04031C16.1348 4.77219 16.5832 5.6924 16.8789 6.76552L18.5609 6.31677C18.2025 4.99594 17.6387 3.85781 16.8714 2.91385C15.3163 1.00073 13.0419 0.0203125 10.1115 0H10.0997C7.17523 0.0202083 4.92627 1.00437 3.41544 2.925C2.07106 4.63385 1.37752 7.01198 1.35429 9.99292L1.35419 10V10.007C1.37752 12.9879 2.07106 15.366 3.41544 17.0751C4.92627 18.9956 7.17523 19.9798 10.0997 20H10.1115C12.7115 19.982 14.5442 19.3013 16.054 17.7928C18.0293 15.8194 17.9698 13.3457 17.3188 11.8272C16.8517 10.7382 15.9612 9.85375 14.7435 9.26958ZM10.2542 13.4903C9.16669 13.5516 8.0369 13.0634 7.98127 12.0179C7.93992 11.2427 8.53294 10.3777 10.321 10.2747C10.5257 10.2628 10.7267 10.2571 10.9241 10.2571C11.5736 10.2571 12.1812 10.3202 12.7336 10.4409C12.5275 13.0141 11.319 13.4319 10.2542 13.4903Z" fill="white"/>
</svg>
