<svg width="49" height="48" viewBox="0 0 49 48" fill="none" xmlns="http://www.w3.org/2000/svg">
<g clip-path="url(#clip0_102_487)">
<path d="M1.20617 -1.79598e-05C1.12561 0.00125609 1.04638 0.0206757 0.974355 0.0567967C0.902334 0.0929177 0.839383 0.144811 0.790184 0.208616C0.740985 0.272421 0.706803 0.346498 0.69018 0.425336C0.673558 0.504174 0.674923 0.585745 0.694174 0.663982L6.48217 24.096C6.48678 24.1231 6.49346 24.1499 6.50217 24.176L12.2822 47.592C12.3048 47.6836 12.3511 47.7676 12.4166 47.8355C12.4821 47.9035 12.5643 47.9529 12.655 47.9789C12.7457 48.0049 12.8417 48.0065 12.9332 47.9835C13.0247 47.9605 13.1085 47.9137 13.1762 47.848L48.0502 14.3C48.1177 14.2346 48.1668 14.1527 48.1926 14.0624C48.2185 13.9721 48.2202 13.8766 48.1975 13.7854C48.1748 13.6943 48.1285 13.6107 48.0634 13.5431C47.9982 13.4754 47.9164 13.4261 47.8262 13.4L36.2582 10.066C36.183 10.0231 36.0986 9.99912 36.0122 9.99598L13.2062 3.42998C13.1197 3.37655 13.0198 3.3488 12.9182 3.34998L1.35817 0.019982C1.30873 0.00606638 1.25754 -0.00066917 1.20617 -1.79598e-05ZM1.95417 1.30798L11.8662 4.15998L4.42617 11.328L1.95417 1.30798ZM13.6662 4.67998L23.3942 7.47998L16.0942 14.51L13.6662 4.67998ZM12.6222 4.91998L15.0562 14.772L5.30217 11.972L12.6222 4.91998ZM25.1822 7.99598L34.9382 10.804L27.6142 17.864L25.1822 7.99598ZM24.1422 8.25598L26.5582 18.056L16.8522 15.272L24.1422 8.25598ZM36.7422 11.324L46.6362 14.172L39.2062 21.32L36.7422 11.324ZM35.6942 11.564L38.1242 21.416L28.3722 18.62L35.6942 11.564ZM4.83017 12.956L14.7582 15.804L7.30617 22.976L4.83017 12.956ZM16.5402 16.3L26.2942 19.1L18.9742 26.154L16.5402 16.3ZM15.5042 16.574L17.9762 26.608L8.05017 23.744L15.5042 16.574ZM28.0522 19.644L37.9822 22.494L30.5222 29.666L28.0522 19.644ZM27.0122 19.898L29.4822 29.922L19.5662 27.062L27.0122 19.898ZM7.75217 24.774L17.4982 27.586L10.1862 34.632L7.75217 24.774ZM19.4602 28.148L29.1862 30.954L21.8902 37.974L19.4602 28.148ZM18.3802 28.228L20.8082 38.082L11.0582 35.282L18.3802 28.228ZM10.5882 36.268L20.6622 39.152L13.0982 46.428L10.5882 36.268Z" fill="#F2E8EA"/>
</g>
<defs>
<clipPath id="clip0_102_487">
<rect width="48" height="48" fill="white" transform="translate(0.446167)"/>
</clipPath>
</defs>
</svg>
