<svg width="48" height="48" viewBox="0 0 48 48" fill="none" xmlns="http://www.w3.org/2000/svg">
<g clip-path="url(#clip0_102_492)">
<path d="M3.75 0H44.25C46.3211 0 48 1.67888 48 3.75V44.25C48 46.3211 46.3211 48 44.25 48H3.75C1.67888 48 0 46.3211 0 44.25V3.75C0 1.67888 1.67888 0 3.75 0Z" fill="#F2E8EA"/>
<path d="M28.2221 37.5891V42.7678C29.0644 43.1994 30.0606 43.5231 31.2105 43.7389C32.3604 43.9547 33.5724 44.0625 34.8467 44.0625C36.0883 44.0625 37.2681 43.9438 38.3856 43.7064C39.5031 43.4691 40.4831 43.0779 41.3252 42.5332C42.1674 41.9884 42.8342 41.2762 43.3256 40.3969C43.8169 39.5177 44.0625 38.4308 44.0625 37.1361C44.0625 36.1974 43.9221 35.3747 43.6414 34.668C43.3638 33.9661 42.951 33.3255 42.4266 32.7827C41.8976 32.2324 41.2631 31.7389 40.5236 31.3018C39.7839 30.8649 38.9498 30.4523 38.0211 30.0639C37.3408 29.7833 36.7309 29.511 36.1909 29.2466C35.6511 28.9822 35.1921 28.7126 34.8142 28.4374C34.4362 28.1623 34.1447 27.8709 33.9396 27.5634C33.7344 27.2559 33.6319 26.9081 33.6319 26.5196C33.6319 26.1636 33.7236 25.8427 33.9071 25.5568C34.0907 25.2709 34.35 25.0254 34.6847 24.8205C35.0194 24.6154 35.4296 24.4564 35.9156 24.3429C36.4014 24.2297 36.9414 24.1731 37.5353 24.1731C37.9673 24.1731 38.4234 24.2055 38.9038 24.2702C39.3844 24.3349 39.8676 24.4346 40.3536 24.5696C40.838 24.7039 41.3117 24.8743 41.7707 25.0794C42.2157 25.2767 42.6414 25.515 43.0421 25.7914V20.9526C42.2539 20.6505 41.3927 20.4266 40.4587 20.2809C39.5248 20.1353 38.4531 20.0625 37.2437 20.0625C36.0127 20.0625 34.8467 20.1947 33.7453 20.4591C32.6439 20.7232 31.6747 21.1359 30.8379 21.6969C30.0011 22.2581 29.3398 22.9729 28.8538 23.8414C28.368 24.7099 28.125 25.7482 28.125 26.9567C28.125 28.4994 28.5703 29.8157 29.4613 30.9054C30.3521 31.995 31.7044 32.9175 33.5184 33.6727C34.1881 33.9455 34.8523 34.2315 35.5106 34.5306C36.1262 34.8111 36.6579 35.1023 37.1061 35.4043C37.5542 35.7064 37.9078 36.0354 38.1669 36.3915C38.4261 36.7476 38.5556 37.1522 38.5556 37.6054C38.5578 37.9315 38.474 38.2525 38.3126 38.5359C38.1508 38.8217 37.905 39.0699 37.5758 39.2803C37.2465 39.4907 36.8361 39.6551 36.3448 39.7738C35.8536 39.8925 35.2785 39.9519 34.6198 39.9519C33.4969 39.9519 32.3848 39.7551 31.2834 39.3611C30.1819 38.9674 29.1615 38.3768 28.2221 37.5891ZM19.5904 24.7016H26.25V20.4375H7.6875V24.7016H14.3147V43.6875H19.5904V24.7016Z" fill="#0A0B04"/>
</g>
<defs>
<clipPath id="clip0_102_492">
<rect width="48" height="48" fill="white"/>
</clipPath>
</defs>
</svg>
