<svg width="49" height="49" viewBox="0 0 49 49" fill="none" xmlns="http://www.w3.org/2000/svg">
<g clip-path="url(#clip0_102_488)">
<mask id="mask0_102_488" style="mask-type:luminance" maskUnits="userSpaceOnUse" x="0" y="0" width="49" height="49">
<path d="M34.1722 47.8303C34.5557 47.9798 34.9658 48.0488 35.3771 48.033C35.7883 48.0172 36.1919 47.9169 36.5628 47.7384L46.4842 42.9645C46.9952 42.7185 47.4264 42.3332 47.7281 41.853C48.0298 41.3728 48.1898 40.8172 48.1898 40.25V7.87913C48.1898 7.31204 48.0298 6.75645 47.7281 6.27627C47.4263 5.7961 46.9952 5.41086 46.4842 5.16487L36.563 0.390756C36.0024 0.120992 35.3718 0.0321709 34.7584 0.136585C34.1451 0.241 33.5794 0.533486 33.1397 0.973559L14.1462 18.3017L5.87284 12.0217C5.49965 11.7384 5.03906 11.5947 4.57099 11.6155C4.10291 11.6363 3.6569 11.8203 3.31032 12.1356L0.656905 14.5494C-0.218056 15.3452 -0.219001 16.7217 0.654637 17.5188L7.8295 24.0646L0.654637 30.6102C-0.219001 31.4075 -0.218056 32.7838 0.656905 33.5797L3.31032 35.9933C3.65687 36.3087 4.10288 36.4927 4.57095 36.5136C5.03902 36.5344 5.49963 36.3907 5.87284 36.1075L14.1462 29.8272L33.1397 47.1554C33.4333 47.4496 33.785 47.6794 34.1722 47.8303ZM36.1497 13.1249L21.738 24.0646L36.1497 35.0041V13.1249Z" fill="white"/>
</mask>
<g mask="url(#mask0_102_488)">
<path d="M46.5137 5.17218L36.5845 0.391451C36.0238 0.12147 35.3929 0.0324597 34.7794 0.136737C34.1658 0.241014 33.5998 0.533422 33.1597 0.973499L0.655007 30.6101C-0.219198 31.4074 -0.218064 32.7837 0.657274 33.5797L3.31239 35.9933C3.65925 36.3087 4.10554 36.4927 4.57388 36.5136C5.04223 36.5344 5.5031 36.3907 5.87661 36.1074L45.0197 6.41243C46.3329 5.41633 48.219 6.3529 48.219 8.00115V7.88588C48.219 7.31889 48.059 6.76343 47.7573 6.28336C47.4556 5.8033 47.0246 5.41814 46.5137 5.17218Z" fill="#F2E8EA"/>
</g>
<mask id="mask1_102_488" style="mask-type:luminance" maskUnits="userSpaceOnUse" x="0" y="0" width="49" height="49">
<path d="M34.1722 47.8303C34.5557 47.9798 34.9658 48.0488 35.3771 48.033C35.7883 48.0172 36.1919 47.9169 36.5628 47.7384L46.4842 42.9645C46.9952 42.7185 47.4264 42.3332 47.7281 41.853C48.0298 41.3728 48.1898 40.8172 48.1898 40.25V7.87913C48.1898 7.31204 48.0298 6.75645 47.7281 6.27627C47.4263 5.7961 46.9952 5.41086 46.4842 5.16487L36.563 0.390756C36.0024 0.120992 35.3718 0.0321709 34.7584 0.136585C34.1451 0.241 33.5794 0.533486 33.1397 0.973559L14.1462 18.3017L5.87284 12.0217C5.49965 11.7384 5.03906 11.5947 4.57099 11.6155C4.10291 11.6363 3.6569 11.8203 3.31032 12.1356L0.656905 14.5494C-0.218056 15.3452 -0.219001 16.7217 0.654637 17.5188L7.8295 24.0646L0.654637 30.6102C-0.219001 31.4075 -0.218056 32.7838 0.656905 33.5797L3.31032 35.9933C3.65687 36.3087 4.10288 36.4927 4.57095 36.5136C5.03902 36.5344 5.49963 36.3907 5.87284 36.1075L14.1462 29.8272L33.1397 47.1554C33.4333 47.4496 33.785 47.6794 34.1722 47.8303ZM36.1497 13.1249L21.738 24.0646L36.1497 35.0041V13.1249Z" fill="white"/>
</mask>
<g mask="url(#mask1_102_488)">
<path d="M46.5137 42.9566L36.5845 47.7373C36.0237 48.0073 35.3929 48.0962 34.7794 47.992C34.1658 47.8877 33.5998 47.5953 33.1597 47.1553L0.655007 17.5187C-0.219198 16.7216 -0.218064 15.3451 0.657274 14.5493L3.31239 12.1355C3.65928 11.8201 4.10557 11.6361 4.57392 11.6153C5.04226 11.5945 5.50312 11.7382 5.87661 12.0215L45.0197 41.7164C46.3329 42.7124 48.219 41.7759 48.219 40.1274V40.2429C48.219 40.8099 48.059 41.3653 47.7573 41.8454C47.4556 42.3255 47.0246 42.7106 46.5137 42.9566Z" fill="#F2E8EA"/>
</g>
<mask id="mask2_102_488" style="mask-type:luminance" maskUnits="userSpaceOnUse" x="0" y="0" width="49" height="49">
<path d="M34.1722 47.8303C34.5557 47.9798 34.9658 48.0488 35.3771 48.033C35.7883 48.0172 36.1919 47.9169 36.5628 47.7384L46.4842 42.9645C46.9952 42.7185 47.4264 42.3332 47.7281 41.853C48.0298 41.3728 48.1898 40.8172 48.1898 40.25V7.87913C48.1898 7.31204 48.0298 6.75645 47.7281 6.27627C47.4263 5.7961 46.9952 5.41086 46.4842 5.16487L36.563 0.390756C36.0024 0.120992 35.3718 0.0321709 34.7584 0.136585C34.1451 0.241 33.5794 0.533486 33.1397 0.973559L14.1462 18.3017L5.87284 12.0217C5.49965 11.7384 5.03906 11.5947 4.57099 11.6155C4.10291 11.6363 3.6569 11.8203 3.31032 12.1356L0.656905 14.5494C-0.218056 15.3452 -0.219001 16.7217 0.654637 17.5188L7.8295 24.0646L0.654637 30.6102C-0.219001 31.4075 -0.218056 32.7838 0.656905 33.5797L3.31032 35.9933C3.65687 36.3087 4.10288 36.4927 4.57095 36.5136C5.03902 36.5344 5.49963 36.3907 5.87284 36.1075L14.1462 29.8272L33.1397 47.1554C33.4333 47.4496 33.785 47.6794 34.1722 47.8303ZM36.1497 13.1249L21.738 24.0646L36.1497 35.0041V13.1249Z" fill="white"/>
</mask>
<g mask="url(#mask2_102_488)">
<path d="M36.5533 47.7411C35.9924 48.0109 35.3616 48.0998 34.7479 47.9954C34.1343 47.891 33.5683 47.5986 33.1281 47.1585C34.2395 48.2697 36.14 47.4826 36.14 45.9107V2.22407C36.14 0.652166 34.2395 -0.13492 33.1281 0.97645C33.5683 0.536338 34.1343 0.243855 34.7479 0.139448C35.3615 0.0350409 35.9924 0.123868 36.5533 0.393647L46.4808 5.16776C46.992 5.41358 47.4234 5.79876 47.7253 6.27895C48.0272 6.75914 48.1873 7.31482 48.1873 7.88202V40.2531C48.1873 41.4106 47.524 42.4658 46.4808 42.9674L36.5533 47.7411Z" fill="#F2E8EA"/>
</g>
</g>
<defs>
<clipPath id="clip0_102_488">
<rect width="48.378" height="48" fill="white" transform="translate(0 0.09375)"/>
</clipPath>
</defs>
</svg>
