<svg width="60" height="48" viewBox="0 0 60 48" fill="none" xmlns="http://www.w3.org/2000/svg">
<path d="M14.6471 0L14.1765 0.470588L1 24L14.6471 48H46.1765L53.2353 35.7647V34.8235L59.8235 24L52.7647 12.7059V11.7647L46.1765 0H14.6471ZM24.5294 14.1176H34.4118L40.5294 24L34.4118 33.8824H24.5294L18.8824 24L24.5294 14.1176Z" fill="#F2E8EA"/>
<path d="M53.1013 34.742L53.0784 34.7795V34.8235V35.7227L46.0859 47.8431H14.7383L1.18011 23.9994L14.3027 0.566164L14.712 0.156863H46.0845L52.6078 11.8056V12.7059V12.7509L52.6317 12.789L59.6392 24.0011L53.1013 34.742ZM24.5294 13.9608H24.4384L24.3932 14.0398L18.7462 23.9222L18.7017 24L18.7462 24.0778L24.3932 33.9602L24.4384 34.0392H24.5294H34.4118H34.4991L34.5451 33.9649L40.6628 24.0826L40.7139 24L40.6628 23.9174L34.5451 14.0351L34.4991 13.9608H34.4118H24.5294Z" stroke="#0A0B04" stroke-opacity="0.4" stroke-width="0.313725"/>
<path d="M57.4706 24L51.8235 33.8824L43.3529 24L51.8235 14.1176L57.4706 24Z" fill="#F2E8EA"/>
<path d="M57.2899 24L51.7978 33.6113L43.5595 24L51.7978 14.3887L57.2899 24Z" stroke="#0A0B04" stroke-opacity="0.4" stroke-width="0.313725"/>
<path d="M50.8824 35.7647L41.9412 24.9412L36.7647 33.8823L44.7647 46.1176L50.8824 35.7647Z" fill="#F2E8EA"/>
<path d="M44.758 45.8207L36.9489 33.8773L41.9639 25.215L50.6913 35.7797L44.758 45.8207Z" stroke="#0A0B04" stroke-opacity="0.4" stroke-width="0.313725"/>
<path d="M50.8824 12.2353L41.9412 23.0588L36.7647 14.1177L44.7647 1.88235L50.8824 12.2353Z" fill="#F2E8EA"/>
<path d="M50.6913 12.2203L41.9639 22.785L36.9489 14.1226L44.758 2.1793L50.6913 12.2203Z" stroke="#0A0B04" stroke-opacity="0.4" stroke-width="0.313725"/>
<path d="M29.7059 46.1176L16.5294 24L29.7059 1.88235H15.5882L2.88235 24L15.5882 46.1176H29.7059Z" fill="#F2E8EA"/>
<path d="M16.3947 23.9197L16.3468 24L16.3947 24.0803L29.4298 45.9608H15.679L3.06326 24L15.679 2.03922H29.4298L16.3947 23.9197Z" stroke="#0A0B04" stroke-opacity="0.4" stroke-width="0.313725"/>
<path d="M23.5882 12.2353L29.7059 1.88235H44.7647L50.8824 12.2353H23.5882ZM36.7647 14.1177H51.8235L57 23.0588H41.9412L36.7647 14.1177Z" fill="#F2E8EA"/>
<path d="M50.6075 12.0784H23.8631L29.7954 2.03922H44.6752L50.6075 12.0784ZM42.0316 22.902L37.0368 14.2745H51.7331L56.7279 22.902H42.0316Z" stroke="#0A0B04" stroke-opacity="0.4" stroke-width="0.313725"/>
<path d="M23.5882 35.7647L29.7059 46.1176H44.7647L50.8824 35.7647H23.5882ZM36.7647 33.8823H51.8235L57 24.9412H41.9412L36.7647 33.8823Z" fill="#F2E8EA"/>
<path d="M29.7954 45.9608L23.8631 35.9216H50.6075L44.6752 45.9608H29.7954ZM56.7279 25.098L51.7331 33.7255H37.0368L42.0316 25.098H56.7279Z" stroke="#0A0B04" stroke-opacity="0.4" stroke-width="0.313725"/>
</svg>
