<svg width="200" height="200" viewBox="0 0 200 200" fill="none" xmlns="http://www.w3.org/2000/svg">
<g clip-path="url(#clip0_2279_257)">
<path d="M0 0H200V200H0V0Z" fill="url(#paint0_linear_2279_257)"/>
<path d="M143.948 60.461C144.211 60.4239 144.079 60.4285 144.379 60.5869C144.336 61.9162 143.602 64.0326 143.327 65.4237C140.715 78.6059 137.811 91.7395 135.156 104.914C133.987 110.716 132.589 115.991 131.749 121.887L148.69 121.843C147.59 127.836 146.087 133.689 144.846 139.648C141.65 139.319 135.506 139.493 132.043 139.489L107.324 139.49L89.3428 139.462C89.6193 137.538 90.3514 134.714 90.8184 132.744C91.6984 129.034 92.423 125.722 93.0498 121.965C98.6223 121.74 104.866 121.861 110.489 121.858C110.672 119.01 112.762 110.692 113.415 107.549L120.071 75.3364C120.904 71.2793 122.627 64.3016 123.124 60.5225C130.015 60.41 137.047 60.4699 143.948 60.461Z" fill="#FEFEFE"/>
<path d="M143.948 60.461C144.211 60.4239 144.079 60.4285 144.379 60.5869C144.336 61.9162 143.602 64.0326 143.327 65.4237C140.715 78.6059 137.811 91.7395 135.156 104.914C133.987 110.716 132.589 115.991 131.749 121.887L148.69 121.843C147.59 127.836 146.087 133.689 144.846 139.648C141.65 139.319 135.506 139.493 132.043 139.489L107.324 139.49L89.3428 139.462C89.6193 137.538 90.3514 134.714 90.8184 132.744C91.6984 129.034 92.423 125.722 93.0498 121.965C98.6223 121.74 104.866 121.861 110.489 121.858C110.672 119.01 112.762 110.692 113.415 107.549L120.071 75.3364C120.904 71.2793 122.627 64.3016 123.124 60.5225C130.015 60.41 137.047 60.4699 143.948 60.461Z" fill="url(#paint1_linear_2279_257)"/>
<path d="M57.283 60.5737C75.5258 60.2309 94.6074 60.6076 112.949 60.5272C111.837 65.6594 110.438 73.5834 108.991 78.2467C104.726 77.8516 96.3728 78.0967 91.9055 78.1084C89.842 88.9901 87.6014 99.8375 85.1846 110.646C84.16 115.433 82.818 120.795 82.0619 125.546C80.949 130.144 80.2793 135.459 79.1867 139.653L57.935 139.592C59.3199 134.156 60.3188 128.189 61.4707 122.672L67.574 93.6438C68.1309 90.9914 68.6697 88.3354 69.1902 85.6756C69.5711 83.6299 70.0969 79.8266 70.8467 78.0715C65.4064 78.2176 59.0186 78.1008 53.542 78.0485C54.6422 73.8444 56.6687 64.8977 57.283 60.5737Z" fill="#FEFEFE"/>
<path d="M57.283 60.5737C75.5258 60.2309 94.6074 60.6076 112.949 60.5272C111.837 65.6594 110.438 73.5834 108.991 78.2467C104.726 77.8516 96.3728 78.0967 91.9055 78.1084C89.842 88.9901 87.6014 99.8375 85.1846 110.646C84.16 115.433 82.818 120.795 82.0619 125.546C80.949 130.144 80.2793 135.459 79.1867 139.653L57.935 139.592C59.3199 134.156 60.3188 128.189 61.4707 122.672L67.574 93.6438C68.1309 90.9914 68.6697 88.3354 69.1902 85.6756C69.5711 83.6299 70.0969 79.8266 70.8467 78.0715C65.4064 78.2176 59.0186 78.1008 53.542 78.0485C54.6422 73.8444 56.6687 64.8977 57.283 60.5737Z" fill="url(#paint2_linear_2279_257)"/>
</g>
<defs>
<linearGradient id="paint0_linear_2279_257" x1="100" y1="0" x2="100" y2="200" gradientUnits="userSpaceOnUse">
<stop stop-color="#111307"/>
<stop offset="0.6" stop-color="#0F1108"/>
<stop offset="1" stop-color="#0A0B04"/>
</linearGradient>
<linearGradient id="paint1_linear_2279_257" x1="119.016" y1="60.4418" x2="119.016" y2="139.648" gradientUnits="userSpaceOnUse">
<stop stop-color="#C5C7BC"/>
<stop offset="1" stop-color="#60615C"/>
</linearGradient>
<linearGradient id="paint2_linear_2279_257" x1="83.2457" y1="60.4271" x2="83.2457" y2="139.653" gradientUnits="userSpaceOnUse">
<stop stop-color="#C5C7BC"/>
<stop offset="1" stop-color="#60615C"/>
</linearGradient>
<clipPath id="clip0_2279_257">
<rect width="200" height="200" fill="white"/>
</clipPath>
</defs>
</svg>
