<svg width="200" height="200" viewBox="0 0 200 200" fill="none" xmlns="http://www.w3.org/2000/svg">
<rect width="200" height="200" fill="url(#paint0_linear_2280_361)"/>
<path d="M53.8931 52.6249C53.4704 52.6249 52.625 52.942 52.625 54.2101V88.1322C52.625 88.5549 52.8786 89.4003 53.8931 89.4003H54.5272H67.2083V89.4751V95.1068C67.2083 95.5295 67.462 96.3749 68.4764 96.3749H80.5235C80.9463 96.3749 81.7917 96.1213 81.7917 95.1068V89.4003H95.1069C95.5296 89.4003 96.375 89.1615 96.375 88.2061V53.8931C96.375 53.4703 96.1214 52.6249 95.1069 52.6249H81.6875L74.5 59.8124L67.3125 52.6249H53.8931Z" fill="url(#paint1_linear_2280_361)"/>
<path d="M104.893 52.6249C104.47 52.6249 103.625 52.942 103.625 54.2101V88.1322V94.8124C103.625 95.7499 104.25 96.3749 104.875 96.3749H146.125C146.75 96.3749 147.375 95.7499 147.375 94.8124V89.1874C147.375 88.2499 146.75 87.6249 146.125 87.6249H139.75V84.8124H146.089C146.505 84.8124 147.339 84.5624 147.339 83.5624L147.357 75.1249C147.357 74.7083 147.107 73.8749 146.107 73.8749H139.75V71.0624H146.089C146.714 71.0624 147.339 70.4374 147.339 69.8124L147.375 53.8749C147.375 53.4522 147.121 52.6249 146.107 52.6249H104.893Z" fill="url(#paint2_linear_2280_361)"/>
<path d="M53.8931 103.625C53.4704 103.625 52.625 103.942 52.625 105.21V139.132C52.625 139.555 52.8786 140.4 53.8931 140.4H54.5272H67.2083V140.475V146.107C67.2083 146.53 67.462 147.375 68.4764 147.375H80.5235C80.9463 147.375 81.7917 147.121 81.7917 146.107V140.4H95.1069C95.5296 140.4 96.375 140.162 96.375 139.206V104.893C96.375 104.47 96.1214 103.625 95.1069 103.625H53.8931Z" fill="url(#paint3_linear_2280_361)"/>
<path d="M104.893 103.625C104.47 103.625 103.625 103.942 103.625 105.21V139.132V145.812C103.625 147.062 104.458 147.375 104.875 147.375H116.75C117.449 147.372 118 146.75 118 146.125V139.875H125.5H133V146.125C133 146.75 133.512 147.375 134.25 147.375H145.5C147 147.375 147.375 146.333 147.375 145.812V139.206V104.893C147.375 104.47 147.121 103.625 146.107 103.625H104.893Z" fill="url(#paint4_linear_2280_361)"/>
<defs>
<linearGradient id="paint0_linear_2280_361" x1="100" y1="0" x2="100" y2="200" gradientUnits="userSpaceOnUse">
<stop stop-color="#111307"/>
<stop offset="0.6" stop-color="#0F1108"/>
<stop offset="1" stop-color="#0A0B04"/>
</linearGradient>
<linearGradient id="paint1_linear_2280_361" x1="74.5" y1="52.6249" x2="74.5" y2="96.3749" gradientUnits="userSpaceOnUse">
<stop stop-color="#C5C7BC"/>
<stop offset="1" stop-color="#60615C"/>
</linearGradient>
<linearGradient id="paint2_linear_2280_361" x1="125.5" y1="52.6249" x2="125.5" y2="96.3749" gradientUnits="userSpaceOnUse">
<stop stop-color="#C5C7BC"/>
<stop offset="1" stop-color="#60615C"/>
</linearGradient>
<linearGradient id="paint3_linear_2280_361" x1="74.5" y1="103.625" x2="74.5" y2="147.375" gradientUnits="userSpaceOnUse">
<stop stop-color="#C5C7BC"/>
<stop offset="1" stop-color="#60615C"/>
</linearGradient>
<linearGradient id="paint4_linear_2280_361" x1="125.5" y1="103.625" x2="125.5" y2="147.375" gradientUnits="userSpaceOnUse">
<stop stop-color="#C5C7BC"/>
<stop offset="1" stop-color="#60615C"/>
</linearGradient>
</defs>
</svg>
